G04 #@! TF.FileFunction,Legend,Bot*
%FSLAX46Y46*%
G04 Gerber Fmt 4.6, Leading zero omitted, Abs format (unit mm)*
G04 Created by KiCad (PCBNEW 4.0.7) date 12/26/17 18:21:05*
%MOMM*%
%LPD*%
G01*
G04 APERTURE LIST*
%ADD10C,0.100000*%
%ADD11C,0.127000*%
%ADD12C,0.099060*%
%ADD13C,0.150000*%
G04 APERTURE END LIST*
D10*
D11*
X109865000Y-91357000D02*
X109865000Y-93643000D01*
X109865000Y-93643000D02*
X111135000Y-93643000D01*
X111135000Y-93643000D02*
X111135000Y-91357000D01*
X111135000Y-91357000D02*
X109865000Y-91357000D01*
D12*
X114865000Y-94448500D02*
G75*
G03X114865000Y-94448500I-127000J0D01*
G01*
X114738000Y-93305500D02*
X114738000Y-94321500D01*
X114738000Y-94321500D02*
X116262000Y-94321500D01*
X116262000Y-94321500D02*
X116262000Y-93305500D01*
X116262000Y-92289500D02*
X116262000Y-91273500D01*
X116262000Y-91273500D02*
X114738000Y-91273500D01*
X114738000Y-91273500D02*
X114738000Y-92289500D01*
D11*
X109865000Y-96857000D02*
X109865000Y-99143000D01*
X109865000Y-99143000D02*
X111135000Y-99143000D01*
X111135000Y-99143000D02*
X111135000Y-96857000D01*
X111135000Y-96857000D02*
X109865000Y-96857000D01*
X137095000Y-97635000D02*
X139381000Y-97635000D01*
X139381000Y-97635000D02*
X139381000Y-96365000D01*
X139381000Y-96365000D02*
X137095000Y-96365000D01*
X137095000Y-96365000D02*
X137095000Y-97635000D01*
X115495000Y-97835000D02*
X117781000Y-97835000D01*
X117781000Y-97835000D02*
X117781000Y-96565000D01*
X117781000Y-96565000D02*
X115495000Y-96565000D01*
X115495000Y-96565000D02*
X115495000Y-97835000D01*
X131615000Y-99857000D02*
X131615000Y-102143000D01*
X131615000Y-102143000D02*
X132885000Y-102143000D01*
X132885000Y-102143000D02*
X132885000Y-99857000D01*
X132885000Y-99857000D02*
X131615000Y-99857000D01*
X133135000Y-93968876D02*
X133135000Y-91682876D01*
X133135000Y-91682876D02*
X131865000Y-91682876D01*
X131865000Y-91682876D02*
X131865000Y-93968876D01*
X131865000Y-93968876D02*
X133135000Y-93968876D01*
X131635000Y-93968876D02*
X131635000Y-91682876D01*
X131635000Y-91682876D02*
X130365000Y-91682876D01*
X130365000Y-91682876D02*
X130365000Y-93968876D01*
X130365000Y-93968876D02*
X131635000Y-93968876D01*
D12*
X129928500Y-97988000D02*
G75*
G03X129928500Y-97988000I-127000J0D01*
G01*
X130944500Y-97988000D02*
X129928500Y-97988000D01*
X129928500Y-97988000D02*
X129928500Y-99512000D01*
X129928500Y-99512000D02*
X130944500Y-99512000D01*
X131960500Y-99512000D02*
X132976500Y-99512000D01*
X132976500Y-99512000D02*
X132976500Y-97988000D01*
X132976500Y-97988000D02*
X131960500Y-97988000D01*
X129865000Y-103151000D02*
G75*
G03X129865000Y-103151000I-127000J0D01*
G01*
X129738000Y-102008000D02*
X129738000Y-103024000D01*
X129738000Y-103024000D02*
X131262000Y-103024000D01*
X131262000Y-103024000D02*
X131262000Y-102008000D01*
X131262000Y-100992000D02*
X131262000Y-99976000D01*
X131262000Y-99976000D02*
X129738000Y-99976000D01*
X129738000Y-99976000D02*
X129738000Y-100992000D01*
D13*
X103900000Y-95450000D02*
X103900000Y-95550000D01*
X103100000Y-95450000D02*
X103100000Y-95550000D01*
X103900000Y-94950000D02*
X103900000Y-95450000D01*
X103100000Y-94950000D02*
X103100000Y-95450000D01*
X109456786Y-91789405D02*
X109487024Y-91759167D01*
X109517262Y-91668452D01*
X109517262Y-91607976D01*
X109487024Y-91517262D01*
X109426548Y-91456786D01*
X109366071Y-91426547D01*
X109245119Y-91396309D01*
X109154405Y-91396309D01*
X109033452Y-91426547D01*
X108972976Y-91456786D01*
X108912500Y-91517262D01*
X108882262Y-91607976D01*
X108882262Y-91668452D01*
X108912500Y-91759167D01*
X108942738Y-91789405D01*
X108942738Y-92031309D02*
X108912500Y-92061547D01*
X108882262Y-92122024D01*
X108882262Y-92273214D01*
X108912500Y-92333690D01*
X108942738Y-92363928D01*
X109003214Y-92394167D01*
X109063690Y-92394167D01*
X109154405Y-92363928D01*
X109517262Y-92001071D01*
X109517262Y-92394167D01*
X108882262Y-92787262D02*
X108882262Y-92847738D01*
X108912500Y-92908214D01*
X108942738Y-92938452D01*
X109003214Y-92968690D01*
X109124167Y-92998929D01*
X109275357Y-92998929D01*
X109396310Y-92968690D01*
X109456786Y-92938452D01*
X109487024Y-92908214D01*
X109517262Y-92847738D01*
X109517262Y-92787262D01*
X109487024Y-92726786D01*
X109456786Y-92696548D01*
X109396310Y-92666309D01*
X109275357Y-92636071D01*
X109124167Y-92636071D01*
X109003214Y-92666309D01*
X108942738Y-92696548D01*
X108912500Y-92726786D01*
X108882262Y-92787262D01*
X108882262Y-93210595D02*
X108882262Y-93603691D01*
X109124167Y-93392024D01*
X109124167Y-93482738D01*
X109154405Y-93543214D01*
X109184643Y-93573452D01*
X109245119Y-93603691D01*
X109396310Y-93603691D01*
X109456786Y-93573452D01*
X109487024Y-93543214D01*
X109517262Y-93482738D01*
X109517262Y-93301310D01*
X109487024Y-93240833D01*
X109456786Y-93210595D01*
X117476786Y-92086905D02*
X117507024Y-92056667D01*
X117537262Y-91965952D01*
X117537262Y-91905476D01*
X117507024Y-91814762D01*
X117446548Y-91754286D01*
X117386071Y-91724047D01*
X117265119Y-91693809D01*
X117174405Y-91693809D01*
X117053452Y-91724047D01*
X116992976Y-91754286D01*
X116932500Y-91814762D01*
X116902262Y-91905476D01*
X116902262Y-91965952D01*
X116932500Y-92056667D01*
X116962738Y-92086905D01*
X116962738Y-92328809D02*
X116932500Y-92359047D01*
X116902262Y-92419524D01*
X116902262Y-92570714D01*
X116932500Y-92631190D01*
X116962738Y-92661428D01*
X117023214Y-92691667D01*
X117083690Y-92691667D01*
X117174405Y-92661428D01*
X117537262Y-92298571D01*
X117537262Y-92691667D01*
X116902262Y-93084762D02*
X116902262Y-93145238D01*
X116932500Y-93205714D01*
X116962738Y-93235952D01*
X117023214Y-93266190D01*
X117144167Y-93296429D01*
X117295357Y-93296429D01*
X117416310Y-93266190D01*
X117476786Y-93235952D01*
X117507024Y-93205714D01*
X117537262Y-93145238D01*
X117537262Y-93084762D01*
X117507024Y-93024286D01*
X117476786Y-92994048D01*
X117416310Y-92963809D01*
X117295357Y-92933571D01*
X117144167Y-92933571D01*
X117023214Y-92963809D01*
X116962738Y-92994048D01*
X116932500Y-93024286D01*
X116902262Y-93084762D01*
X116902262Y-93870952D02*
X116902262Y-93568571D01*
X117204643Y-93538333D01*
X117174405Y-93568571D01*
X117144167Y-93629048D01*
X117144167Y-93780238D01*
X117174405Y-93840714D01*
X117204643Y-93870952D01*
X117265119Y-93901191D01*
X117416310Y-93901191D01*
X117476786Y-93870952D01*
X117507024Y-93840714D01*
X117537262Y-93780238D01*
X117537262Y-93629048D01*
X117507024Y-93568571D01*
X117476786Y-93538333D01*
X109456786Y-97289405D02*
X109487024Y-97259167D01*
X109517262Y-97168452D01*
X109517262Y-97107976D01*
X109487024Y-97017262D01*
X109426548Y-96956786D01*
X109366071Y-96926547D01*
X109245119Y-96896309D01*
X109154405Y-96896309D01*
X109033452Y-96926547D01*
X108972976Y-96956786D01*
X108912500Y-97017262D01*
X108882262Y-97107976D01*
X108882262Y-97168452D01*
X108912500Y-97259167D01*
X108942738Y-97289405D01*
X108942738Y-97531309D02*
X108912500Y-97561547D01*
X108882262Y-97622024D01*
X108882262Y-97773214D01*
X108912500Y-97833690D01*
X108942738Y-97863928D01*
X109003214Y-97894167D01*
X109063690Y-97894167D01*
X109154405Y-97863928D01*
X109517262Y-97501071D01*
X109517262Y-97894167D01*
X108882262Y-98287262D02*
X108882262Y-98347738D01*
X108912500Y-98408214D01*
X108942738Y-98438452D01*
X109003214Y-98468690D01*
X109124167Y-98498929D01*
X109275357Y-98498929D01*
X109396310Y-98468690D01*
X109456786Y-98438452D01*
X109487024Y-98408214D01*
X109517262Y-98347738D01*
X109517262Y-98287262D01*
X109487024Y-98226786D01*
X109456786Y-98196548D01*
X109396310Y-98166309D01*
X109275357Y-98136071D01*
X109124167Y-98136071D01*
X109003214Y-98166309D01*
X108942738Y-98196548D01*
X108912500Y-98226786D01*
X108882262Y-98287262D01*
X108882262Y-98710595D02*
X108882262Y-99133929D01*
X109517262Y-98861786D01*
X138948595Y-98496786D02*
X138978833Y-98527024D01*
X139069548Y-98557262D01*
X139130024Y-98557262D01*
X139220738Y-98527024D01*
X139281214Y-98466548D01*
X139311453Y-98406071D01*
X139341691Y-98285119D01*
X139341691Y-98194405D01*
X139311453Y-98073452D01*
X139281214Y-98012976D01*
X139220738Y-97952500D01*
X139130024Y-97922262D01*
X139069548Y-97922262D01*
X138978833Y-97952500D01*
X138948595Y-97982738D01*
X138706691Y-97982738D02*
X138676453Y-97952500D01*
X138615976Y-97922262D01*
X138464786Y-97922262D01*
X138404310Y-97952500D01*
X138374072Y-97982738D01*
X138343833Y-98043214D01*
X138343833Y-98103690D01*
X138374072Y-98194405D01*
X138736929Y-98557262D01*
X138343833Y-98557262D01*
X137739071Y-98557262D02*
X138101929Y-98557262D01*
X137920500Y-98557262D02*
X137920500Y-97922262D01*
X137980976Y-98012976D01*
X138041452Y-98073452D01*
X138101929Y-98103690D01*
X137134309Y-98557262D02*
X137497167Y-98557262D01*
X137315738Y-98557262D02*
X137315738Y-97922262D01*
X137376214Y-98012976D01*
X137436690Y-98073452D01*
X137497167Y-98103690D01*
X117348595Y-98696786D02*
X117378833Y-98727024D01*
X117469548Y-98757262D01*
X117530024Y-98757262D01*
X117620738Y-98727024D01*
X117681214Y-98666548D01*
X117711453Y-98606071D01*
X117741691Y-98485119D01*
X117741691Y-98394405D01*
X117711453Y-98273452D01*
X117681214Y-98212976D01*
X117620738Y-98152500D01*
X117530024Y-98122262D01*
X117469548Y-98122262D01*
X117378833Y-98152500D01*
X117348595Y-98182738D01*
X117106691Y-98182738D02*
X117076453Y-98152500D01*
X117015976Y-98122262D01*
X116864786Y-98122262D01*
X116804310Y-98152500D01*
X116774072Y-98182738D01*
X116743833Y-98243214D01*
X116743833Y-98303690D01*
X116774072Y-98394405D01*
X117136929Y-98757262D01*
X116743833Y-98757262D01*
X116139071Y-98757262D02*
X116501929Y-98757262D01*
X116320500Y-98757262D02*
X116320500Y-98122262D01*
X116380976Y-98212976D01*
X116441452Y-98273452D01*
X116501929Y-98303690D01*
X115927405Y-98122262D02*
X115534309Y-98122262D01*
X115745976Y-98364167D01*
X115655262Y-98364167D01*
X115594786Y-98394405D01*
X115564548Y-98424643D01*
X115534309Y-98485119D01*
X115534309Y-98636310D01*
X115564548Y-98696786D01*
X115594786Y-98727024D01*
X115655262Y-98757262D01*
X115836690Y-98757262D01*
X115897167Y-98727024D01*
X115927405Y-98696786D01*
X132476786Y-103289405D02*
X132507024Y-103259167D01*
X132537262Y-103168452D01*
X132537262Y-103107976D01*
X132507024Y-103017262D01*
X132446548Y-102956786D01*
X132386071Y-102926547D01*
X132265119Y-102896309D01*
X132174405Y-102896309D01*
X132053452Y-102926547D01*
X131992976Y-102956786D01*
X131932500Y-103017262D01*
X131902262Y-103107976D01*
X131902262Y-103168452D01*
X131932500Y-103259167D01*
X131962738Y-103289405D01*
X131962738Y-103531309D02*
X131932500Y-103561547D01*
X131902262Y-103622024D01*
X131902262Y-103773214D01*
X131932500Y-103833690D01*
X131962738Y-103863928D01*
X132023214Y-103894167D01*
X132083690Y-103894167D01*
X132174405Y-103863928D01*
X132537262Y-103501071D01*
X132537262Y-103894167D01*
X132537262Y-104498929D02*
X132537262Y-104136071D01*
X132537262Y-104317500D02*
X131902262Y-104317500D01*
X131992976Y-104257024D01*
X132053452Y-104196548D01*
X132083690Y-104136071D01*
X131902262Y-105043214D02*
X131902262Y-104922262D01*
X131932500Y-104861786D01*
X131962738Y-104831548D01*
X132053452Y-104771071D01*
X132174405Y-104740833D01*
X132416310Y-104740833D01*
X132476786Y-104771071D01*
X132507024Y-104801310D01*
X132537262Y-104861786D01*
X132537262Y-104982738D01*
X132507024Y-105043214D01*
X132476786Y-105073452D01*
X132416310Y-105103691D01*
X132265119Y-105103691D01*
X132204643Y-105073452D01*
X132174405Y-105043214D01*
X132144167Y-104982738D01*
X132144167Y-104861786D01*
X132174405Y-104801310D01*
X132204643Y-104771071D01*
X132265119Y-104740833D01*
X133996786Y-92115281D02*
X134027024Y-92085043D01*
X134057262Y-91994328D01*
X134057262Y-91933852D01*
X134027024Y-91843138D01*
X133966548Y-91782662D01*
X133906071Y-91752423D01*
X133785119Y-91722185D01*
X133694405Y-91722185D01*
X133573452Y-91752423D01*
X133512976Y-91782662D01*
X133452500Y-91843138D01*
X133422262Y-91933852D01*
X133422262Y-91994328D01*
X133452500Y-92085043D01*
X133482738Y-92115281D01*
X133482738Y-92357185D02*
X133452500Y-92387423D01*
X133422262Y-92447900D01*
X133422262Y-92599090D01*
X133452500Y-92659566D01*
X133482738Y-92689804D01*
X133543214Y-92720043D01*
X133603690Y-92720043D01*
X133694405Y-92689804D01*
X134057262Y-92326947D01*
X134057262Y-92720043D01*
X134057262Y-93324805D02*
X134057262Y-92961947D01*
X134057262Y-93143376D02*
X133422262Y-93143376D01*
X133512976Y-93082900D01*
X133573452Y-93022424D01*
X133603690Y-92961947D01*
X133422262Y-93536471D02*
X133422262Y-93959805D01*
X134057262Y-93687662D01*
X131226786Y-94789405D02*
X131257024Y-94759167D01*
X131287262Y-94668452D01*
X131287262Y-94607976D01*
X131257024Y-94517262D01*
X131196548Y-94456786D01*
X131136071Y-94426547D01*
X131015119Y-94396309D01*
X130924405Y-94396309D01*
X130803452Y-94426547D01*
X130742976Y-94456786D01*
X130682500Y-94517262D01*
X130652262Y-94607976D01*
X130652262Y-94668452D01*
X130682500Y-94759167D01*
X130712738Y-94789405D01*
X130712738Y-95031309D02*
X130682500Y-95061547D01*
X130652262Y-95122024D01*
X130652262Y-95273214D01*
X130682500Y-95333690D01*
X130712738Y-95363928D01*
X130773214Y-95394167D01*
X130833690Y-95394167D01*
X130924405Y-95363928D01*
X131287262Y-95001071D01*
X131287262Y-95394167D01*
X131287262Y-95998929D02*
X131287262Y-95636071D01*
X131287262Y-95817500D02*
X130652262Y-95817500D01*
X130742976Y-95757024D01*
X130803452Y-95696548D01*
X130833690Y-95636071D01*
X130924405Y-96361786D02*
X130894167Y-96301310D01*
X130863929Y-96271071D01*
X130803452Y-96240833D01*
X130773214Y-96240833D01*
X130712738Y-96271071D01*
X130682500Y-96301310D01*
X130652262Y-96361786D01*
X130652262Y-96482738D01*
X130682500Y-96543214D01*
X130712738Y-96573452D01*
X130773214Y-96603691D01*
X130803452Y-96603691D01*
X130863929Y-96573452D01*
X130894167Y-96543214D01*
X130924405Y-96482738D01*
X130924405Y-96361786D01*
X130954643Y-96301310D01*
X130984881Y-96271071D01*
X131045357Y-96240833D01*
X131166310Y-96240833D01*
X131226786Y-96271071D01*
X131257024Y-96301310D01*
X131287262Y-96361786D01*
X131287262Y-96482738D01*
X131257024Y-96543214D01*
X131226786Y-96573452D01*
X131166310Y-96603691D01*
X131045357Y-96603691D01*
X130984881Y-96573452D01*
X130954643Y-96543214D01*
X130924405Y-96482738D01*
X132210595Y-97476786D02*
X132240833Y-97507024D01*
X132331548Y-97537262D01*
X132392024Y-97537262D01*
X132482738Y-97507024D01*
X132543214Y-97446548D01*
X132573453Y-97386071D01*
X132603691Y-97265119D01*
X132603691Y-97174405D01*
X132573453Y-97053452D01*
X132543214Y-96992976D01*
X132482738Y-96932500D01*
X132392024Y-96902262D01*
X132331548Y-96902262D01*
X132240833Y-96932500D01*
X132210595Y-96962738D01*
X131968691Y-96962738D02*
X131938453Y-96932500D01*
X131877976Y-96902262D01*
X131726786Y-96902262D01*
X131666310Y-96932500D01*
X131636072Y-96962738D01*
X131605833Y-97023214D01*
X131605833Y-97083690D01*
X131636072Y-97174405D01*
X131998929Y-97537262D01*
X131605833Y-97537262D01*
X131001071Y-97537262D02*
X131363929Y-97537262D01*
X131182500Y-97537262D02*
X131182500Y-96902262D01*
X131242976Y-96992976D01*
X131303452Y-97053452D01*
X131363929Y-97083690D01*
X130698690Y-97537262D02*
X130577738Y-97537262D01*
X130517262Y-97507024D01*
X130487024Y-97476786D01*
X130426548Y-97386071D01*
X130396309Y-97265119D01*
X130396309Y-97023214D01*
X130426548Y-96962738D01*
X130456786Y-96932500D01*
X130517262Y-96902262D01*
X130638214Y-96902262D01*
X130698690Y-96932500D01*
X130728929Y-96962738D01*
X130759167Y-97023214D01*
X130759167Y-97174405D01*
X130728929Y-97234881D01*
X130698690Y-97265119D01*
X130638214Y-97295357D01*
X130517262Y-97295357D01*
X130456786Y-97265119D01*
X130426548Y-97234881D01*
X130396309Y-97174405D01*
X129226786Y-100789405D02*
X129257024Y-100759167D01*
X129287262Y-100668452D01*
X129287262Y-100607976D01*
X129257024Y-100517262D01*
X129196548Y-100456786D01*
X129136071Y-100426547D01*
X129015119Y-100396309D01*
X128924405Y-100396309D01*
X128803452Y-100426547D01*
X128742976Y-100456786D01*
X128682500Y-100517262D01*
X128652262Y-100607976D01*
X128652262Y-100668452D01*
X128682500Y-100759167D01*
X128712738Y-100789405D01*
X128712738Y-101031309D02*
X128682500Y-101061547D01*
X128652262Y-101122024D01*
X128652262Y-101273214D01*
X128682500Y-101333690D01*
X128712738Y-101363928D01*
X128773214Y-101394167D01*
X128833690Y-101394167D01*
X128924405Y-101363928D01*
X129287262Y-101001071D01*
X129287262Y-101394167D01*
X128712738Y-101636071D02*
X128682500Y-101666309D01*
X128652262Y-101726786D01*
X128652262Y-101877976D01*
X128682500Y-101938452D01*
X128712738Y-101968690D01*
X128773214Y-101998929D01*
X128833690Y-101998929D01*
X128924405Y-101968690D01*
X129287262Y-101605833D01*
X129287262Y-101998929D01*
X128652262Y-102392024D02*
X128652262Y-102452500D01*
X128682500Y-102512976D01*
X128712738Y-102543214D01*
X128773214Y-102573452D01*
X128894167Y-102603691D01*
X129045357Y-102603691D01*
X129166310Y-102573452D01*
X129226786Y-102543214D01*
X129257024Y-102512976D01*
X129287262Y-102452500D01*
X129287262Y-102392024D01*
X129257024Y-102331548D01*
X129226786Y-102301310D01*
X129166310Y-102271071D01*
X129045357Y-102240833D01*
X128894167Y-102240833D01*
X128773214Y-102271071D01*
X128712738Y-102301310D01*
X128682500Y-102331548D01*
X128652262Y-102392024D01*
X104996786Y-94539405D02*
X105027024Y-94509167D01*
X105057262Y-94418452D01*
X105057262Y-94357976D01*
X105027024Y-94267262D01*
X104966548Y-94206786D01*
X104906071Y-94176547D01*
X104785119Y-94146309D01*
X104694405Y-94146309D01*
X104573452Y-94176547D01*
X104512976Y-94206786D01*
X104452500Y-94267262D01*
X104422262Y-94357976D01*
X104422262Y-94418452D01*
X104452500Y-94509167D01*
X104482738Y-94539405D01*
X104482738Y-94781309D02*
X104452500Y-94811547D01*
X104422262Y-94872024D01*
X104422262Y-95023214D01*
X104452500Y-95083690D01*
X104482738Y-95113928D01*
X104543214Y-95144167D01*
X104603690Y-95144167D01*
X104694405Y-95113928D01*
X105057262Y-94751071D01*
X105057262Y-95144167D01*
X104422262Y-95355833D02*
X104422262Y-95748929D01*
X104664167Y-95537262D01*
X104664167Y-95627976D01*
X104694405Y-95688452D01*
X104724643Y-95718690D01*
X104785119Y-95748929D01*
X104936310Y-95748929D01*
X104996786Y-95718690D01*
X105027024Y-95688452D01*
X105057262Y-95627976D01*
X105057262Y-95446548D01*
X105027024Y-95386071D01*
X104996786Y-95355833D01*
X104633929Y-96293214D02*
X105057262Y-96293214D01*
X104392024Y-96142024D02*
X104845595Y-95990833D01*
X104845595Y-96383929D01*
M02*
