G04 #@! TF.FileFunction,Soldermask,Bot*
%FSLAX46Y46*%
G04 Gerber Fmt 4.6, Leading zero omitted, Abs format (unit mm)*
G04 Created by KiCad (PCBNEW 4.0.7) date 12/26/17 18:21:06*
%MOMM*%
%LPD*%
G01*
G04 APERTURE LIST*
%ADD10C,0.100000*%
%ADD11R,1.143000X0.635000*%
%ADD12R,1.397000X0.889000*%
%ADD13R,0.635000X1.143000*%
%ADD14R,0.889000X1.397000*%
%ADD15R,4.900000X1.600000*%
%ADD16C,0.600000*%
%ADD17C,0.400000*%
%ADD18R,1.727200X1.727200*%
%ADD19O,1.727200X1.727200*%
%ADD20R,0.600000X0.500000*%
%ADD21C,2.600000*%
%ADD22R,4.000000X4.000000*%
G04 APERTURE END LIST*
D10*
D11*
X110500000Y-91738000D03*
X110500000Y-93262000D03*
D12*
X115500000Y-93750000D03*
X115500000Y-91845000D03*
D11*
X110500000Y-97238000D03*
X110500000Y-98762000D03*
D13*
X137476000Y-97000000D03*
X139000000Y-97000000D03*
X115876000Y-97200000D03*
X117400000Y-97200000D03*
D11*
X132250000Y-100238000D03*
X132250000Y-101762000D03*
X132500000Y-93587876D03*
X132500000Y-92063876D03*
X131000000Y-93587876D03*
X131000000Y-92063876D03*
D14*
X130500000Y-98750000D03*
X132405000Y-98750000D03*
D12*
X130500000Y-102452500D03*
X130500000Y-100547500D03*
D15*
X206850000Y-111250000D03*
X206850000Y-119750000D03*
X206900000Y-89750000D03*
X206900000Y-98250000D03*
D16*
X197150000Y-94400000D03*
X197150000Y-93100000D03*
X195850000Y-94400000D03*
X195850000Y-93100000D03*
D17*
X169150000Y-107900000D03*
X169150000Y-107100000D03*
X168350000Y-107900000D03*
X168350000Y-107100000D03*
X169150000Y-93400000D03*
X169150000Y-92600000D03*
X168350000Y-93400000D03*
X168350000Y-92600000D03*
X152965124Y-123584350D03*
X153965124Y-123584350D03*
X154965124Y-123584350D03*
X155965124Y-123584350D03*
X152965124Y-122584350D03*
X153965124Y-122584350D03*
X154965124Y-122584350D03*
X155965124Y-122584350D03*
X152965124Y-121584350D03*
X153965124Y-121584350D03*
X154965124Y-121584350D03*
X155965124Y-121584350D03*
X152965124Y-120584350D03*
X153965124Y-120584350D03*
X154965124Y-120584350D03*
X155965124Y-120584350D03*
X151000000Y-130750000D03*
X150000000Y-130750000D03*
X151000000Y-131750000D03*
X150000000Y-131750000D03*
X141232843Y-129750000D03*
X140232843Y-129750000D03*
X141232843Y-130750000D03*
X140232843Y-130750000D03*
X163750000Y-130500000D03*
X162750000Y-130500000D03*
X163750000Y-131500000D03*
X162750000Y-131500000D03*
X141000000Y-85500000D03*
X142000000Y-85500000D03*
X141000000Y-84500000D03*
X142000000Y-84500000D03*
X145400000Y-110750000D03*
X145400000Y-109750000D03*
X144400000Y-110750000D03*
X144400000Y-109750000D03*
X178250000Y-83050000D03*
X177250000Y-83050000D03*
X190250000Y-69250000D03*
X190250000Y-68250000D03*
X189250000Y-69250000D03*
X189250000Y-68250000D03*
X163000000Y-84000000D03*
X164000000Y-84000000D03*
X163000000Y-83000000D03*
X164000000Y-83000000D03*
D18*
X122380000Y-71750000D03*
D19*
X122380000Y-69210000D03*
X124920000Y-71750000D03*
X124920000Y-69210000D03*
X127460000Y-71750000D03*
X127460000Y-69210000D03*
X130000000Y-71750000D03*
X130000000Y-69210000D03*
X132540000Y-71750000D03*
X132540000Y-69210000D03*
X135080000Y-71750000D03*
X135080000Y-69210000D03*
X137620000Y-71750000D03*
X137620000Y-69210000D03*
D17*
X156000000Y-100500000D03*
X156000000Y-99000000D03*
X156000000Y-97500000D03*
X156000000Y-96000000D03*
X154500000Y-100500000D03*
X154500000Y-99000000D03*
X154500000Y-97500000D03*
X154500000Y-96000000D03*
X153000000Y-100500000D03*
X153000000Y-99000000D03*
X153000000Y-97500000D03*
X153000000Y-96000000D03*
X151500000Y-100500000D03*
X151500000Y-99000000D03*
X151500000Y-97500000D03*
X151500000Y-96000000D03*
D20*
X103500000Y-94750000D03*
X103500000Y-95750000D03*
D21*
X200000000Y-130000000D03*
X90000000Y-120000000D03*
X200000000Y-70000000D03*
D17*
X171650000Y-83000000D03*
X170850000Y-83000000D03*
D22*
X87500000Y-71000000D03*
X93500000Y-71000000D03*
X90550000Y-75900000D03*
M02*
