G04 #@! TF.FileFunction,Soldermask,Top*
%FSLAX46Y46*%
G04 Gerber Fmt 4.6, Leading zero omitted, Abs format (unit mm)*
G04 Created by KiCad (PCBNEW 4.0.7) date 12/26/17 18:21:06*
%MOMM*%
%LPD*%
G01*
G04 APERTURE LIST*
%ADD10C,0.100000*%
%ADD11R,0.635000X1.143000*%
%ADD12R,0.250000X2.000000*%
%ADD13R,2.000000X0.250000*%
%ADD14R,1.397000X0.889000*%
%ADD15R,0.889000X1.397000*%
%ADD16R,0.500000X0.600000*%
%ADD17R,0.600000X0.500000*%
%ADD18R,1.143000X0.635000*%
%ADD19R,1.524000X2.032000*%
%ADD20R,2.032000X1.524000*%
%ADD21R,0.500380X2.250440*%
%ADD22R,2.049780X3.500120*%
%ADD23R,2.049780X4.000500*%
%ADD24R,4.900000X1.600000*%
%ADD25R,5.600000X1.600000*%
%ADD26R,1.500000X0.600000*%
%ADD27R,0.500000X1.300000*%
%ADD28R,0.248920X1.524000*%
%ADD29O,0.248920X1.524000*%
%ADD30O,1.524000X0.248920*%
%ADD31R,0.770000X0.250000*%
%ADD32O,1.000000X0.250000*%
%ADD33O,0.250000X1.000000*%
%ADD34R,1.300000X0.500000*%
%ADD35R,2.500000X2.500000*%
%ADD36C,0.600000*%
%ADD37R,0.800000X0.250000*%
%ADD38R,0.250000X0.800000*%
%ADD39R,0.450000X1.740000*%
%ADD40O,0.900000X0.250000*%
%ADD41R,0.600000X1.100000*%
%ADD42R,1.450000X1.450000*%
%ADD43C,0.400000*%
%ADD44O,1.000000X0.300000*%
%ADD45O,0.300000X1.000000*%
%ADD46R,3.600000X3.600000*%
%ADD47R,2.440000X1.600000*%
%ADD48R,1.600000X2.440000*%
%ADD49R,1.600000X0.900000*%
%ADD50R,0.250000X1.000000*%
%ADD51R,0.797560X0.797560*%
%ADD52R,0.800000X2.000000*%
%ADD53R,1.400000X1.200000*%
%ADD54R,2.000000X1.200000*%
%ADD55R,1.727200X1.727200*%
%ADD56O,1.727200X1.727200*%
%ADD57R,1.650000X0.760000*%
%ADD58R,2.200000X1.700000*%
%ADD59R,2.700000X2.200000*%
%ADD60R,0.600000X3.000000*%
%ADD61R,5.410000X6.450000*%
%ADD62O,0.950000X0.250000*%
%ADD63O,0.250000X0.950000*%
%ADD64R,2.000000X1.800000*%
%ADD65C,2.600000*%
%ADD66R,1.500000X1.000000*%
%ADD67R,0.250000X0.850000*%
%ADD68R,4.000000X4.000000*%
G04 APERTURE END LIST*
D10*
D11*
X167750000Y-97000000D03*
X166226000Y-97000000D03*
D12*
X132750000Y-87000000D03*
X132250000Y-87000000D03*
X131750000Y-87000000D03*
X131250000Y-87000000D03*
X130750000Y-87000000D03*
X130250000Y-87000000D03*
X129750000Y-87000000D03*
X129250000Y-87000000D03*
X128750000Y-87000000D03*
X128250000Y-87000000D03*
X127750000Y-87000000D03*
X127250000Y-87000000D03*
X126750000Y-87000000D03*
X126250000Y-87000000D03*
X125750000Y-87000000D03*
X125250000Y-87000000D03*
X124750000Y-87000000D03*
X124250000Y-87000000D03*
X123750000Y-87000000D03*
X123250000Y-87000000D03*
X122750000Y-87000000D03*
X122250000Y-87000000D03*
X121750000Y-87000000D03*
X121250000Y-87000000D03*
X120750000Y-87000000D03*
X120250000Y-87000000D03*
X119750000Y-87000000D03*
X119250000Y-87000000D03*
X118750000Y-87000000D03*
X118250000Y-87000000D03*
X117750000Y-87000000D03*
X117250000Y-87000000D03*
X116750000Y-87000000D03*
X116250000Y-87000000D03*
X115750000Y-87000000D03*
X115250000Y-87000000D03*
D13*
X113000000Y-89250000D03*
X113000000Y-89750000D03*
X113000000Y-90250000D03*
X113000000Y-90750000D03*
X113000000Y-91250000D03*
X113000000Y-91750000D03*
X113000000Y-92250000D03*
X113000000Y-92750000D03*
X113000000Y-93250000D03*
X113000000Y-93750000D03*
X113000000Y-94250000D03*
X113000000Y-94750000D03*
X113000000Y-95250000D03*
X113000000Y-95750000D03*
X113000000Y-96250000D03*
X113000000Y-96750000D03*
X113000000Y-97250000D03*
X113000000Y-97750000D03*
X113000000Y-98250000D03*
X113000000Y-98750000D03*
X113000000Y-99250000D03*
X113000000Y-99750000D03*
X113000000Y-100250000D03*
X113000000Y-100750000D03*
X113000000Y-101250000D03*
X113000000Y-101750000D03*
X113000000Y-102250000D03*
X113000000Y-102750000D03*
X113000000Y-103250000D03*
X113000000Y-103750000D03*
X113000000Y-104250000D03*
X113000000Y-104750000D03*
X113000000Y-105250000D03*
X113000000Y-105750000D03*
X113000000Y-106250000D03*
X113000000Y-106750000D03*
D12*
X115250000Y-109000000D03*
X115750000Y-109000000D03*
X116250000Y-109000000D03*
X116750000Y-109000000D03*
X117250000Y-109000000D03*
X117750000Y-109000000D03*
X118250000Y-109000000D03*
X118750000Y-109000000D03*
X119250000Y-109000000D03*
X119750000Y-109000000D03*
X120250000Y-109000000D03*
X120750000Y-109000000D03*
X121250000Y-109000000D03*
X121750000Y-109000000D03*
X122250000Y-109000000D03*
X122750000Y-109000000D03*
X123250000Y-109000000D03*
X123750000Y-109000000D03*
X124250000Y-109000000D03*
X124750000Y-109000000D03*
X125250000Y-109000000D03*
X125750000Y-109000000D03*
X126250000Y-109000000D03*
X126750000Y-109000000D03*
X127250000Y-109000000D03*
X127750000Y-109000000D03*
X128250000Y-109000000D03*
X128750000Y-109000000D03*
X129250000Y-109000000D03*
X129750000Y-109000000D03*
X130250000Y-109000000D03*
X130750000Y-109000000D03*
X131250000Y-109000000D03*
X131750000Y-109000000D03*
X132250000Y-109000000D03*
X132750000Y-109000000D03*
D13*
X135000000Y-106750000D03*
X135000000Y-106250000D03*
X135000000Y-105750000D03*
X135000000Y-105250000D03*
X135000000Y-104750000D03*
X135000000Y-104250000D03*
X135000000Y-103750000D03*
X135000000Y-103250000D03*
X135000000Y-102750000D03*
X135000000Y-102250000D03*
X135000000Y-101750000D03*
X135000000Y-101250000D03*
X135000000Y-100750000D03*
X135000000Y-100250000D03*
X135000000Y-99750000D03*
X135000000Y-99250000D03*
X135000000Y-98750000D03*
X135000000Y-98250000D03*
X135000000Y-97750000D03*
X135000000Y-97250000D03*
X135000000Y-96750000D03*
X135000000Y-96250000D03*
X135000000Y-95750000D03*
X135000000Y-95250000D03*
X135000000Y-94750000D03*
X135000000Y-94250000D03*
X135000000Y-93750000D03*
X135000000Y-93250000D03*
X135000000Y-92750000D03*
X135000000Y-92250000D03*
X135000000Y-91750000D03*
X135000000Y-91250000D03*
X135000000Y-90750000D03*
X135000000Y-90250000D03*
X135000000Y-89750000D03*
X135000000Y-89250000D03*
D11*
X110774000Y-107000000D03*
X109250000Y-107000000D03*
X112488000Y-110250000D03*
X114012000Y-110250000D03*
D14*
X110500000Y-104452500D03*
X110500000Y-102547500D03*
D11*
X124000000Y-113000000D03*
X122476000Y-113000000D03*
X113750000Y-85500000D03*
X112226000Y-85500000D03*
D15*
X133452500Y-81000000D03*
X131547500Y-81000000D03*
X140655000Y-96500000D03*
X138750000Y-96500000D03*
D11*
X123226000Y-111500000D03*
X124750000Y-111500000D03*
D15*
X121155000Y-84250000D03*
X119250000Y-84250000D03*
D14*
X123250000Y-81845000D03*
X123250000Y-83750000D03*
D16*
X109750000Y-89250000D03*
X110750000Y-89250000D03*
X109750000Y-90250000D03*
X110750000Y-90250000D03*
X110000000Y-105750000D03*
X111000000Y-105750000D03*
D17*
X115000000Y-113250000D03*
X115000000Y-112250000D03*
D11*
X109226000Y-70250000D03*
X110750000Y-70250000D03*
X100988000Y-106000000D03*
X102512000Y-106000000D03*
D17*
X96250000Y-109500000D03*
X96250000Y-110500000D03*
D18*
X91500000Y-101762000D03*
X91500000Y-100238000D03*
D11*
X100988000Y-89750000D03*
X102512000Y-89750000D03*
D14*
X92750000Y-90750000D03*
X92750000Y-92655000D03*
D17*
X89000000Y-110500000D03*
X89000000Y-109500000D03*
D11*
X106738000Y-104250000D03*
X108262000Y-104250000D03*
D18*
X91250000Y-105000000D03*
X91250000Y-106524000D03*
D15*
X89000000Y-93750000D03*
X90905000Y-93750000D03*
D11*
X101238000Y-112250000D03*
X102762000Y-112250000D03*
X101238000Y-108250000D03*
X102762000Y-108250000D03*
D18*
X93750000Y-104988000D03*
X93750000Y-106512000D03*
D11*
X131488000Y-84500000D03*
X133012000Y-84500000D03*
X124738000Y-83750000D03*
X126262000Y-83750000D03*
D18*
X117750000Y-84274000D03*
X117750000Y-82750000D03*
D14*
X125250000Y-79797500D03*
X125250000Y-81702500D03*
D15*
X133452500Y-82750000D03*
X131547500Y-82750000D03*
D11*
X121774000Y-111500000D03*
X120250000Y-111500000D03*
X130226000Y-112000000D03*
X131750000Y-112000000D03*
D18*
X116750000Y-111488000D03*
X116750000Y-113012000D03*
D14*
X118500000Y-113500000D03*
X118500000Y-111595000D03*
D15*
X132202500Y-113750000D03*
X130297500Y-113750000D03*
D18*
X151250000Y-109262000D03*
X151250000Y-107738000D03*
X155250000Y-109262000D03*
X155250000Y-107738000D03*
D16*
X160500000Y-98750000D03*
X161500000Y-98750000D03*
X160500000Y-97750000D03*
X161500000Y-97750000D03*
D17*
X159750000Y-98750000D03*
X159750000Y-97750000D03*
D15*
X152500000Y-105250000D03*
X154405000Y-105250000D03*
D17*
X154900000Y-92500000D03*
X154900000Y-91500000D03*
X155700000Y-92500000D03*
X155700000Y-91500000D03*
D16*
X184250000Y-101900000D03*
X185250000Y-101900000D03*
X185250000Y-102700000D03*
X186250000Y-102700000D03*
D17*
X185250000Y-111400000D03*
X185250000Y-110400000D03*
D16*
X186250000Y-109650000D03*
X185250000Y-109650000D03*
D14*
X193250000Y-103845000D03*
X193250000Y-105750000D03*
D17*
X191750000Y-105000000D03*
X191750000Y-106000000D03*
X187750000Y-105250000D03*
X187750000Y-106250000D03*
D16*
X181000000Y-108000000D03*
X180000000Y-108000000D03*
X181000000Y-107000000D03*
X180000000Y-107000000D03*
D17*
X175500000Y-107000000D03*
X175500000Y-108000000D03*
D16*
X171500000Y-108250000D03*
X172500000Y-108250000D03*
D11*
X168988000Y-104500000D03*
X170512000Y-104500000D03*
X167750000Y-110500000D03*
X166226000Y-110500000D03*
D17*
X163500000Y-107000000D03*
X163500000Y-108000000D03*
D19*
X133302000Y-124000000D03*
X130000000Y-124000000D03*
D20*
X153750000Y-134302000D03*
X153750000Y-131000000D03*
X166750000Y-134302000D03*
X166750000Y-131000000D03*
D15*
X150705000Y-134500000D03*
X148800000Y-134500000D03*
X141155000Y-133500000D03*
X139250000Y-133500000D03*
X163505000Y-134400000D03*
X161600000Y-134400000D03*
D14*
X135250000Y-123405000D03*
X135250000Y-121500000D03*
X133250000Y-134000000D03*
X133250000Y-135905000D03*
D20*
X123100000Y-125551000D03*
X123100000Y-122249000D03*
X125800000Y-125600000D03*
X125800000Y-122298000D03*
D11*
X148000000Y-129750000D03*
X146476000Y-129750000D03*
D18*
X138250000Y-128738000D03*
X138250000Y-130262000D03*
X160500000Y-129476000D03*
X160500000Y-131000000D03*
X126250000Y-129988000D03*
X126250000Y-131512000D03*
D15*
X150905000Y-127750000D03*
X149000000Y-127750000D03*
X140952500Y-126500000D03*
X139047500Y-126500000D03*
X163595000Y-127750000D03*
X165500000Y-127750000D03*
D16*
X156000000Y-129750000D03*
X157000000Y-129750000D03*
X156000000Y-127250000D03*
X157000000Y-127250000D03*
X156000000Y-126250000D03*
X157000000Y-126250000D03*
X147615124Y-122584350D03*
X146615124Y-122584350D03*
X146615124Y-121584350D03*
X147615124Y-121584350D03*
X161750000Y-118250000D03*
X162750000Y-118250000D03*
X162750000Y-119500000D03*
X161750000Y-119500000D03*
X161750000Y-124000000D03*
X162750000Y-124000000D03*
X162750000Y-125250000D03*
X161750000Y-125250000D03*
X156250000Y-118500000D03*
X157250000Y-118500000D03*
X153250000Y-117750000D03*
X152250000Y-117750000D03*
D17*
X150750000Y-119000000D03*
X150750000Y-118000000D03*
D16*
X171250000Y-119500000D03*
X172250000Y-119500000D03*
X171250000Y-125250000D03*
X172250000Y-125250000D03*
X174750000Y-119500000D03*
X175750000Y-119500000D03*
X174750000Y-125250000D03*
X175750000Y-125250000D03*
D17*
X177000000Y-119500000D03*
X177000000Y-118500000D03*
X177000000Y-125250000D03*
X177000000Y-124250000D03*
X180500000Y-119500000D03*
X180500000Y-118500000D03*
X180500000Y-125250000D03*
X180500000Y-124250000D03*
D20*
X115000000Y-74802000D03*
X115000000Y-71500000D03*
D14*
X141250000Y-81655000D03*
X141250000Y-79750000D03*
D19*
X105948000Y-82000000D03*
X109250000Y-82000000D03*
X115448000Y-77250000D03*
X118750000Y-77250000D03*
X106000000Y-84500000D03*
X109302000Y-84500000D03*
X115448000Y-80000000D03*
X118750000Y-80000000D03*
X105948000Y-87000000D03*
X109250000Y-87000000D03*
D15*
X113155000Y-81250000D03*
X111250000Y-81250000D03*
D14*
X104000000Y-88345000D03*
X104000000Y-90250000D03*
D11*
X142726000Y-88000000D03*
X144250000Y-88000000D03*
D15*
X113155000Y-83000000D03*
X111250000Y-83000000D03*
D14*
X86500000Y-85345000D03*
X86500000Y-87250000D03*
D20*
X103250000Y-71901000D03*
X103250000Y-68599000D03*
X95000000Y-81052000D03*
X95000000Y-77750000D03*
D15*
X141155000Y-88250000D03*
X139250000Y-88250000D03*
D20*
X100250000Y-71151000D03*
X100250000Y-67849000D03*
D19*
X92250000Y-79500000D03*
X88948000Y-79500000D03*
D18*
X104500000Y-75988000D03*
X104500000Y-77512000D03*
X95500000Y-84488000D03*
X95500000Y-86012000D03*
D15*
X141405000Y-110750000D03*
X139500000Y-110750000D03*
D18*
X148000000Y-108774000D03*
X148000000Y-107250000D03*
D14*
X148250000Y-110547500D03*
X148250000Y-112452500D03*
X180250000Y-81845000D03*
X180250000Y-83750000D03*
D19*
X179349000Y-66500000D03*
X182651000Y-66500000D03*
D15*
X179155000Y-86750000D03*
X177250000Y-86750000D03*
D19*
X179349000Y-71000000D03*
X182651000Y-71000000D03*
X179448000Y-73750000D03*
X182750000Y-73750000D03*
D15*
X172905000Y-66250000D03*
X171000000Y-66250000D03*
X177405000Y-79000000D03*
X175500000Y-79000000D03*
X179547500Y-68750000D03*
X181452500Y-68750000D03*
D19*
X167151000Y-67500000D03*
X163849000Y-67500000D03*
D15*
X175655000Y-80750000D03*
X173750000Y-80750000D03*
D19*
X167151000Y-70000000D03*
X163849000Y-70000000D03*
D14*
X173250000Y-83095000D03*
X173250000Y-85000000D03*
X186250000Y-69250000D03*
X186250000Y-71155000D03*
X163000000Y-80405000D03*
X163000000Y-78500000D03*
D18*
X169000000Y-74238000D03*
X169000000Y-75762000D03*
D15*
X171405000Y-86000000D03*
X169500000Y-86000000D03*
D16*
X170750000Y-80750000D03*
X169750000Y-80750000D03*
D18*
X193000000Y-67774000D03*
X193000000Y-66250000D03*
X166000000Y-85274000D03*
X166000000Y-83750000D03*
D15*
X170500000Y-79250000D03*
X168595000Y-79250000D03*
X172000000Y-79000000D03*
X173905000Y-79000000D03*
D14*
X193000000Y-69595000D03*
X193000000Y-71500000D03*
D15*
X163155000Y-87000000D03*
X161250000Y-87000000D03*
D16*
X201000000Y-94000000D03*
X200000000Y-94000000D03*
X190750000Y-97000000D03*
X191750000Y-97000000D03*
D17*
X195500000Y-88750000D03*
X195500000Y-87750000D03*
X194000000Y-88750000D03*
X194000000Y-87750000D03*
D18*
X190500000Y-85738000D03*
X190500000Y-87262000D03*
D17*
X192250000Y-85750000D03*
X192250000Y-86750000D03*
D16*
X198000000Y-85000000D03*
X197000000Y-85000000D03*
D18*
X186500000Y-85750000D03*
X186500000Y-84226000D03*
D17*
X187000000Y-83000000D03*
X187000000Y-82000000D03*
X191000000Y-83000000D03*
X191000000Y-82000000D03*
D11*
X203762000Y-86750000D03*
X202238000Y-86750000D03*
D16*
X184500000Y-87500000D03*
X185500000Y-87500000D03*
X185500000Y-88200000D03*
X186500000Y-88200000D03*
D17*
X185500000Y-97000000D03*
X185500000Y-96000000D03*
D16*
X184500000Y-95150000D03*
X185500000Y-95150000D03*
D14*
X192500000Y-89250000D03*
X192500000Y-91155000D03*
D17*
X191250000Y-90000000D03*
X191250000Y-91000000D03*
X187750000Y-90000000D03*
X187750000Y-91000000D03*
D16*
X181000000Y-93500000D03*
X180000000Y-93500000D03*
X181000000Y-92500000D03*
X180000000Y-92500000D03*
D17*
X175500000Y-92500000D03*
X175500000Y-93500000D03*
D16*
X171500000Y-93750000D03*
X172500000Y-93750000D03*
D11*
X169238000Y-89750000D03*
X170762000Y-89750000D03*
D17*
X163250000Y-93500000D03*
X163250000Y-92500000D03*
D21*
X97399800Y-129999500D03*
X98199900Y-129999500D03*
X99000000Y-129999500D03*
X99800100Y-129999500D03*
X100600200Y-129999500D03*
D22*
X94074940Y-129999500D03*
X103925060Y-129999500D03*
D23*
X94074940Y-134200660D03*
X103925060Y-134200660D03*
D24*
X206850000Y-111250000D03*
X206850000Y-119750000D03*
D25*
X207200000Y-115500000D03*
D24*
X206900000Y-89750000D03*
X206900000Y-98250000D03*
D25*
X207250000Y-94000000D03*
D18*
X101250000Y-111012000D03*
X101250000Y-109488000D03*
D11*
X91738000Y-103500000D03*
X93262000Y-103500000D03*
X152488000Y-109250000D03*
X154012000Y-109250000D03*
X188988000Y-106000000D03*
X190512000Y-106000000D03*
X188976000Y-109000000D03*
X190500000Y-109000000D03*
X188976000Y-107500000D03*
X190500000Y-107500000D03*
X167762000Y-103250000D03*
X166238000Y-103250000D03*
X168976000Y-110500000D03*
X170500000Y-110500000D03*
D16*
X165500000Y-107000000D03*
X164500000Y-107000000D03*
X165500000Y-108000000D03*
X164500000Y-108000000D03*
D17*
X160500000Y-120250000D03*
X160500000Y-119250000D03*
X160500000Y-126000000D03*
X160500000Y-125000000D03*
X160500000Y-117500000D03*
X160500000Y-118500000D03*
X160500000Y-123250000D03*
X160500000Y-124250000D03*
X170000000Y-119500000D03*
X170000000Y-118500000D03*
X170000000Y-125250000D03*
X170000000Y-124250000D03*
X173500000Y-119500000D03*
X173500000Y-118500000D03*
X173500000Y-125250000D03*
X173500000Y-124250000D03*
D16*
X178250000Y-119500000D03*
X179250000Y-119500000D03*
X178250000Y-125250000D03*
X179250000Y-125250000D03*
X181750000Y-119500000D03*
X182750000Y-119500000D03*
X181750000Y-125250000D03*
X182750000Y-125250000D03*
D11*
X189274000Y-85750000D03*
X187750000Y-85750000D03*
X188238000Y-82000000D03*
X189762000Y-82000000D03*
X188726000Y-91500000D03*
X190250000Y-91500000D03*
X188738000Y-95000000D03*
X190262000Y-95000000D03*
X188738000Y-93250000D03*
X190262000Y-93250000D03*
X168012000Y-88250000D03*
X166488000Y-88250000D03*
X169476000Y-97000000D03*
X171000000Y-97000000D03*
D16*
X165500000Y-93500000D03*
X164500000Y-93500000D03*
X165500000Y-92500000D03*
X164500000Y-92500000D03*
D17*
X114000000Y-115500000D03*
X114000000Y-114500000D03*
D11*
X106738000Y-130000000D03*
X108262000Y-130000000D03*
X91500000Y-130000000D03*
X89976000Y-130000000D03*
D16*
X87000000Y-104250000D03*
X86000000Y-104250000D03*
X88500000Y-95500000D03*
X87500000Y-95500000D03*
X88750000Y-104250000D03*
X87750000Y-104250000D03*
X88000000Y-96500000D03*
X87000000Y-96500000D03*
X157750000Y-106000000D03*
X156750000Y-106000000D03*
X156750000Y-105000000D03*
X157750000Y-105000000D03*
D17*
X178500000Y-107000000D03*
X178500000Y-108000000D03*
D16*
X173500000Y-108250000D03*
X174500000Y-108250000D03*
X173500000Y-106750000D03*
X174500000Y-106750000D03*
X172500000Y-109250000D03*
X173500000Y-109250000D03*
X172500000Y-105750000D03*
X173500000Y-105750000D03*
D17*
X116800000Y-128300000D03*
X116800000Y-129300000D03*
X117800000Y-129300000D03*
X117800000Y-128300000D03*
D16*
X143615124Y-116084350D03*
X142615124Y-116084350D03*
X141865124Y-116084350D03*
X140865124Y-116084350D03*
D17*
X138250000Y-121500000D03*
X138250000Y-122500000D03*
X156000000Y-129000000D03*
X156000000Y-128000000D03*
X157750000Y-127250000D03*
X157750000Y-126250000D03*
X154250000Y-117000000D03*
X154250000Y-118000000D03*
X95500000Y-74250000D03*
X95500000Y-75250000D03*
X86250000Y-82750000D03*
X86250000Y-83750000D03*
X96500000Y-75250000D03*
X96500000Y-74250000D03*
X87000000Y-83750000D03*
X87000000Y-82750000D03*
X160000000Y-73250000D03*
X160000000Y-72250000D03*
X161000000Y-72250000D03*
X161000000Y-73250000D03*
D16*
X195250000Y-89750000D03*
X194250000Y-89750000D03*
D17*
X192250000Y-85000000D03*
X192250000Y-84000000D03*
D16*
X194250000Y-83000000D03*
X195250000Y-83000000D03*
X196000000Y-83000000D03*
X197000000Y-83000000D03*
X192250000Y-75250000D03*
X191250000Y-75250000D03*
X202750000Y-79250000D03*
X201750000Y-79250000D03*
X204750000Y-80250000D03*
X203750000Y-80250000D03*
D17*
X178500000Y-92500000D03*
X178500000Y-93500000D03*
D16*
X176500000Y-93500000D03*
X177500000Y-93500000D03*
X176500000Y-92500000D03*
X177500000Y-92500000D03*
X173500000Y-93750000D03*
X174500000Y-93750000D03*
X173500000Y-92250000D03*
X174500000Y-92250000D03*
D26*
X105750000Y-108845000D03*
X105750000Y-110115000D03*
X105750000Y-111385000D03*
X105750000Y-112655000D03*
X110750000Y-108845000D03*
X110750000Y-110115000D03*
X110750000Y-111385000D03*
X110750000Y-112655000D03*
D27*
X87050000Y-98100000D03*
X87050000Y-102900000D03*
X88000000Y-98100000D03*
X88000000Y-102900000D03*
X88950000Y-98100000D03*
X88950000Y-102900000D03*
D28*
X95500960Y-103869940D03*
D29*
X96001340Y-103869940D03*
X96501720Y-103869940D03*
X97002100Y-103869940D03*
X97502480Y-103869940D03*
X98000320Y-103869940D03*
X98500700Y-103869940D03*
X99001080Y-103869940D03*
X99501460Y-103869940D03*
X100001840Y-103869940D03*
X100502220Y-103869940D03*
X101000060Y-103869940D03*
X101500440Y-103869940D03*
X102000820Y-103869940D03*
X102501200Y-103869940D03*
X103001580Y-103869940D03*
D30*
X105282500Y-101749040D03*
X105282500Y-101248660D03*
X105282500Y-100748280D03*
X105282500Y-100247900D03*
X105282500Y-99747520D03*
X105282500Y-99249680D03*
X105282500Y-98749300D03*
X105282500Y-98248920D03*
X105282500Y-97748540D03*
X105282500Y-97248160D03*
X105282500Y-96747780D03*
X105282500Y-96249940D03*
X105282500Y-95749560D03*
X105282500Y-95249180D03*
X105282500Y-94748800D03*
X105282500Y-94248420D03*
D29*
X103001580Y-91967500D03*
X102501200Y-91967500D03*
X102000820Y-91967500D03*
X101500440Y-91967500D03*
X101000060Y-91967500D03*
X100502220Y-91967500D03*
X100001840Y-91967500D03*
X99501460Y-91967500D03*
X99001080Y-91967500D03*
X98500700Y-91967500D03*
X98000320Y-91967500D03*
X97502480Y-91967500D03*
X97002100Y-91967500D03*
X96501720Y-91967500D03*
X96001340Y-91967500D03*
X95500960Y-91967500D03*
D30*
X93380060Y-94248420D03*
X93380060Y-94748800D03*
X93380060Y-95749560D03*
X93362280Y-95249180D03*
X93380060Y-96249940D03*
X93380060Y-96747780D03*
X93380060Y-97248160D03*
X93380060Y-97748540D03*
X93380060Y-98248920D03*
X93380060Y-98749300D03*
X93380060Y-99242060D03*
X93380060Y-99742440D03*
X93380060Y-100242820D03*
X93380060Y-100743200D03*
X93380060Y-101241040D03*
X93380060Y-101741420D03*
D31*
X185250000Y-107075000D03*
D32*
X183750000Y-106750000D03*
X183750000Y-107250000D03*
X183750000Y-107750000D03*
D33*
X184750000Y-108250000D03*
X185250000Y-108250000D03*
X185750000Y-108250000D03*
D32*
X186750000Y-107750000D03*
X186750000Y-107250000D03*
X186750000Y-106750000D03*
D33*
X185750000Y-106250000D03*
X185250000Y-106250000D03*
X184750000Y-106250000D03*
D34*
X119350000Y-130200000D03*
X124150000Y-130200000D03*
X119350000Y-129250000D03*
X124150000Y-129250000D03*
X119350000Y-128300000D03*
X124150000Y-128300000D03*
X97850000Y-76200000D03*
X102650000Y-76200000D03*
X97850000Y-75250000D03*
X102650000Y-75250000D03*
X97850000Y-74300000D03*
X102650000Y-74300000D03*
X88600000Y-84700000D03*
X93400000Y-84700000D03*
X88600000Y-83750000D03*
X93400000Y-83750000D03*
X88600000Y-82800000D03*
X93400000Y-82800000D03*
X162350000Y-75200000D03*
X167150000Y-75200000D03*
X162350000Y-74250000D03*
X167150000Y-74250000D03*
X162350000Y-73300000D03*
X167150000Y-73300000D03*
D35*
X196500000Y-93750000D03*
D36*
X197150000Y-94400000D03*
X197150000Y-93100000D03*
X195850000Y-94400000D03*
X195850000Y-93100000D03*
D37*
X198600000Y-95000000D03*
X198600000Y-94500000D03*
X198600000Y-94000000D03*
X198600000Y-93500000D03*
X198600000Y-93000000D03*
X198600000Y-92500000D03*
D38*
X197750000Y-91650000D03*
X197250000Y-91650000D03*
X196750000Y-91650000D03*
X196250000Y-91650000D03*
X195750000Y-91650000D03*
X195250000Y-91650000D03*
D37*
X194400000Y-92500000D03*
X194400000Y-93000000D03*
X194400000Y-93500000D03*
X194400000Y-94000000D03*
X194400000Y-94500000D03*
X194400000Y-95000000D03*
D38*
X195250000Y-95850000D03*
X195750000Y-95850000D03*
X196250000Y-95850000D03*
X196750000Y-95850000D03*
X197250000Y-95850000D03*
X197750000Y-95850000D03*
D39*
X194750000Y-85250000D03*
D40*
X195800000Y-86000000D03*
X195800000Y-85500000D03*
X195800000Y-85000000D03*
X195800000Y-84500000D03*
X193700000Y-84500000D03*
X193700000Y-85000000D03*
X193700000Y-85500000D03*
X193700000Y-86000000D03*
D41*
X201800000Y-82150000D03*
X201800000Y-84850000D03*
X202750000Y-84850000D03*
X203700000Y-82150000D03*
X203700000Y-84850000D03*
D31*
X185500000Y-92575000D03*
D32*
X184000000Y-92250000D03*
X184000000Y-92750000D03*
X184000000Y-93250000D03*
D33*
X185000000Y-93750000D03*
X185500000Y-93750000D03*
X186000000Y-93750000D03*
D32*
X187000000Y-93250000D03*
X187000000Y-92750000D03*
X187000000Y-92250000D03*
D33*
X186000000Y-91750000D03*
X185500000Y-91750000D03*
X185000000Y-91750000D03*
D16*
X171500000Y-106750000D03*
X172500000Y-106750000D03*
X171500000Y-92250000D03*
X172500000Y-92250000D03*
X124500000Y-117750000D03*
X125500000Y-117750000D03*
D17*
X122500000Y-115000000D03*
X122500000Y-116000000D03*
D16*
X176500000Y-108000000D03*
X177500000Y-108000000D03*
X176500000Y-107000000D03*
X177500000Y-107000000D03*
X172500000Y-94750000D03*
X173500000Y-94750000D03*
X172500000Y-91250000D03*
X173500000Y-91250000D03*
D42*
X168750000Y-107500000D03*
D43*
X169150000Y-107900000D03*
X169150000Y-107100000D03*
X168350000Y-107900000D03*
X168350000Y-107100000D03*
D44*
X170250000Y-108250000D03*
X170250000Y-107750000D03*
X170250000Y-107250000D03*
X170250000Y-106750000D03*
D45*
X169500000Y-106000000D03*
X169000000Y-106000000D03*
X168500000Y-106000000D03*
X168000000Y-106000000D03*
D44*
X167250000Y-106750000D03*
X167250000Y-107250000D03*
X167250000Y-107750000D03*
X167250000Y-108250000D03*
D45*
X168000000Y-109000000D03*
X168500000Y-109000000D03*
X169000000Y-109000000D03*
X169500000Y-109000000D03*
D42*
X168750000Y-93000000D03*
D43*
X169150000Y-93400000D03*
X169150000Y-92600000D03*
X168350000Y-93400000D03*
X168350000Y-92600000D03*
D44*
X170250000Y-93750000D03*
X170250000Y-93250000D03*
X170250000Y-92750000D03*
X170250000Y-92250000D03*
D45*
X169500000Y-91500000D03*
X169000000Y-91500000D03*
X168500000Y-91500000D03*
X168000000Y-91500000D03*
D44*
X167250000Y-92250000D03*
X167250000Y-92750000D03*
X167250000Y-93250000D03*
X167250000Y-93750000D03*
D45*
X168000000Y-94500000D03*
X168500000Y-94500000D03*
X169000000Y-94500000D03*
X169500000Y-94500000D03*
D46*
X154465124Y-122084350D03*
D43*
X152965124Y-123584350D03*
X153965124Y-123584350D03*
X154965124Y-123584350D03*
X155965124Y-123584350D03*
X152965124Y-122584350D03*
X153965124Y-122584350D03*
X154965124Y-122584350D03*
X155965124Y-122584350D03*
X152965124Y-121584350D03*
X153965124Y-121584350D03*
X154965124Y-121584350D03*
X155965124Y-121584350D03*
X152965124Y-120584350D03*
X153965124Y-120584350D03*
X154965124Y-120584350D03*
X155965124Y-120584350D03*
D33*
X152715124Y-124684350D03*
X153215124Y-124684350D03*
X153715124Y-124684350D03*
X154215124Y-124684350D03*
X154715124Y-124684350D03*
X155215124Y-124684350D03*
X155715124Y-124684350D03*
X156215124Y-124684350D03*
D32*
X157065124Y-123834350D03*
X157065124Y-123334350D03*
X157065124Y-122834350D03*
X157065124Y-122334350D03*
X157065124Y-121834350D03*
X157065124Y-121334350D03*
X157065124Y-120834350D03*
X157065124Y-120334350D03*
D33*
X156215124Y-119484350D03*
X155715124Y-119484350D03*
X155215124Y-119484350D03*
X154715124Y-119484350D03*
X154215124Y-119484350D03*
X153715124Y-119484350D03*
X153215124Y-119484350D03*
X152715124Y-119484350D03*
D32*
X151865124Y-120334350D03*
X151865124Y-120834350D03*
X151865124Y-121334350D03*
X151865124Y-121834350D03*
X151865124Y-122334350D03*
X151865124Y-122834350D03*
X151865124Y-123334350D03*
X151865124Y-123834350D03*
D47*
X150500000Y-131250000D03*
D43*
X151000000Y-130750000D03*
X150000000Y-130750000D03*
X151000000Y-131750000D03*
X150000000Y-131750000D03*
D33*
X151250000Y-129650000D03*
X150750000Y-129650000D03*
X150250000Y-129650000D03*
X149750000Y-129650000D03*
X149750000Y-132850000D03*
X150250000Y-132850000D03*
X150750000Y-132850000D03*
X151250000Y-132850000D03*
D47*
X140732843Y-130250000D03*
D43*
X141232843Y-129750000D03*
X140232843Y-129750000D03*
X141232843Y-130750000D03*
X140232843Y-130750000D03*
D33*
X141482843Y-128650000D03*
X140982843Y-128650000D03*
X140482843Y-128650000D03*
X139982843Y-128650000D03*
X139982843Y-131850000D03*
X140482843Y-131850000D03*
X140982843Y-131850000D03*
X141482843Y-131850000D03*
D47*
X163250000Y-131000000D03*
D43*
X163750000Y-130500000D03*
X162750000Y-130500000D03*
X163750000Y-131500000D03*
X162750000Y-131500000D03*
D33*
X164000000Y-129400000D03*
X163500000Y-129400000D03*
X163000000Y-129400000D03*
X162500000Y-129400000D03*
X162500000Y-132600000D03*
X163000000Y-132600000D03*
X163500000Y-132600000D03*
X164000000Y-132600000D03*
D47*
X141500000Y-85000000D03*
D43*
X141000000Y-85500000D03*
X142000000Y-85500000D03*
X141000000Y-84500000D03*
X142000000Y-84500000D03*
D33*
X140750000Y-86600000D03*
X141250000Y-86600000D03*
X141750000Y-86600000D03*
X142250000Y-86600000D03*
X142250000Y-83400000D03*
X141750000Y-83400000D03*
X141250000Y-83400000D03*
X140750000Y-83400000D03*
D48*
X144900000Y-110250000D03*
D43*
X145400000Y-110750000D03*
X145400000Y-109750000D03*
X144400000Y-110750000D03*
X144400000Y-109750000D03*
D32*
X146500000Y-111000000D03*
X146500000Y-110500000D03*
X146500000Y-110000000D03*
X146500000Y-109500000D03*
X143300000Y-109500000D03*
X143300000Y-110000000D03*
X143300000Y-110500000D03*
X143300000Y-111000000D03*
D49*
X177750000Y-83050000D03*
D43*
X178250000Y-83050000D03*
X177250000Y-83050000D03*
D50*
X178500000Y-81950000D03*
X178000000Y-81950000D03*
X177500000Y-81950000D03*
X177000000Y-81950000D03*
X177000000Y-84150000D03*
X177500000Y-84150000D03*
X178000000Y-84150000D03*
X178500000Y-84150000D03*
D48*
X189750000Y-68750000D03*
D43*
X190250000Y-69250000D03*
X190250000Y-68250000D03*
X189250000Y-69250000D03*
X189250000Y-68250000D03*
D32*
X191350000Y-69500000D03*
X191350000Y-69000000D03*
X191350000Y-68500000D03*
X191350000Y-68000000D03*
X188150000Y-68000000D03*
X188150000Y-68500000D03*
X188150000Y-69000000D03*
X188150000Y-69500000D03*
D47*
X163500000Y-83500000D03*
D43*
X163000000Y-84000000D03*
X164000000Y-84000000D03*
X163000000Y-83000000D03*
X164000000Y-83000000D03*
D33*
X162750000Y-85100000D03*
X163250000Y-85100000D03*
X163750000Y-85100000D03*
X164250000Y-85100000D03*
X164250000Y-81900000D03*
X163750000Y-81900000D03*
X163250000Y-81900000D03*
X162750000Y-81900000D03*
D51*
X114000000Y-113498600D03*
X114000000Y-112000000D03*
D52*
X107900000Y-67500000D03*
X112100000Y-67500000D03*
D53*
X123900000Y-116350000D03*
X126100000Y-116350000D03*
X126100000Y-114650000D03*
X123900000Y-114650000D03*
D54*
X94500000Y-108800000D03*
X90800000Y-108800000D03*
X90800000Y-111000000D03*
X94500000Y-111000000D03*
D55*
X122380000Y-71750000D03*
D56*
X122380000Y-69210000D03*
X124920000Y-71750000D03*
X124920000Y-69210000D03*
X127460000Y-71750000D03*
X127460000Y-69210000D03*
X130000000Y-71750000D03*
X130000000Y-69210000D03*
X132540000Y-71750000D03*
X132540000Y-69210000D03*
X135080000Y-71750000D03*
X135080000Y-69210000D03*
X137620000Y-71750000D03*
X137620000Y-69210000D03*
D57*
X167840000Y-116980000D03*
X164660000Y-116980000D03*
X167840000Y-118250000D03*
X164660000Y-118250000D03*
X167840000Y-119520000D03*
X164660000Y-119520000D03*
X167840000Y-122730000D03*
X164660000Y-122730000D03*
X167840000Y-124000000D03*
X164660000Y-124000000D03*
X167840000Y-125270000D03*
X164660000Y-125270000D03*
D58*
X173750000Y-68200000D03*
X173750000Y-74300000D03*
D59*
X133750000Y-129250000D03*
X128650000Y-129250000D03*
X111800000Y-75500000D03*
X106700000Y-75500000D03*
X102800000Y-83750000D03*
X97700000Y-83750000D03*
D60*
X157500000Y-67400000D03*
X155500000Y-67400000D03*
X153500000Y-67400000D03*
X151500000Y-67400000D03*
X149500000Y-67400000D03*
X147500000Y-67400000D03*
X145500000Y-67400000D03*
X157500000Y-72600000D03*
X155500000Y-72600000D03*
X153500000Y-72600000D03*
X151500000Y-72600000D03*
X149500000Y-72600000D03*
X147500000Y-72600000D03*
X145500000Y-72600000D03*
D27*
X192300000Y-76600000D03*
X192300000Y-81400000D03*
X193250000Y-76600000D03*
X193250000Y-81400000D03*
X194200000Y-76600000D03*
X194200000Y-81400000D03*
X99450000Y-125400000D03*
X99450000Y-120600000D03*
X98500000Y-125400000D03*
X98500000Y-120600000D03*
X97550000Y-125400000D03*
X97550000Y-120600000D03*
D61*
X153750000Y-98250000D03*
D43*
X156000000Y-100500000D03*
X156000000Y-99000000D03*
X156000000Y-97500000D03*
X156000000Y-96000000D03*
X154500000Y-100500000D03*
X154500000Y-99000000D03*
X154500000Y-97500000D03*
X154500000Y-96000000D03*
X153000000Y-100500000D03*
X153000000Y-99000000D03*
X153000000Y-97500000D03*
X153000000Y-96000000D03*
X151500000Y-100500000D03*
X151500000Y-99000000D03*
X151500000Y-97500000D03*
X151500000Y-96000000D03*
D62*
X157275000Y-101500000D03*
X157275000Y-101000000D03*
X157275000Y-100500000D03*
X157275000Y-100000000D03*
X157275000Y-99500000D03*
X157275000Y-99000000D03*
X157275000Y-98500000D03*
X157275000Y-98000000D03*
X157275000Y-97500000D03*
X157275000Y-97000000D03*
X157275000Y-96500000D03*
X157275000Y-96000000D03*
X157275000Y-95500000D03*
X157275000Y-95000000D03*
D63*
X156500000Y-94225000D03*
X156000000Y-94225000D03*
X155500000Y-94225000D03*
X155000000Y-94225000D03*
X154500000Y-94225000D03*
X154000000Y-94225000D03*
X153500000Y-94225000D03*
X153000000Y-94225000D03*
X152500000Y-94225000D03*
X152000000Y-94225000D03*
X151500000Y-94225000D03*
X151000000Y-94225000D03*
D62*
X150225000Y-95000000D03*
X150225000Y-95500000D03*
X150225000Y-96000000D03*
X150225000Y-96500000D03*
X150225000Y-97000000D03*
X150225000Y-97500000D03*
X150225000Y-98000000D03*
X150225000Y-98500000D03*
X150225000Y-99000000D03*
X150225000Y-99500000D03*
X150225000Y-100000000D03*
X150225000Y-100500000D03*
X150225000Y-101000000D03*
X150225000Y-101500000D03*
D63*
X151000000Y-102275000D03*
X151500000Y-102275000D03*
X152000000Y-102275000D03*
X152500000Y-102275000D03*
X153000000Y-102275000D03*
X153500000Y-102275000D03*
X154000000Y-102275000D03*
X154500000Y-102275000D03*
X155000000Y-102275000D03*
X155500000Y-102275000D03*
X156000000Y-102275000D03*
X156500000Y-102275000D03*
D64*
X139900000Y-118210000D03*
X139900000Y-120750000D03*
X139900000Y-123290000D03*
X144100000Y-123290000D03*
X144100000Y-120750000D03*
X144100000Y-118210000D03*
D17*
X158500000Y-102000000D03*
X158500000Y-103000000D03*
X158500000Y-93500000D03*
X158500000Y-94500000D03*
D16*
X156750000Y-103750000D03*
X157750000Y-103750000D03*
X157250000Y-92750000D03*
X158250000Y-92750000D03*
X148750000Y-98250000D03*
X147750000Y-98250000D03*
X156250000Y-117750000D03*
X157250000Y-117750000D03*
X153250000Y-117000000D03*
X152250000Y-117000000D03*
D17*
X151500000Y-119000000D03*
X151500000Y-118000000D03*
X150750000Y-124000000D03*
X150750000Y-125000000D03*
D16*
X149250000Y-120000000D03*
X150250000Y-120000000D03*
D17*
X158000000Y-119750000D03*
X158000000Y-118750000D03*
D16*
X150250000Y-121000000D03*
X149250000Y-121000000D03*
X153750000Y-127250000D03*
X152750000Y-127250000D03*
X153750000Y-126500000D03*
X152750000Y-126500000D03*
D17*
X155000000Y-126250000D03*
X155000000Y-127250000D03*
X105500000Y-104250000D03*
X105500000Y-103250000D03*
D16*
X97750000Y-106250000D03*
X96750000Y-106250000D03*
X107000000Y-100250000D03*
X108000000Y-100250000D03*
D17*
X98500000Y-90000000D03*
X98500000Y-89000000D03*
D16*
X91500000Y-97750000D03*
X90500000Y-97750000D03*
D17*
X176250000Y-82250000D03*
X176250000Y-83250000D03*
X176250000Y-84250000D03*
X176250000Y-85250000D03*
D65*
X200000000Y-130000000D03*
X90000000Y-120000000D03*
X200000000Y-70000000D03*
D66*
X171250000Y-83000000D03*
D43*
X171650000Y-83000000D03*
X170850000Y-83000000D03*
D67*
X172000000Y-81825000D03*
X171500000Y-81825000D03*
X171000000Y-81825000D03*
X170500000Y-81825000D03*
X170500000Y-84175000D03*
X171000000Y-84175000D03*
X171500000Y-84175000D03*
X172000000Y-84175000D03*
D68*
X87500000Y-71000000D03*
X93500000Y-71000000D03*
X90550000Y-75900000D03*
M02*
