%FSLAX36Y36*%
%MOMM*%
%ADD200C,0.200000*%
%ADD201C,0.254000*%
%ADD202C,0.300000*%
%ADD203C,1.016000*%
%ADD204C,3.000000*%
%ADD205C,3.500000*%
G54D200*
X140233000Y-129750000D03*
X140233000Y-130750000D03*
X141000000Y-84500000D03*
X141000000Y-85500000D03*
X141233000Y-129750000D03*
X141233000Y-130750000D03*
X142000000Y-84500000D03*
X142000000Y-85500000D03*
X144400000Y-109750000D03*
X144400000Y-110750000D03*
X145400000Y-109750000D03*
X145400000Y-110750000D03*
X150000000Y-130750000D03*
X150000000Y-131750000D03*
X151000000Y-130750000D03*
X151000000Y-131750000D03*
X151500000Y-96000000D03*
X151500000Y-97500000D03*
X151500000Y-99000000D03*
X151500000Y-100500000D03*
X152965000Y-120584000D03*
X152965000Y-121584000D03*
X152965000Y-122584000D03*
X152965000Y-123584000D03*
X153000000Y-96000000D03*
X153000000Y-97500000D03*
X153000000Y-99000000D03*
X153000000Y-100500000D03*
X153965000Y-120584000D03*
X153965000Y-121584000D03*
X153965000Y-122584000D03*
X153965000Y-123584000D03*
X154500000Y-96000000D03*
X154500000Y-97500000D03*
X154500000Y-99000000D03*
X154500000Y-100500000D03*
X154965000Y-120584000D03*
X154965000Y-121584000D03*
X154965000Y-122584000D03*
X154965000Y-123584000D03*
X155965000Y-120584000D03*
X155965000Y-121584000D03*
X155965000Y-122584000D03*
X155965000Y-123584000D03*
X156000000Y-96000000D03*
X156000000Y-97500000D03*
X156000000Y-99000000D03*
X156000000Y-100500000D03*
X162750000Y-130500000D03*
X162750000Y-131500000D03*
X163000000Y-83000000D03*
X163000000Y-84000000D03*
X163750000Y-130500000D03*
X163750000Y-131500000D03*
X164000000Y-83000000D03*
X164000000Y-84000000D03*
X168350000Y-92600000D03*
X168350000Y-93400000D03*
X168350000Y-107100000D03*
X168350000Y-107900000D03*
X169150000Y-92600000D03*
X169150000Y-93400000D03*
X169150000Y-107100000D03*
X169150000Y-107900000D03*
X170850000Y-83000000D03*
X171650000Y-83000000D03*
X177250000Y-83050000D03*
X178250000Y-83050000D03*
X189250000Y-68250000D03*
X189250000Y-69250000D03*
X190250000Y-68250000D03*
X190250000Y-69250000D03*
G54D201*
X86250000Y-84500000D03*
X87750000Y-79250000D03*
X88000000Y-87250000D03*
X88000000Y-102000000D03*
X88100000Y-93700000D03*
X89750000Y-100000000D03*
X89900000Y-97700000D03*
X90000000Y-131000000D03*
X90250000Y-102500000D03*
X90300000Y-99600000D03*
X90750000Y-107750000D03*
X91904000Y-94749000D03*
X92100000Y-84700000D03*
X92200000Y-97750000D03*
X92250000Y-81000000D03*
X92250000Y-81750000D03*
X92250000Y-103500000D03*
X92500000Y-106500000D03*
X93500000Y-79500000D03*
X93500000Y-80250000D03*
X93500000Y-81000000D03*
X93500000Y-81750000D03*
X93800000Y-90700000D03*
X94500000Y-95250000D03*
X94900000Y-100300000D03*
X95000000Y-78750000D03*
X95000000Y-103750000D03*
X95486000Y-100295000D03*
X95500000Y-75750000D03*
X95500000Y-93700000D03*
X96000000Y-90700000D03*
X96000000Y-111000000D03*
X96000000Y-121500000D03*
X96100000Y-93700000D03*
X96200000Y-100300000D03*
X96500000Y-75750000D03*
X96500000Y-119250000D03*
X96700000Y-93700000D03*
X96750000Y-107000000D03*
X96900000Y-100300000D03*
X97250000Y-105000000D03*
X97500000Y-93700000D03*
X97600000Y-100300000D03*
X97750000Y-90000000D03*
X97750000Y-108000000D03*
X97750000Y-111000000D03*
X97750000Y-113250000D03*
X97750000Y-116000000D03*
X97750000Y-118000000D03*
X98100000Y-93700000D03*
X98400000Y-100300000D03*
X98500000Y-88500000D03*
X98500000Y-119600000D03*
X98500000Y-121900000D03*
X98750000Y-67750000D03*
X99000000Y-75250000D03*
X99200000Y-98500000D03*
X99250000Y-108000000D03*
X99250000Y-111000000D03*
X99250000Y-113250000D03*
X99250000Y-116000000D03*
X99250000Y-118000000D03*
X99250000Y-90500000D03*
X99500000Y-89600000D03*
X99900000Y-89000000D03*
X100250000Y-72500000D03*
X100250000Y-105250000D03*
X100400000Y-88500000D03*
X100500000Y-119250000D03*
X100600000Y-128500000D03*
X100750000Y-73500000D03*
X101250000Y-113500000D03*
X101250000Y-121500000D03*
X101500000Y-72750000D03*
X101500000Y-73500000D03*
X101500000Y-74250000D03*
X101500000Y-76000000D03*
X101900000Y-89800000D03*
X102000000Y-93100000D03*
X102250000Y-73500000D03*
X102576000Y-104744000D03*
X103250000Y-67250000D03*
X103250000Y-73250000D03*
X103250000Y-106000000D03*
X103500000Y-92000000D03*
X103500000Y-96200000D03*
X103500000Y-108250000D03*
X103500000Y-112250000D03*
X104100000Y-100100000D03*
X104251000Y-94749000D03*
X104500000Y-87250000D03*
X104500000Y-111500000D03*
X104500000Y-112500000D03*
X105200000Y-90400000D03*
X105700000Y-108000000D03*
X106000000Y-103250000D03*
X106400000Y-97700000D03*
X107205000Y-94205000D03*
X108250000Y-103250000D03*
X108250000Y-131000000D03*
X108500000Y-92900000D03*
X108500000Y-100250000D03*
X109200000Y-71500000D03*
X109250000Y-108000000D03*
X109800000Y-91100000D03*
X110250000Y-84500000D03*
X110500000Y-81250000D03*
X110500000Y-82000000D03*
X110500000Y-83000000D03*
X110500000Y-103300000D03*
X110750000Y-77000000D03*
X110750000Y-86750000D03*
X110750000Y-108000000D03*
X110800000Y-87400000D03*
X111250000Y-84250000D03*
X111250000Y-91750000D03*
X111250000Y-95750000D03*
X111500000Y-70250000D03*
X111500000Y-85500000D03*
X111500000Y-92331000D03*
X111500000Y-97250000D03*
X111750000Y-77000000D03*
X111750000Y-77750000D03*
X111750000Y-107750000D03*
X112000000Y-69000000D03*
X112250000Y-112500000D03*
X112750000Y-77000000D03*
X112750000Y-77750000D03*
X113250000Y-80000000D03*
X113500000Y-71500000D03*
X113750000Y-84500000D03*
X113750000Y-86500000D03*
X114000000Y-111250000D03*
X114250000Y-76250000D03*
X114250000Y-77250000D03*
X114250000Y-78750000D03*
X114250000Y-80000000D03*
X114250000Y-81250000D03*
X114250000Y-82750000D03*
X114250000Y-104750000D03*
X114400000Y-89800000D03*
X114400000Y-91800000D03*
X114500000Y-86000000D03*
X114500000Y-115500000D03*
X114600000Y-95700000D03*
X114700000Y-97400000D03*
X114750000Y-110250000D03*
X115000000Y-70250000D03*
X115000000Y-113750000D03*
X115250000Y-81500000D03*
X115250000Y-110250000D03*
X115500000Y-88400000D03*
X115500000Y-107500000D03*
X115750000Y-111500000D03*
X115876000Y-97200000D03*
X116200000Y-88700000D03*
X116500000Y-71500000D03*
X116600000Y-93800000D03*
X116700000Y-84300000D03*
X116700000Y-89300000D03*
X116750000Y-113750000D03*
X116800000Y-97200000D03*
X116800000Y-129900000D03*
X117200000Y-90300000D03*
X117500000Y-103500000D03*
X117500000Y-110500000D03*
X117750000Y-82000000D03*
X117900000Y-90700000D03*
X118000000Y-98750000D03*
X118500000Y-112500000D03*
X118500000Y-114250000D03*
X118600000Y-89800000D03*
X118600000Y-106900000D03*
X119300000Y-93400000D03*
X119400000Y-94200000D03*
X119400000Y-95400000D03*
X119500000Y-103500000D03*
X119500000Y-119750000D03*
X120000000Y-77250000D03*
X120000000Y-80000000D03*
X120000000Y-84100000D03*
X120250000Y-107000000D03*
X120250000Y-112500000D03*
X120750000Y-94500000D03*
X120800000Y-85600000D03*
X120900000Y-97400000D03*
X121000000Y-120750000D03*
X121100000Y-96000000D03*
X121250000Y-107000000D03*
X121250000Y-111500000D03*
X121750000Y-107500000D03*
X121750000Y-113000000D03*
X121900000Y-99200000D03*
X122200000Y-81800000D03*
X122800000Y-99200000D03*
X123000000Y-130200000D03*
X123100000Y-120800000D03*
X123100000Y-126800000D03*
X123200000Y-80900000D03*
X123226000Y-110500000D03*
X123300000Y-82900000D03*
X123500000Y-97250000D03*
X123600000Y-127600000D03*
X124000000Y-79800000D03*
X124000000Y-99200000D03*
X124250000Y-105750000D03*
X124250000Y-107750000D03*
X124500000Y-127500000D03*
X124750000Y-113000000D03*
X124800000Y-99200000D03*
X125200000Y-80500000D03*
X125250000Y-102750000D03*
X125250000Y-104250000D03*
X125250000Y-105750000D03*
X125400000Y-127500000D03*
X125500000Y-110500000D03*
X125500000Y-111354000D03*
X125600000Y-99200000D03*
X125750000Y-101250000D03*
X125800000Y-120800000D03*
X125800000Y-126800000D03*
X126000000Y-117750000D03*
X126300000Y-85000000D03*
X126300000Y-99200000D03*
X126500000Y-81700000D03*
X126750000Y-110250000D03*
X127250000Y-89500000D03*
X127250000Y-116500000D03*
X127750000Y-107250000D03*
X128500000Y-124000000D03*
X128750000Y-88500000D03*
X128750000Y-89500000D03*
X129250000Y-107250000D03*
X129250000Y-110500000D03*
X129500000Y-98750000D03*
X129500000Y-113750000D03*
X129750000Y-116250000D03*
X130000000Y-92000000D03*
X130500000Y-103500000D03*
X130669000Y-110500000D03*
X131000000Y-113750000D03*
X131250000Y-110500000D03*
X131500000Y-88500000D03*
X131980000Y-88990000D03*
X132000000Y-110750000D03*
X132250000Y-85000000D03*
X132250000Y-90750000D03*
X132250000Y-102750000D03*
X132250000Y-136000000D03*
X132300000Y-79900000D03*
X132500000Y-84500000D03*
X132750000Y-90000000D03*
X133000000Y-113750000D03*
X133250000Y-109000000D03*
X133250000Y-137000000D03*
X133500000Y-80000000D03*
X133500000Y-93750000D03*
X133500000Y-95750000D03*
X133500000Y-96750000D03*
X133500000Y-98750000D03*
X133500000Y-100250000D03*
X134000000Y-121500000D03*
X136250000Y-82750000D03*
X136250000Y-121500000D03*
X136500000Y-104750000D03*
X136750000Y-93500000D03*
X136750000Y-97250000D03*
X137250000Y-95183000D03*
X137250000Y-95817000D03*
X137500000Y-130250000D03*
X137750000Y-93500000D03*
X137750000Y-98750000D03*
X137750000Y-100250000D03*
X138000000Y-82250000D03*
X138000000Y-108750000D03*
X138250000Y-126500000D03*
X138250000Y-130750000D03*
X138250000Y-133500000D03*
X138500000Y-110750000D03*
X138750000Y-93500000D03*
X138750000Y-123250000D03*
X139000000Y-125250000D03*
X139250000Y-89750000D03*
X139750000Y-93500000D03*
X139750000Y-96750000D03*
X139750000Y-98750000D03*
X139750000Y-100250000D03*
X140000000Y-81500000D03*
X140000000Y-116000000D03*
X140250000Y-79750000D03*
X140750000Y-93500000D03*
X141000000Y-82750000D03*
X141250000Y-79000000D03*
X141500000Y-109500000D03*
X141750000Y-93500000D03*
X141750000Y-96500000D03*
X141750000Y-98750000D03*
X141750000Y-100250000D03*
X142000000Y-125750000D03*
X142000000Y-126500000D03*
X142000000Y-127250000D03*
X142250000Y-79750000D03*
X142250000Y-81750000D03*
X142250000Y-109500000D03*
X142500000Y-110500000D03*
X142500000Y-111000000D03*
X142750000Y-93500000D03*
X142750000Y-118250000D03*
X142750000Y-125750000D03*
X142750000Y-126500000D03*
X142750000Y-127250000D03*
X143045000Y-98795000D03*
X143455000Y-99205000D03*
X143500000Y-107000000D03*
X143750000Y-93500000D03*
X144500000Y-87000000D03*
X144750000Y-93500000D03*
X145000000Y-102000000D03*
X145500000Y-70000000D03*
X145500000Y-118250000D03*
X146000000Y-129750000D03*
X146500000Y-92750000D03*
X146500000Y-129000000D03*
X146500000Y-130500000D03*
X146750000Y-96959000D03*
X146750000Y-97541000D03*
X147000000Y-107250000D03*
X147250000Y-92500000D03*
X147250000Y-98250000D03*
X147250000Y-102000000D03*
X147250000Y-112500000D03*
X147500000Y-89250000D03*
X148000000Y-77500000D03*
X148000000Y-106750000D03*
X148250000Y-113250000D03*
X148250000Y-128000000D03*
X148250000Y-134500000D03*
X148500000Y-94250000D03*
X148750000Y-120000000D03*
X148750000Y-121000000D03*
X148750000Y-133500000D03*
X149000000Y-102000000D03*
X149000000Y-107250000D03*
X149000000Y-128750000D03*
X149250000Y-98500000D03*
X149250000Y-112500000D03*
X149500000Y-70000000D03*
X149500000Y-88750000D03*
X149500000Y-94000000D03*
X150000000Y-93000000D03*
X150216000Y-102750000D03*
X150250000Y-109500000D03*
X150250000Y-123000000D03*
X150250000Y-125000000D03*
X150500000Y-107750000D03*
X150750000Y-117500000D03*
X151000000Y-128750000D03*
X151006000Y-120834000D03*
X151250000Y-85250000D03*
X151250000Y-107250000D03*
X151500000Y-117500000D03*
X151705000Y-104955000D03*
X151750000Y-117000000D03*
X152000000Y-107750000D03*
X152000000Y-125250000D03*
X152000000Y-126000000D03*
X152250000Y-118250000D03*
X152500000Y-106250000D03*
X152500000Y-131000000D03*
X153000000Y-105250000D03*
X153000000Y-128000000D03*
X153250000Y-76750000D03*
X153500000Y-84500000D03*
X153500000Y-103750000D03*
X153500000Y-125750000D03*
X153750000Y-127750000D03*
X153750000Y-132000000D03*
X154000000Y-83750000D03*
X154250000Y-116500000D03*
X154500000Y-82500000D03*
X154500000Y-107750000D03*
X154696000Y-118572000D03*
X154938000Y-90476000D03*
X155000000Y-128250000D03*
X155250000Y-107250000D03*
X155250000Y-129500000D03*
X155500000Y-70000000D03*
X155500000Y-86500000D03*
X155572000Y-90476000D03*
X156000000Y-107750000D03*
X156250000Y-117000000D03*
X156500000Y-93500000D03*
X156500000Y-103250000D03*
X157250000Y-79250000D03*
X157250000Y-117250000D03*
X157500000Y-119500000D03*
X157500000Y-125500000D03*
X157500000Y-129750000D03*
X157750000Y-93500000D03*
X158000000Y-118250000D03*
X158250000Y-98000000D03*
X158250000Y-99000000D03*
X158250000Y-103750000D03*
X158250000Y-105000000D03*
X158250000Y-106000000D03*
X158500000Y-124750000D03*
X158750000Y-92750000D03*
X158750000Y-97500000D03*
X158750000Y-98500000D03*
X159000000Y-103000000D03*
X159250000Y-72500000D03*
X159250000Y-102000000D03*
X159750000Y-96500000D03*
X160000000Y-100250000D03*
X160500000Y-87000000D03*
X160500000Y-131500000D03*
X160750000Y-93250000D03*
X160750000Y-95500000D03*
X160750000Y-134500000D03*
X161000000Y-101250000D03*
X161000000Y-127090000D03*
X161250000Y-103500000D03*
X161250000Y-105250000D03*
X161250000Y-117000000D03*
X161250000Y-122500000D03*
X162000000Y-78500000D03*
X162000000Y-80500000D03*
X162000000Y-81250000D03*
X162000000Y-92250000D03*
X162000000Y-97750000D03*
X162000000Y-98750000D03*
X162250000Y-79750000D03*
X162250000Y-106500000D03*
X162750000Y-67500000D03*
X162750000Y-70000000D03*
X163000000Y-79750000D03*
X163000000Y-81250000D03*
X163400000Y-74200000D03*
X163500000Y-120750000D03*
X163500000Y-126500000D03*
X163750000Y-106000000D03*
X164000000Y-66000000D03*
X164000000Y-71500000D03*
X164039000Y-80405000D03*
X164750000Y-74750000D03*
X165250000Y-120750000D03*
X165250000Y-126500000D03*
X165500000Y-88000000D03*
X165500000Y-88500000D03*
X165500000Y-102500000D03*
X165500000Y-103500000D03*
X165500000Y-110500000D03*
X165500000Y-128750000D03*
X166000000Y-75250000D03*
X166000000Y-83250000D03*
X166250000Y-94250000D03*
X166250000Y-96000000D03*
X166250000Y-98000000D03*
X166250000Y-106250000D03*
X166250000Y-109500000D03*
X166250000Y-111500000D03*
X166500000Y-71500000D03*
X166500000Y-72750000D03*
X166500000Y-102500000D03*
X166750000Y-97000000D03*
X166750000Y-120750000D03*
X166750000Y-126500000D03*
X166750000Y-130000000D03*
X167250000Y-71500000D03*
X167250000Y-72750000D03*
X168250000Y-120750000D03*
X168250000Y-126500000D03*
X168500000Y-80250000D03*
X168750000Y-86000000D03*
X169000000Y-118300000D03*
X169000000Y-124000000D03*
X169500000Y-85000000D03*
X170000000Y-110500000D03*
X170000000Y-117900000D03*
X170000000Y-120750000D03*
X170000000Y-123700000D03*
X170000000Y-126500000D03*
X170500000Y-85000000D03*
X170500000Y-97000000D03*
X170500000Y-111500000D03*
X170750000Y-88750000D03*
X170750000Y-90750000D03*
X171000000Y-67500000D03*
X171000000Y-96000000D03*
X171250000Y-104500000D03*
X171250000Y-110500000D03*
X171500000Y-89750000D03*
X171500000Y-120750000D03*
X171750000Y-97000000D03*
X171750000Y-126500000D03*
X172000000Y-80000000D03*
X172000000Y-80750000D03*
X173000000Y-90000000D03*
X173000000Y-96000000D03*
X173000000Y-104500000D03*
X173000000Y-110250000D03*
X173000000Y-120750000D03*
X173250000Y-79000000D03*
X173500000Y-117900000D03*
X173500000Y-123700000D03*
X173500000Y-126500000D03*
X174000000Y-66250000D03*
X174250000Y-90500000D03*
X174250000Y-95500000D03*
X174500000Y-80750000D03*
X174500000Y-85000000D03*
X174500000Y-120750000D03*
X174750000Y-66500000D03*
X174750000Y-105000000D03*
X174750000Y-110000000D03*
X175250000Y-126500000D03*
X175500000Y-68250000D03*
X175750000Y-66500000D03*
X175750000Y-85250000D03*
X176000000Y-120750000D03*
X176250000Y-79000000D03*
X176500000Y-68750000D03*
X176500000Y-91000000D03*
X176500000Y-94750000D03*
X176500000Y-105750000D03*
X176750000Y-66500000D03*
X176750000Y-109500000D03*
X177000000Y-117900000D03*
X177000000Y-123700000D03*
X177000000Y-126500000D03*
X177250000Y-85250000D03*
X177500000Y-68750000D03*
X177500000Y-120750000D03*
X177750000Y-66500000D03*
X178000000Y-71000000D03*
X178000000Y-72250000D03*
X178000000Y-73500000D03*
X178250000Y-105750000D03*
X178250000Y-109500000D03*
X178500000Y-68750000D03*
X178500000Y-91000000D03*
X178500000Y-94750000D03*
X178750000Y-126500000D03*
X179000000Y-101750000D03*
X179250000Y-103000000D03*
X179250000Y-120750000D03*
X179750000Y-100750000D03*
X179750000Y-104500000D03*
X179750000Y-105750000D03*
X179750000Y-109500000D03*
X179750000Y-111250000D03*
X179750000Y-113000000D03*
X179750000Y-115000000D03*
X180000000Y-88500000D03*
X180000000Y-89750000D03*
X180000000Y-91000000D03*
X180000000Y-94750000D03*
X180000000Y-96250000D03*
X180000000Y-97750000D03*
X180000000Y-99250000D03*
X180250000Y-83250000D03*
X180250000Y-84500000D03*
X180500000Y-116500000D03*
X180500000Y-117900000D03*
X180500000Y-123700000D03*
X180500000Y-126500000D03*
X180750000Y-120750000D03*
X180800000Y-113400000D03*
X181000000Y-87500000D03*
X181250000Y-81500000D03*
X181250000Y-82250000D03*
X181750000Y-126500000D03*
X182000000Y-86500000D03*
X182000000Y-90250000D03*
X182000000Y-91500000D03*
X182000000Y-94250000D03*
X182000000Y-95500000D03*
X182000000Y-96750000D03*
X182000000Y-98000000D03*
X182000000Y-99250000D03*
X182000000Y-100500000D03*
X182000000Y-102500000D03*
X182000000Y-103750000D03*
X182000000Y-105000000D03*
X182000000Y-106250000D03*
X182000000Y-108500000D03*
X182000000Y-109500000D03*
X182000000Y-110750000D03*
X182000000Y-112000000D03*
X182000000Y-113000000D03*
X182000000Y-118000000D03*
X182000000Y-124000000D03*
X182250000Y-115000000D03*
X182500000Y-68750000D03*
X182500000Y-89250000D03*
X182500000Y-101250000D03*
X182500000Y-120750000D03*
X182600000Y-87500000D03*
X182750000Y-68000000D03*
X182750000Y-75500000D03*
X182750000Y-114000000D03*
X183200000Y-101900000D03*
X183250000Y-92250000D03*
X183250000Y-116000000D03*
X183250000Y-124000000D03*
X183250000Y-126500000D03*
X183500000Y-86500000D03*
X183500000Y-88500000D03*
X183500000Y-114750000D03*
X183750000Y-96000000D03*
X183750000Y-97250000D03*
X183750000Y-98500000D03*
X183750000Y-100750000D03*
X183750000Y-106250000D03*
X184000000Y-66500000D03*
X184000000Y-71000000D03*
X184000000Y-73750000D03*
X184000000Y-95000000D03*
X184250000Y-115500000D03*
X184250000Y-117000000D03*
X184250000Y-120000000D03*
X184500000Y-89000000D03*
X184500000Y-90000000D03*
X184500000Y-91000000D03*
X184500000Y-105500000D03*
X184500000Y-108750000D03*
X184500000Y-124000000D03*
X184500000Y-126500000D03*
X184750000Y-118500000D03*
X185000000Y-69250000D03*
X185000000Y-70000000D03*
X185000000Y-86500000D03*
X185000000Y-98500000D03*
X185000000Y-100750000D03*
X185000000Y-116250000D03*
X185250000Y-71250000D03*
X185250000Y-84250000D03*
X185250000Y-107323000D03*
X185500000Y-92750000D03*
X185750000Y-124000000D03*
X185750000Y-126500000D03*
X186000000Y-105500000D03*
X186000000Y-108750000D03*
X186250000Y-72000000D03*
X186250000Y-98500000D03*
X186250000Y-101000000D03*
X186250000Y-116500000D03*
X186500000Y-83000000D03*
X186500000Y-87250000D03*
X186500000Y-89500000D03*
X186500000Y-90750000D03*
X186750000Y-102750000D03*
X186750000Y-109750000D03*
X187000000Y-81500000D03*
X187000000Y-86500000D03*
X187000000Y-88250000D03*
X187000000Y-111000000D03*
X187000000Y-124000000D03*
X187000000Y-126500000D03*
X187250000Y-71250000D03*
X187500000Y-98500000D03*
X187500000Y-112500000D03*
X187500000Y-117000000D03*
X187750000Y-89500000D03*
X187800000Y-104700000D03*
X188250000Y-83000000D03*
X188250000Y-85750000D03*
X188250000Y-124000000D03*
X188250000Y-126500000D03*
X188500000Y-113500000D03*
X188750000Y-98500000D03*
X188750000Y-117000000D03*
X189500000Y-117750000D03*
X189500000Y-124000000D03*
X189500000Y-126500000D03*
X190000000Y-113500000D03*
X190250000Y-98500000D03*
X190250000Y-118500000D03*
X190250000Y-123250000D03*
X190500000Y-88000000D03*
X190750000Y-90000000D03*
X191000000Y-119250000D03*
X191000000Y-120250000D03*
X191000000Y-121250000D03*
X191000000Y-122500000D03*
X191000000Y-125750000D03*
X191250000Y-74500000D03*
X191250000Y-93250000D03*
X191500000Y-83000000D03*
X191500000Y-89250000D03*
X191500000Y-95000000D03*
X191500000Y-98500000D03*
X191500000Y-112250000D03*
X191500000Y-113500000D03*
X191700000Y-104400000D03*
X191800000Y-123000000D03*
X192000000Y-66250000D03*
X192000000Y-71500000D03*
X192000000Y-125000000D03*
X192250000Y-83500000D03*
X192250000Y-87250000D03*
X192250000Y-111750000D03*
X192500000Y-90500000D03*
X192500000Y-117500000D03*
X192750000Y-124000000D03*
X193000000Y-65500000D03*
X193000000Y-98500000D03*
X193200000Y-103000000D03*
X193250000Y-75500000D03*
X193250000Y-80250000D03*
X193250000Y-105000000D03*
X193250000Y-106500000D03*
X193250000Y-119250000D03*
X193250000Y-120250000D03*
X193250000Y-121250000D03*
X193500000Y-92500000D03*
X193500000Y-93500000D03*
X193500000Y-94500000D03*
X193750000Y-89750000D03*
X193750000Y-91250000D03*
X194000000Y-66250000D03*
X194000000Y-75000000D03*
X194000000Y-98500000D03*
X194250000Y-69250000D03*
X194250000Y-70000000D03*
X194250000Y-117500000D03*
X194400000Y-103800000D03*
X194500000Y-88750000D03*
X194500000Y-105750000D03*
X194750000Y-85250000D03*
X195000000Y-69250000D03*
X195000000Y-70000000D03*
X195500000Y-98250000D03*
X195500000Y-113500000D03*
X196250000Y-96750000D03*
X196250000Y-117500000D03*
X196750000Y-90750000D03*
X197250000Y-96750000D03*
X197250000Y-113500000D03*
X197500000Y-83000000D03*
X197750000Y-90750000D03*
X198500000Y-85000000D03*
X199500000Y-92500000D03*
X199500000Y-95000000D03*
X200250000Y-95500000D03*
X200250000Y-113500000D03*
X200250000Y-117500000D03*
X200750000Y-92500000D03*
X201500000Y-86750000D03*
X201500000Y-113500000D03*
X201500000Y-117500000D03*
X201750000Y-78500000D03*
X202000000Y-92500000D03*
X202000000Y-95500000D03*
X202750000Y-80000000D03*
X202750000Y-85750000D03*
X202750000Y-113500000D03*
X202750000Y-117500000D03*
X203000000Y-80750000D03*
X203250000Y-92500000D03*
X203500000Y-95500000D03*
X203750000Y-87750000D03*
X203750000Y-111250000D03*
X203750000Y-119750000D03*
X204000000Y-89750000D03*
X204000000Y-98250000D03*
X204750000Y-81000000D03*
X206750000Y-99500000D03*
X206750000Y-121250000D03*
X207000000Y-88500000D03*
X207000000Y-110000000D03*
X209750000Y-89750000D03*
X209750000Y-98250000D03*
X209750000Y-111250000D03*
X210000000Y-119750000D03*
G54D202*
X195850000Y-93100000D03*
X195850000Y-94400000D03*
X197150000Y-93100000D03*
X197150000Y-94400000D03*
G54D203*
X122380000Y-69210000D03*
X122380000Y-71750000D03*
X124920000Y-69210000D03*
X124920000Y-71750000D03*
X127460000Y-69210000D03*
X127460000Y-71750000D03*
X130000000Y-69210000D03*
X130000000Y-71750000D03*
X132540000Y-69210000D03*
X132540000Y-71750000D03*
X135080000Y-69210000D03*
X135080000Y-71750000D03*
X137620000Y-69210000D03*
X137620000Y-71750000D03*
G54D204*
X87500000Y-71000000D03*
X90550000Y-75900000D03*
G54D205*
X93500000Y-71000000D03*
M02*
