%TF.GenerationSoftware,KiCad,Pcbnew,4.0.7*%
%TF.CreationDate,2018-05-19T04:47:08+02:00*%
%TF.ProjectId,adccore,616463636F72652E6B696361645F7063,rev?*%
%TF.FileFunction,Legend,Bot*%
%FSLAX46Y46*%
G04 Gerber Fmt 4.6, Leading zero omitted, Abs format (unit mm)*
G04 Created by KiCad (PCBNEW 4.0.7) date 05/19/18 04:47:08*
%MOMM*%
%LPD*%
G01*
G04 APERTURE LIST*
%ADD10C,0.100000*%
%ADD11C,0.127000*%
%ADD12C,0.099060*%
%ADD13C,0.150000*%
%ADD14C,0.114300*%
%ADD15C,0.109220*%
G04 APERTURE END LIST*
D10*
D11*
X109865000Y-91357000D02*
X109865000Y-93643000D01*
X109865000Y-93643000D02*
X111135000Y-93643000D01*
X111135000Y-93643000D02*
X111135000Y-91357000D01*
X111135000Y-91357000D02*
X109865000Y-91357000D01*
D12*
X114865000Y-94448500D02*
G75*
G03X114865000Y-94448500I-127000J0D01*
G01*
X114738000Y-93305500D02*
X114738000Y-94321500D01*
X114738000Y-94321500D02*
X116262000Y-94321500D01*
X116262000Y-94321500D02*
X116262000Y-93305500D01*
X116262000Y-92289500D02*
X116262000Y-91273500D01*
X116262000Y-91273500D02*
X114738000Y-91273500D01*
X114738000Y-91273500D02*
X114738000Y-92289500D01*
D11*
X109865000Y-96857000D02*
X109865000Y-99143000D01*
X109865000Y-99143000D02*
X111135000Y-99143000D01*
X111135000Y-99143000D02*
X111135000Y-96857000D01*
X111135000Y-96857000D02*
X109865000Y-96857000D01*
X137095000Y-97635000D02*
X139381000Y-97635000D01*
X139381000Y-97635000D02*
X139381000Y-96365000D01*
X139381000Y-96365000D02*
X137095000Y-96365000D01*
X137095000Y-96365000D02*
X137095000Y-97635000D01*
X115495000Y-97835000D02*
X117781000Y-97835000D01*
X117781000Y-97835000D02*
X117781000Y-96565000D01*
X117781000Y-96565000D02*
X115495000Y-96565000D01*
X115495000Y-96565000D02*
X115495000Y-97835000D01*
X131615000Y-99857000D02*
X131615000Y-102143000D01*
X131615000Y-102143000D02*
X132885000Y-102143000D01*
X132885000Y-102143000D02*
X132885000Y-99857000D01*
X132885000Y-99857000D02*
X131615000Y-99857000D01*
X133135000Y-93968876D02*
X133135000Y-91682876D01*
X133135000Y-91682876D02*
X131865000Y-91682876D01*
X131865000Y-91682876D02*
X131865000Y-93968876D01*
X131865000Y-93968876D02*
X133135000Y-93968876D01*
X131635000Y-93968876D02*
X131635000Y-91682876D01*
X131635000Y-91682876D02*
X130365000Y-91682876D01*
X130365000Y-91682876D02*
X130365000Y-93968876D01*
X130365000Y-93968876D02*
X131635000Y-93968876D01*
D12*
X129928500Y-97988000D02*
G75*
G03X129928500Y-97988000I-127000J0D01*
G01*
X130944500Y-97988000D02*
X129928500Y-97988000D01*
X129928500Y-97988000D02*
X129928500Y-99512000D01*
X129928500Y-99512000D02*
X130944500Y-99512000D01*
X131960500Y-99512000D02*
X132976500Y-99512000D01*
X132976500Y-99512000D02*
X132976500Y-97988000D01*
X132976500Y-97988000D02*
X131960500Y-97988000D01*
X129865000Y-103151000D02*
G75*
G03X129865000Y-103151000I-127000J0D01*
G01*
X129738000Y-102008000D02*
X129738000Y-103024000D01*
X129738000Y-103024000D02*
X131262000Y-103024000D01*
X131262000Y-103024000D02*
X131262000Y-102008000D01*
X131262000Y-100992000D02*
X131262000Y-99976000D01*
X131262000Y-99976000D02*
X129738000Y-99976000D01*
X129738000Y-99976000D02*
X129738000Y-100992000D01*
D13*
X103900000Y-95450000D02*
X103900000Y-95550000D01*
X103100000Y-95450000D02*
X103100000Y-95550000D01*
X103900000Y-94950000D02*
X103900000Y-95450000D01*
X103100000Y-94950000D02*
X103100000Y-95450000D01*
D14*
X109411429Y-91988371D02*
X109435619Y-91966600D01*
X109459810Y-91901286D01*
X109459810Y-91857743D01*
X109435619Y-91792428D01*
X109387238Y-91748886D01*
X109338857Y-91727114D01*
X109242095Y-91705343D01*
X109169524Y-91705343D01*
X109072762Y-91727114D01*
X109024381Y-91748886D01*
X108976000Y-91792428D01*
X108951810Y-91857743D01*
X108951810Y-91901286D01*
X108976000Y-91966600D01*
X109000190Y-91988371D01*
X109000190Y-92162543D02*
X108976000Y-92184314D01*
X108951810Y-92227857D01*
X108951810Y-92336714D01*
X108976000Y-92380257D01*
X109000190Y-92402028D01*
X109048571Y-92423800D01*
X109096952Y-92423800D01*
X109169524Y-92402028D01*
X109459810Y-92140771D01*
X109459810Y-92423800D01*
X108951810Y-92706829D02*
X108951810Y-92750372D01*
X108976000Y-92793915D01*
X109000190Y-92815686D01*
X109048571Y-92837457D01*
X109145333Y-92859229D01*
X109266286Y-92859229D01*
X109363048Y-92837457D01*
X109411429Y-92815686D01*
X109435619Y-92793915D01*
X109459810Y-92750372D01*
X109459810Y-92706829D01*
X109435619Y-92663286D01*
X109411429Y-92641515D01*
X109363048Y-92619743D01*
X109266286Y-92597972D01*
X109145333Y-92597972D01*
X109048571Y-92619743D01*
X109000190Y-92641515D01*
X108976000Y-92663286D01*
X108951810Y-92706829D01*
X108951810Y-93011629D02*
X108951810Y-93294658D01*
X109145333Y-93142258D01*
X109145333Y-93207572D01*
X109169524Y-93251115D01*
X109193714Y-93272886D01*
X109242095Y-93294658D01*
X109363048Y-93294658D01*
X109411429Y-93272886D01*
X109435619Y-93251115D01*
X109459810Y-93207572D01*
X109459810Y-93076944D01*
X109435619Y-93033401D01*
X109411429Y-93011629D01*
D15*
X115996207Y-92237552D02*
X116020035Y-92213724D01*
X116043862Y-92142241D01*
X116043862Y-92094586D01*
X116020035Y-92023103D01*
X115972380Y-91975448D01*
X115924724Y-91951620D01*
X115829414Y-91927792D01*
X115757931Y-91927792D01*
X115662620Y-91951620D01*
X115614965Y-91975448D01*
X115567310Y-92023103D01*
X115543482Y-92094586D01*
X115543482Y-92142241D01*
X115567310Y-92213724D01*
X115591138Y-92237552D01*
X115591138Y-92428172D02*
X115567310Y-92452000D01*
X115543482Y-92499655D01*
X115543482Y-92618793D01*
X115567310Y-92666449D01*
X115591138Y-92690276D01*
X115638793Y-92714104D01*
X115686448Y-92714104D01*
X115757931Y-92690276D01*
X116043862Y-92404345D01*
X116043862Y-92714104D01*
X115543482Y-93023863D02*
X115543482Y-93071518D01*
X115567310Y-93119173D01*
X115591138Y-93143001D01*
X115638793Y-93166828D01*
X115734103Y-93190656D01*
X115853241Y-93190656D01*
X115948552Y-93166828D01*
X115996207Y-93143001D01*
X116020035Y-93119173D01*
X116043862Y-93071518D01*
X116043862Y-93023863D01*
X116020035Y-92976207D01*
X115996207Y-92952380D01*
X115948552Y-92928552D01*
X115853241Y-92904724D01*
X115734103Y-92904724D01*
X115638793Y-92928552D01*
X115591138Y-92952380D01*
X115567310Y-92976207D01*
X115543482Y-93023863D01*
X115543482Y-93643380D02*
X115543482Y-93405104D01*
X115781759Y-93381276D01*
X115757931Y-93405104D01*
X115734103Y-93452759D01*
X115734103Y-93571897D01*
X115757931Y-93619553D01*
X115781759Y-93643380D01*
X115829414Y-93667208D01*
X115948552Y-93667208D01*
X115996207Y-93643380D01*
X116020035Y-93619553D01*
X116043862Y-93571897D01*
X116043862Y-93452759D01*
X116020035Y-93405104D01*
X115996207Y-93381276D01*
D14*
X109411429Y-97488371D02*
X109435619Y-97466600D01*
X109459810Y-97401286D01*
X109459810Y-97357743D01*
X109435619Y-97292428D01*
X109387238Y-97248886D01*
X109338857Y-97227114D01*
X109242095Y-97205343D01*
X109169524Y-97205343D01*
X109072762Y-97227114D01*
X109024381Y-97248886D01*
X108976000Y-97292428D01*
X108951810Y-97357743D01*
X108951810Y-97401286D01*
X108976000Y-97466600D01*
X109000190Y-97488371D01*
X109000190Y-97662543D02*
X108976000Y-97684314D01*
X108951810Y-97727857D01*
X108951810Y-97836714D01*
X108976000Y-97880257D01*
X109000190Y-97902028D01*
X109048571Y-97923800D01*
X109096952Y-97923800D01*
X109169524Y-97902028D01*
X109459810Y-97640771D01*
X109459810Y-97923800D01*
X108951810Y-98206829D02*
X108951810Y-98250372D01*
X108976000Y-98293915D01*
X109000190Y-98315686D01*
X109048571Y-98337457D01*
X109145333Y-98359229D01*
X109266286Y-98359229D01*
X109363048Y-98337457D01*
X109411429Y-98315686D01*
X109435619Y-98293915D01*
X109459810Y-98250372D01*
X109459810Y-98206829D01*
X109435619Y-98163286D01*
X109411429Y-98141515D01*
X109363048Y-98119743D01*
X109266286Y-98097972D01*
X109145333Y-98097972D01*
X109048571Y-98119743D01*
X109000190Y-98141515D01*
X108976000Y-98163286D01*
X108951810Y-98206829D01*
X108951810Y-98511629D02*
X108951810Y-98816429D01*
X109459810Y-98620486D01*
X138749629Y-98451429D02*
X138771400Y-98475619D01*
X138836714Y-98499810D01*
X138880257Y-98499810D01*
X138945572Y-98475619D01*
X138989114Y-98427238D01*
X139010886Y-98378857D01*
X139032657Y-98282095D01*
X139032657Y-98209524D01*
X139010886Y-98112762D01*
X138989114Y-98064381D01*
X138945572Y-98016000D01*
X138880257Y-97991810D01*
X138836714Y-97991810D01*
X138771400Y-98016000D01*
X138749629Y-98040190D01*
X138575457Y-98040190D02*
X138553686Y-98016000D01*
X138510143Y-97991810D01*
X138401286Y-97991810D01*
X138357743Y-98016000D01*
X138335972Y-98040190D01*
X138314200Y-98088571D01*
X138314200Y-98136952D01*
X138335972Y-98209524D01*
X138597229Y-98499810D01*
X138314200Y-98499810D01*
X137878771Y-98499810D02*
X138140028Y-98499810D01*
X138009400Y-98499810D02*
X138009400Y-97991810D01*
X138052943Y-98064381D01*
X138096485Y-98112762D01*
X138140028Y-98136952D01*
X137443342Y-98499810D02*
X137704599Y-98499810D01*
X137573971Y-98499810D02*
X137573971Y-97991810D01*
X137617514Y-98064381D01*
X137661056Y-98112762D01*
X137704599Y-98136952D01*
X117149629Y-98651429D02*
X117171400Y-98675619D01*
X117236714Y-98699810D01*
X117280257Y-98699810D01*
X117345572Y-98675619D01*
X117389114Y-98627238D01*
X117410886Y-98578857D01*
X117432657Y-98482095D01*
X117432657Y-98409524D01*
X117410886Y-98312762D01*
X117389114Y-98264381D01*
X117345572Y-98216000D01*
X117280257Y-98191810D01*
X117236714Y-98191810D01*
X117171400Y-98216000D01*
X117149629Y-98240190D01*
X116975457Y-98240190D02*
X116953686Y-98216000D01*
X116910143Y-98191810D01*
X116801286Y-98191810D01*
X116757743Y-98216000D01*
X116735972Y-98240190D01*
X116714200Y-98288571D01*
X116714200Y-98336952D01*
X116735972Y-98409524D01*
X116997229Y-98699810D01*
X116714200Y-98699810D01*
X116278771Y-98699810D02*
X116540028Y-98699810D01*
X116409400Y-98699810D02*
X116409400Y-98191810D01*
X116452943Y-98264381D01*
X116496485Y-98312762D01*
X116540028Y-98336952D01*
X116126371Y-98191810D02*
X115843342Y-98191810D01*
X115995742Y-98385333D01*
X115930428Y-98385333D01*
X115886885Y-98409524D01*
X115865114Y-98433714D01*
X115843342Y-98482095D01*
X115843342Y-98603048D01*
X115865114Y-98651429D01*
X115886885Y-98675619D01*
X115930428Y-98699810D01*
X116061056Y-98699810D01*
X116104599Y-98675619D01*
X116126371Y-98651429D01*
X131161429Y-100488371D02*
X131185619Y-100466600D01*
X131209810Y-100401286D01*
X131209810Y-100357743D01*
X131185619Y-100292428D01*
X131137238Y-100248886D01*
X131088857Y-100227114D01*
X130992095Y-100205343D01*
X130919524Y-100205343D01*
X130822762Y-100227114D01*
X130774381Y-100248886D01*
X130726000Y-100292428D01*
X130701810Y-100357743D01*
X130701810Y-100401286D01*
X130726000Y-100466600D01*
X130750190Y-100488371D01*
X130750190Y-100662543D02*
X130726000Y-100684314D01*
X130701810Y-100727857D01*
X130701810Y-100836714D01*
X130726000Y-100880257D01*
X130750190Y-100902028D01*
X130798571Y-100923800D01*
X130846952Y-100923800D01*
X130919524Y-100902028D01*
X131209810Y-100640771D01*
X131209810Y-100923800D01*
X131209810Y-101359229D02*
X131209810Y-101097972D01*
X131209810Y-101228600D02*
X130701810Y-101228600D01*
X130774381Y-101185057D01*
X130822762Y-101141515D01*
X130846952Y-101097972D01*
X130701810Y-101751115D02*
X130701810Y-101664029D01*
X130726000Y-101620486D01*
X130750190Y-101598715D01*
X130822762Y-101555172D01*
X130919524Y-101533401D01*
X131113048Y-101533401D01*
X131161429Y-101555172D01*
X131185619Y-101576944D01*
X131209810Y-101620486D01*
X131209810Y-101707572D01*
X131185619Y-101751115D01*
X131161429Y-101772886D01*
X131113048Y-101794658D01*
X130992095Y-101794658D01*
X130943714Y-101772886D01*
X130919524Y-101751115D01*
X130895333Y-101707572D01*
X130895333Y-101620486D01*
X130919524Y-101576944D01*
X130943714Y-101555172D01*
X130992095Y-101533401D01*
X133951429Y-92314247D02*
X133975619Y-92292476D01*
X133999810Y-92227162D01*
X133999810Y-92183619D01*
X133975619Y-92118304D01*
X133927238Y-92074762D01*
X133878857Y-92052990D01*
X133782095Y-92031219D01*
X133709524Y-92031219D01*
X133612762Y-92052990D01*
X133564381Y-92074762D01*
X133516000Y-92118304D01*
X133491810Y-92183619D01*
X133491810Y-92227162D01*
X133516000Y-92292476D01*
X133540190Y-92314247D01*
X133540190Y-92488419D02*
X133516000Y-92510190D01*
X133491810Y-92553733D01*
X133491810Y-92662590D01*
X133516000Y-92706133D01*
X133540190Y-92727904D01*
X133588571Y-92749676D01*
X133636952Y-92749676D01*
X133709524Y-92727904D01*
X133999810Y-92466647D01*
X133999810Y-92749676D01*
X133999810Y-93185105D02*
X133999810Y-92923848D01*
X133999810Y-93054476D02*
X133491810Y-93054476D01*
X133564381Y-93010933D01*
X133612762Y-92967391D01*
X133636952Y-92923848D01*
X133491810Y-93337505D02*
X133491810Y-93642305D01*
X133999810Y-93446362D01*
X132451429Y-92314247D02*
X132475619Y-92292476D01*
X132499810Y-92227162D01*
X132499810Y-92183619D01*
X132475619Y-92118304D01*
X132427238Y-92074762D01*
X132378857Y-92052990D01*
X132282095Y-92031219D01*
X132209524Y-92031219D01*
X132112762Y-92052990D01*
X132064381Y-92074762D01*
X132016000Y-92118304D01*
X131991810Y-92183619D01*
X131991810Y-92227162D01*
X132016000Y-92292476D01*
X132040190Y-92314247D01*
X132040190Y-92488419D02*
X132016000Y-92510190D01*
X131991810Y-92553733D01*
X131991810Y-92662590D01*
X132016000Y-92706133D01*
X132040190Y-92727904D01*
X132088571Y-92749676D01*
X132136952Y-92749676D01*
X132209524Y-92727904D01*
X132499810Y-92466647D01*
X132499810Y-92749676D01*
X132499810Y-93185105D02*
X132499810Y-92923848D01*
X132499810Y-93054476D02*
X131991810Y-93054476D01*
X132064381Y-93010933D01*
X132112762Y-92967391D01*
X132136952Y-92923848D01*
X132209524Y-93446362D02*
X132185333Y-93402820D01*
X132161143Y-93381048D01*
X132112762Y-93359277D01*
X132088571Y-93359277D01*
X132040190Y-93381048D01*
X132016000Y-93402820D01*
X131991810Y-93446362D01*
X131991810Y-93533448D01*
X132016000Y-93576991D01*
X132040190Y-93598762D01*
X132088571Y-93620534D01*
X132112762Y-93620534D01*
X132161143Y-93598762D01*
X132185333Y-93576991D01*
X132209524Y-93533448D01*
X132209524Y-93446362D01*
X132233714Y-93402820D01*
X132257905Y-93381048D01*
X132306286Y-93359277D01*
X132403048Y-93359277D01*
X132451429Y-93381048D01*
X132475619Y-93402820D01*
X132499810Y-93446362D01*
X132499810Y-93533448D01*
X132475619Y-93576991D01*
X132451429Y-93598762D01*
X132403048Y-93620534D01*
X132306286Y-93620534D01*
X132257905Y-93598762D01*
X132233714Y-93576991D01*
X132209524Y-93533448D01*
D15*
X132012448Y-99246207D02*
X132036276Y-99270035D01*
X132107759Y-99293862D01*
X132155414Y-99293862D01*
X132226897Y-99270035D01*
X132274552Y-99222380D01*
X132298380Y-99174724D01*
X132322208Y-99079414D01*
X132322208Y-99007931D01*
X132298380Y-98912620D01*
X132274552Y-98864965D01*
X132226897Y-98817310D01*
X132155414Y-98793482D01*
X132107759Y-98793482D01*
X132036276Y-98817310D01*
X132012448Y-98841138D01*
X131821828Y-98841138D02*
X131798000Y-98817310D01*
X131750345Y-98793482D01*
X131631207Y-98793482D01*
X131583551Y-98817310D01*
X131559724Y-98841138D01*
X131535896Y-98888793D01*
X131535896Y-98936448D01*
X131559724Y-99007931D01*
X131845655Y-99293862D01*
X131535896Y-99293862D01*
X131059344Y-99293862D02*
X131345276Y-99293862D01*
X131202310Y-99293862D02*
X131202310Y-98793482D01*
X131249965Y-98864965D01*
X131297620Y-98912620D01*
X131345276Y-98936448D01*
X130821068Y-99293862D02*
X130725758Y-99293862D01*
X130678103Y-99270035D01*
X130654275Y-99246207D01*
X130606620Y-99174724D01*
X130582792Y-99079414D01*
X130582792Y-98888793D01*
X130606620Y-98841138D01*
X130630447Y-98817310D01*
X130678103Y-98793482D01*
X130773413Y-98793482D01*
X130821068Y-98817310D01*
X130844896Y-98841138D01*
X130868724Y-98888793D01*
X130868724Y-99007931D01*
X130844896Y-99055586D01*
X130821068Y-99079414D01*
X130773413Y-99103241D01*
X130678103Y-99103241D01*
X130630447Y-99079414D01*
X130606620Y-99055586D01*
X130582792Y-99007931D01*
X130996207Y-100940052D02*
X131020035Y-100916224D01*
X131043862Y-100844741D01*
X131043862Y-100797086D01*
X131020035Y-100725603D01*
X130972380Y-100677948D01*
X130924724Y-100654120D01*
X130829414Y-100630292D01*
X130757931Y-100630292D01*
X130662620Y-100654120D01*
X130614965Y-100677948D01*
X130567310Y-100725603D01*
X130543482Y-100797086D01*
X130543482Y-100844741D01*
X130567310Y-100916224D01*
X130591138Y-100940052D01*
X130591138Y-101130672D02*
X130567310Y-101154500D01*
X130543482Y-101202155D01*
X130543482Y-101321293D01*
X130567310Y-101368949D01*
X130591138Y-101392776D01*
X130638793Y-101416604D01*
X130686448Y-101416604D01*
X130757931Y-101392776D01*
X131043862Y-101106845D01*
X131043862Y-101416604D01*
X130591138Y-101607224D02*
X130567310Y-101631052D01*
X130543482Y-101678707D01*
X130543482Y-101797845D01*
X130567310Y-101845501D01*
X130591138Y-101869328D01*
X130638793Y-101893156D01*
X130686448Y-101893156D01*
X130757931Y-101869328D01*
X131043862Y-101583397D01*
X131043862Y-101893156D01*
X130543482Y-102202915D02*
X130543482Y-102250570D01*
X130567310Y-102298225D01*
X130591138Y-102322053D01*
X130638793Y-102345880D01*
X130734103Y-102369708D01*
X130853241Y-102369708D01*
X130948552Y-102345880D01*
X130996207Y-102322053D01*
X131020035Y-102298225D01*
X131043862Y-102250570D01*
X131043862Y-102202915D01*
X131020035Y-102155259D01*
X130996207Y-102131432D01*
X130948552Y-102107604D01*
X130853241Y-102083776D01*
X130734103Y-102083776D01*
X130638793Y-102107604D01*
X130591138Y-102131432D01*
X130567310Y-102155259D01*
X130543482Y-102202915D01*
D13*
X104996786Y-94539405D02*
X105027024Y-94509167D01*
X105057262Y-94418452D01*
X105057262Y-94357976D01*
X105027024Y-94267262D01*
X104966548Y-94206786D01*
X104906071Y-94176547D01*
X104785119Y-94146309D01*
X104694405Y-94146309D01*
X104573452Y-94176547D01*
X104512976Y-94206786D01*
X104452500Y-94267262D01*
X104422262Y-94357976D01*
X104422262Y-94418452D01*
X104452500Y-94509167D01*
X104482738Y-94539405D01*
X104482738Y-94781309D02*
X104452500Y-94811547D01*
X104422262Y-94872024D01*
X104422262Y-95023214D01*
X104452500Y-95083690D01*
X104482738Y-95113928D01*
X104543214Y-95144167D01*
X104603690Y-95144167D01*
X104694405Y-95113928D01*
X105057262Y-94751071D01*
X105057262Y-95144167D01*
X104422262Y-95355833D02*
X104422262Y-95748929D01*
X104664167Y-95537262D01*
X104664167Y-95627976D01*
X104694405Y-95688452D01*
X104724643Y-95718690D01*
X104785119Y-95748929D01*
X104936310Y-95748929D01*
X104996786Y-95718690D01*
X105027024Y-95688452D01*
X105057262Y-95627976D01*
X105057262Y-95446548D01*
X105027024Y-95386071D01*
X104996786Y-95355833D01*
X104633929Y-96293214D02*
X105057262Y-96293214D01*
X104392024Y-96142024D02*
X104845595Y-95990833D01*
X104845595Y-96383929D01*
M02*
