%FSLAX45Y45*%
G04 Gerber Fmt 4.5, Leading zero omitted, Abs format (unit mm)*
G04 Created by KiCad (PCBNEW 4.0.7) date 05/19/18 04:47:22*
%MOMM*%
%LPD*%
G01*
G04 APERTURE LIST*
%ADD10C,0.127000*%
%ADD11C,0.150000*%
%ADD12C,0.200000*%
%ADD13C,0.300000*%
G04 APERTURE END LIST*
D10*
D11*
X8500000Y-6500000D02*
X8500000Y-13800000D01*
X21075000Y-6500000D02*
X8500000Y-6500000D01*
X21075000Y-13800000D02*
X21075000Y-6500000D01*
X8500000Y-13800000D02*
X21075000Y-13800000D01*
D12*
X8870000Y-11870000D02*
X9130000Y-12130000D01*
X9130000Y-11870000D02*
X8870000Y-12130000D01*
X19870000Y-6870000D02*
X20130000Y-7130000D01*
X20130000Y-6870000D02*
X19870000Y-7130000D01*
X19870000Y-12870000D02*
X20130000Y-13130000D01*
X20130000Y-12870000D02*
X19870000Y-13130000D01*
D13*
X8763929Y-14273214D02*
X8763929Y-13973214D01*
X8835357Y-13973214D01*
X8878214Y-13987500D01*
X8906786Y-14016071D01*
X8921071Y-14044643D01*
X8935357Y-14101786D01*
X8935357Y-14144643D01*
X8921071Y-14201786D01*
X8906786Y-14230357D01*
X8878214Y-14258929D01*
X8835357Y-14273214D01*
X8763929Y-14273214D01*
X9063929Y-14273214D02*
X9063929Y-14073214D01*
X9063929Y-14130357D02*
X9078214Y-14101786D01*
X9092500Y-14087500D01*
X9121071Y-14073214D01*
X9149643Y-14073214D01*
X9249643Y-14273214D02*
X9249643Y-14073214D01*
X9249643Y-13973214D02*
X9235357Y-13987500D01*
X9249643Y-14001786D01*
X9263929Y-13987500D01*
X9249643Y-13973214D01*
X9249643Y-14001786D01*
X9435357Y-14273214D02*
X9406786Y-14258929D01*
X9392500Y-14230357D01*
X9392500Y-13973214D01*
X9592500Y-14273214D02*
X9563929Y-14258929D01*
X9549643Y-14230357D01*
X9549643Y-13973214D01*
X9935357Y-14273214D02*
X9935357Y-13973214D01*
X10035357Y-14187500D01*
X10135357Y-13973214D01*
X10135357Y-14273214D01*
X10406786Y-14273214D02*
X10406786Y-14116071D01*
X10392500Y-14087500D01*
X10363929Y-14073214D01*
X10306786Y-14073214D01*
X10278214Y-14087500D01*
X10406786Y-14258929D02*
X10378214Y-14273214D01*
X10306786Y-14273214D01*
X10278214Y-14258929D01*
X10263929Y-14230357D01*
X10263929Y-14201786D01*
X10278214Y-14173214D01*
X10306786Y-14158929D01*
X10378214Y-14158929D01*
X10406786Y-14144643D01*
X10549643Y-14073214D02*
X10549643Y-14373214D01*
X10549643Y-14087500D02*
X10578214Y-14073214D01*
X10635357Y-14073214D01*
X10663929Y-14087500D01*
X10678214Y-14101786D01*
X10692500Y-14130357D01*
X10692500Y-14216071D01*
X10678214Y-14244643D01*
X10663929Y-14258929D01*
X10635357Y-14273214D01*
X10578214Y-14273214D01*
X10549643Y-14258929D01*
X10821071Y-14244643D02*
X10835357Y-14258929D01*
X10821071Y-14273214D01*
X10806786Y-14258929D01*
X10821071Y-14244643D01*
X10821071Y-14273214D01*
X10821071Y-14087500D02*
X10835357Y-14101786D01*
X10821071Y-14116071D01*
X10806786Y-14101786D01*
X10821071Y-14087500D01*
X10821071Y-14116071D01*
X8232500Y-14637500D02*
X8492500Y-14897500D01*
X8492500Y-14637500D02*
X8232500Y-14897500D01*
X8749643Y-14631786D02*
X8763929Y-14617500D01*
X8792500Y-14603214D01*
X8863929Y-14603214D01*
X8892500Y-14617500D01*
X8906786Y-14631786D01*
X8921071Y-14660357D01*
X8921071Y-14688929D01*
X8906786Y-14731786D01*
X8735357Y-14903214D01*
X8921071Y-14903214D01*
X9049643Y-14874643D02*
X9063929Y-14888929D01*
X9049643Y-14903214D01*
X9035357Y-14888929D01*
X9049643Y-14874643D01*
X9049643Y-14903214D01*
X9321071Y-14603214D02*
X9263928Y-14603214D01*
X9235357Y-14617500D01*
X9221071Y-14631786D01*
X9192500Y-14674643D01*
X9178214Y-14731786D01*
X9178214Y-14846071D01*
X9192500Y-14874643D01*
X9206786Y-14888929D01*
X9235357Y-14903214D01*
X9292500Y-14903214D01*
X9321071Y-14888929D01*
X9335357Y-14874643D01*
X9349643Y-14846071D01*
X9349643Y-14774643D01*
X9335357Y-14746071D01*
X9321071Y-14731786D01*
X9292500Y-14717500D01*
X9235357Y-14717500D01*
X9206786Y-14731786D01*
X9192500Y-14746071D01*
X9178214Y-14774643D01*
X9535357Y-14603214D02*
X9563929Y-14603214D01*
X9592500Y-14617500D01*
X9606786Y-14631786D01*
X9621071Y-14660357D01*
X9635357Y-14717500D01*
X9635357Y-14788929D01*
X9621071Y-14846071D01*
X9606786Y-14874643D01*
X9592500Y-14888929D01*
X9563929Y-14903214D01*
X9535357Y-14903214D01*
X9506786Y-14888929D01*
X9492500Y-14874643D01*
X9478214Y-14846071D01*
X9463929Y-14788929D01*
X9463929Y-14717500D01*
X9478214Y-14660357D01*
X9492500Y-14631786D01*
X9506786Y-14617500D01*
X9535357Y-14603214D01*
X9763929Y-14903214D02*
X9763929Y-14703214D01*
X9763929Y-14731786D02*
X9778214Y-14717500D01*
X9806786Y-14703214D01*
X9849643Y-14703214D01*
X9878214Y-14717500D01*
X9892500Y-14746071D01*
X9892500Y-14903214D01*
X9892500Y-14746071D02*
X9906786Y-14717500D01*
X9935357Y-14703214D01*
X9978214Y-14703214D01*
X10006786Y-14717500D01*
X10021071Y-14746071D01*
X10021071Y-14903214D01*
X10163929Y-14903214D02*
X10163929Y-14703214D01*
X10163929Y-14731786D02*
X10178214Y-14717500D01*
X10206786Y-14703214D01*
X10249643Y-14703214D01*
X10278214Y-14717500D01*
X10292500Y-14746071D01*
X10292500Y-14903214D01*
X10292500Y-14746071D02*
X10306786Y-14717500D01*
X10335357Y-14703214D01*
X10378214Y-14703214D01*
X10406786Y-14717500D01*
X10421071Y-14746071D01*
X10421071Y-14903214D01*
X11006786Y-14588929D02*
X10749643Y-14974643D01*
X11392500Y-14603214D02*
X11421071Y-14603214D01*
X11449643Y-14617500D01*
X11463928Y-14631786D01*
X11478214Y-14660357D01*
X11492500Y-14717500D01*
X11492500Y-14788929D01*
X11478214Y-14846071D01*
X11463928Y-14874643D01*
X11449643Y-14888929D01*
X11421071Y-14903214D01*
X11392500Y-14903214D01*
X11363928Y-14888929D01*
X11349643Y-14874643D01*
X11335357Y-14846071D01*
X11321071Y-14788929D01*
X11321071Y-14717500D01*
X11335357Y-14660357D01*
X11349643Y-14631786D01*
X11363928Y-14617500D01*
X11392500Y-14603214D01*
X11621071Y-14874643D02*
X11635357Y-14888929D01*
X11621071Y-14903214D01*
X11606786Y-14888929D01*
X11621071Y-14874643D01*
X11621071Y-14903214D01*
X11921071Y-14903214D02*
X11749643Y-14903214D01*
X11835357Y-14903214D02*
X11835357Y-14603214D01*
X11806785Y-14646071D01*
X11778214Y-14674643D01*
X11749643Y-14688929D01*
X12106785Y-14603214D02*
X12135357Y-14603214D01*
X12163928Y-14617500D01*
X12178214Y-14631786D01*
X12192500Y-14660357D01*
X12206785Y-14717500D01*
X12206785Y-14788929D01*
X12192500Y-14846071D01*
X12178214Y-14874643D01*
X12163928Y-14888929D01*
X12135357Y-14903214D01*
X12106785Y-14903214D01*
X12078214Y-14888929D01*
X12063928Y-14874643D01*
X12049643Y-14846071D01*
X12035357Y-14788929D01*
X12035357Y-14717500D01*
X12049643Y-14660357D01*
X12063928Y-14631786D01*
X12078214Y-14617500D01*
X12106785Y-14603214D01*
X12321071Y-14631786D02*
X12335357Y-14617500D01*
X12363928Y-14603214D01*
X12435357Y-14603214D01*
X12463928Y-14617500D01*
X12478214Y-14631786D01*
X12492500Y-14660357D01*
X12492500Y-14688929D01*
X12478214Y-14731786D01*
X12306785Y-14903214D01*
X12492500Y-14903214D01*
X12606786Y-14603214D02*
X12606786Y-14660357D01*
X12721071Y-14603214D02*
X12721071Y-14660357D01*
X13163928Y-15017500D02*
X13149643Y-15003214D01*
X13121071Y-14960357D01*
X13106785Y-14931786D01*
X13092500Y-14888929D01*
X13078214Y-14817500D01*
X13078214Y-14760357D01*
X13092500Y-14688929D01*
X13106785Y-14646071D01*
X13121071Y-14617500D01*
X13149643Y-14574643D01*
X13163928Y-14560357D01*
X13249643Y-14603214D02*
X13435357Y-14603214D01*
X13335357Y-14717500D01*
X13378214Y-14717500D01*
X13406785Y-14731786D01*
X13421071Y-14746071D01*
X13435357Y-14774643D01*
X13435357Y-14846071D01*
X13421071Y-14874643D01*
X13406785Y-14888929D01*
X13378214Y-14903214D01*
X13292500Y-14903214D01*
X13263928Y-14888929D01*
X13249643Y-14874643D01*
X13792500Y-14903214D02*
X13792500Y-14603214D01*
X13921071Y-14903214D02*
X13921071Y-14746071D01*
X13906785Y-14717500D01*
X13878214Y-14703214D01*
X13835357Y-14703214D01*
X13806785Y-14717500D01*
X13792500Y-14731786D01*
X14106785Y-14903214D02*
X14078214Y-14888929D01*
X14063928Y-14874643D01*
X14049643Y-14846071D01*
X14049643Y-14760357D01*
X14063928Y-14731786D01*
X14078214Y-14717500D01*
X14106785Y-14703214D01*
X14149643Y-14703214D01*
X14178214Y-14717500D01*
X14192500Y-14731786D01*
X14206785Y-14760357D01*
X14206785Y-14846071D01*
X14192500Y-14874643D01*
X14178214Y-14888929D01*
X14149643Y-14903214D01*
X14106785Y-14903214D01*
X14378214Y-14903214D02*
X14349643Y-14888929D01*
X14335357Y-14860357D01*
X14335357Y-14603214D01*
X14606786Y-14888929D02*
X14578214Y-14903214D01*
X14521071Y-14903214D01*
X14492500Y-14888929D01*
X14478214Y-14860357D01*
X14478214Y-14746071D01*
X14492500Y-14717500D01*
X14521071Y-14703214D01*
X14578214Y-14703214D01*
X14606786Y-14717500D01*
X14621071Y-14746071D01*
X14621071Y-14774643D01*
X14478214Y-14803214D01*
X14735357Y-14888929D02*
X14763928Y-14903214D01*
X14821071Y-14903214D01*
X14849643Y-14888929D01*
X14863928Y-14860357D01*
X14863928Y-14846071D01*
X14849643Y-14817500D01*
X14821071Y-14803214D01*
X14778214Y-14803214D01*
X14749643Y-14788929D01*
X14735357Y-14760357D01*
X14735357Y-14746071D01*
X14749643Y-14717500D01*
X14778214Y-14703214D01*
X14821071Y-14703214D01*
X14849643Y-14717500D01*
X14963928Y-15017500D02*
X14978214Y-15003214D01*
X15006786Y-14960357D01*
X15021071Y-14931786D01*
X15035357Y-14888929D01*
X15049643Y-14817500D01*
X15049643Y-14760357D01*
X15035357Y-14688929D01*
X15021071Y-14646071D01*
X15006786Y-14617500D01*
X14978214Y-14574643D01*
X14963928Y-14560357D01*
X15506786Y-15017500D02*
X15492500Y-15003214D01*
X15463928Y-14960357D01*
X15449643Y-14931786D01*
X15435357Y-14888929D01*
X15421071Y-14817500D01*
X15421071Y-14760357D01*
X15435357Y-14688929D01*
X15449643Y-14646071D01*
X15463928Y-14617500D01*
X15492500Y-14574643D01*
X15506786Y-14560357D01*
X15621071Y-14703214D02*
X15621071Y-14903214D01*
X15621071Y-14731786D02*
X15635357Y-14717500D01*
X15663928Y-14703214D01*
X15706786Y-14703214D01*
X15735357Y-14717500D01*
X15749643Y-14746071D01*
X15749643Y-14903214D01*
X15935357Y-14903214D02*
X15906786Y-14888929D01*
X15892500Y-14874643D01*
X15878214Y-14846071D01*
X15878214Y-14760357D01*
X15892500Y-14731786D01*
X15906786Y-14717500D01*
X15935357Y-14703214D01*
X15978214Y-14703214D01*
X16006786Y-14717500D01*
X16021071Y-14731786D01*
X16035357Y-14760357D01*
X16035357Y-14846071D01*
X16021071Y-14874643D01*
X16006786Y-14888929D01*
X15978214Y-14903214D01*
X15935357Y-14903214D01*
X16121071Y-14703214D02*
X16235357Y-14703214D01*
X16163928Y-14603214D02*
X16163928Y-14860357D01*
X16178214Y-14888929D01*
X16206786Y-14903214D01*
X16235357Y-14903214D01*
X16563928Y-14703214D02*
X16563928Y-15003214D01*
X16563928Y-14717500D02*
X16592500Y-14703214D01*
X16649643Y-14703214D01*
X16678214Y-14717500D01*
X16692500Y-14731786D01*
X16706786Y-14760357D01*
X16706786Y-14846071D01*
X16692500Y-14874643D01*
X16678214Y-14888929D01*
X16649643Y-14903214D01*
X16592500Y-14903214D01*
X16563928Y-14888929D01*
X16878214Y-14903214D02*
X16849643Y-14888929D01*
X16835357Y-14860357D01*
X16835357Y-14603214D01*
X17121071Y-14903214D02*
X17121071Y-14746071D01*
X17106786Y-14717500D01*
X17078214Y-14703214D01*
X17021071Y-14703214D01*
X16992500Y-14717500D01*
X17121071Y-14888929D02*
X17092500Y-14903214D01*
X17021071Y-14903214D01*
X16992500Y-14888929D01*
X16978214Y-14860357D01*
X16978214Y-14831786D01*
X16992500Y-14803214D01*
X17021071Y-14788929D01*
X17092500Y-14788929D01*
X17121071Y-14774643D01*
X17221071Y-14703214D02*
X17335357Y-14703214D01*
X17263929Y-14603214D02*
X17263929Y-14860357D01*
X17278214Y-14888929D01*
X17306786Y-14903214D01*
X17335357Y-14903214D01*
X17549643Y-14888929D02*
X17521072Y-14903214D01*
X17463929Y-14903214D01*
X17435357Y-14888929D01*
X17421072Y-14860357D01*
X17421072Y-14746071D01*
X17435357Y-14717500D01*
X17463929Y-14703214D01*
X17521072Y-14703214D01*
X17549643Y-14717500D01*
X17563929Y-14746071D01*
X17563929Y-14774643D01*
X17421072Y-14803214D01*
X17821072Y-14903214D02*
X17821072Y-14603214D01*
X17821072Y-14888929D02*
X17792500Y-14903214D01*
X17735357Y-14903214D01*
X17706786Y-14888929D01*
X17692500Y-14874643D01*
X17678214Y-14846071D01*
X17678214Y-14760357D01*
X17692500Y-14731786D01*
X17706786Y-14717500D01*
X17735357Y-14703214D01*
X17792500Y-14703214D01*
X17821072Y-14717500D01*
X17935357Y-15017500D02*
X17949643Y-15003214D01*
X17978214Y-14960357D01*
X17992500Y-14931786D01*
X18006786Y-14888929D01*
X18021072Y-14817500D01*
X18021072Y-14760357D01*
X18006786Y-14688929D01*
X17992500Y-14646071D01*
X17978214Y-14617500D01*
X17949643Y-14574643D01*
X17935357Y-14560357D01*
M02*
