M48
;DRILL file {KiCad 4.0.7} date 05/19/18 04:47:21
;FORMAT={3:3/ absolute / metric / keep zeros}
FMAT,2
METRIC,TZ
T1C0.200
T2C0.254
T3C0.300
T4C1.000
T5C1.016
%
G90
G05
M71
T1
X140233Y-129750
X140233Y-130750
X141000Y-084500
X141000Y-085500
X141233Y-129750
X141233Y-130750
X142000Y-084500
X142000Y-085500
X144400Y-109750
X144400Y-110750
X145400Y-109750
X145400Y-110750
X150000Y-130750
X150000Y-131750
X151000Y-130750
X151000Y-131750
X151500Y-096000
X151500Y-097500
X151500Y-099000
X151500Y-100500
X152965Y-120584
X152965Y-121584
X152965Y-122584
X152965Y-123584
X153000Y-096000
X153000Y-097500
X153000Y-099000
X153000Y-100500
X153965Y-120584
X153965Y-121584
X153965Y-122584
X153965Y-123584
X154500Y-096000
X154500Y-097500
X154500Y-099000
X154500Y-100500
X154965Y-120584
X154965Y-121584
X154965Y-122584
X154965Y-123584
X155965Y-120584
X155965Y-121584
X155965Y-122584
X155965Y-123584
X156000Y-096000
X156000Y-097500
X156000Y-099000
X156000Y-100500
X162750Y-130500
X162750Y-131500
X163000Y-083000
X163000Y-084000
X163750Y-130500
X163750Y-131500
X164000Y-083000
X164000Y-084000
X168350Y-092600
X168350Y-093400
X168350Y-107100
X168350Y-107900
X169150Y-092600
X169150Y-093400
X169150Y-107100
X169150Y-107900
X170850Y-083000
X171650Y-083000
X177250Y-083050
X178250Y-083050
X189250Y-068250
X189250Y-069250
X190250Y-068250
X190250Y-069250
T2
X086250Y-084500
X087750Y-079250
X088000Y-087250
X088000Y-102000
X088100Y-093700
X089750Y-100000
X089900Y-097700
X090000Y-131000
X090250Y-102500
X090300Y-099600
X090750Y-107750
X091904Y-094749
X092100Y-084700
X092200Y-097750
X092250Y-081000
X092250Y-081750
X092250Y-103500
X092500Y-106500
X093500Y-079500
X093500Y-080250
X093500Y-081000
X093500Y-081750
X093800Y-090700
X094500Y-095250
X094900Y-100300
X095000Y-076500
X095000Y-103750
X095486Y-100295
X095500Y-075750
X095500Y-093700
X096000Y-090700
X096000Y-111000
X096100Y-093700
X096200Y-100300
X096500Y-075750
X096700Y-093700
X096750Y-107000
X096900Y-100300
X097250Y-105000
X097500Y-093700
X097600Y-100300
X097750Y-090000
X098100Y-093700
X098400Y-100300
X098500Y-088500
X098500Y-119600
X098500Y-121900
X098750Y-067750
X099000Y-075250
X099084Y-090500
X099200Y-098500
X099500Y-089600
X099900Y-089000
X100250Y-072500
X100250Y-105250
X100400Y-088500
X100600Y-128500
X100750Y-073500
X101250Y-113500
X101500Y-072750
X101500Y-073500
X101500Y-074250
X101500Y-076000
X101900Y-089800
X102000Y-093100
X102250Y-073500
X102576Y-104744
X103250Y-067250
X103250Y-073250
X103250Y-106000
X103500Y-092000
X103500Y-096200
X103500Y-108250
X103500Y-112250
X104100Y-100100
X104251Y-094749
X104500Y-087250
X104500Y-111500
X104500Y-112500
X105200Y-090400
X105700Y-108000
X106000Y-103250
X106400Y-097700
X107205Y-094205
X108250Y-103250
X108250Y-131000
X108500Y-092900
X108500Y-100183
X109200Y-071500
X109250Y-108000
X109800Y-091100
X110250Y-084500
X110500Y-081250
X110500Y-082000
X110500Y-083000
X110500Y-103300
X110750Y-077000
X110750Y-086750
X110750Y-108000
X110800Y-087400
X111250Y-084250
X111250Y-091750
X111250Y-095750
X111500Y-070250
X111500Y-085500
X111500Y-092331
X111500Y-097250
X111750Y-077000
X111750Y-077750
X111750Y-107750
X112000Y-069000
X112250Y-112500
X112750Y-077000
X112750Y-077750
X113250Y-080000
X113500Y-071500
X113750Y-084500
X113750Y-086500
X114000Y-111250
X114250Y-076250
X114250Y-077250
X114250Y-078750
X114250Y-080000
X114250Y-081250
X114250Y-082750
X114250Y-104750
X114400Y-089800
X114400Y-091800
X114500Y-086000
X114500Y-115500
X114600Y-095700
X114700Y-097400
X114750Y-110250
X115000Y-070250
X115000Y-113750
X115250Y-081500
X115250Y-110250
X115500Y-088400
X115500Y-107500
X115750Y-111500
X115876Y-097200
X116200Y-088700
X116500Y-071500
X116600Y-093800
X116700Y-084300
X116700Y-089300
X116750Y-113750
X116800Y-097200
X116800Y-129900
X117200Y-090300
X117500Y-103500
X117500Y-110500
X117750Y-082000
X117900Y-090700
X118000Y-098750
X118500Y-112500
X118500Y-114250
X118600Y-089800
X118600Y-106900
X119300Y-093400
X119400Y-094200
X119400Y-095400
X119500Y-103500
X119500Y-119750
X120000Y-077250
X120000Y-080000
X120000Y-084100
X120250Y-107000
X120250Y-112500
X120750Y-094500
X120800Y-085600
X120900Y-097400
X121000Y-120750
X121100Y-096000
X121250Y-107000
X121250Y-111500
X121750Y-107500
X121750Y-113000
X121900Y-099200
X122200Y-081800
X122800Y-099200
X123000Y-130200
X123100Y-120800
X123100Y-126800
X123200Y-080900
X123226Y-110500
X123300Y-082900
X123500Y-097250
X123600Y-127600
X124000Y-079800
X124000Y-099200
X124250Y-107750
X124500Y-127500
X124750Y-113000
X124800Y-099200
X125200Y-080500
X125400Y-127500
X125500Y-110500
X125500Y-111354
X125600Y-099200
X125800Y-120800
X125800Y-126800
X126000Y-117750
X126300Y-085000
X126300Y-099200
X126500Y-081700
X126750Y-110250
X127250Y-089500
X127250Y-116500
X127750Y-107250
X128500Y-124000
X128750Y-088500
X128750Y-089500
X129250Y-107250
X129250Y-110500
X129500Y-098750
X129500Y-113750
X129750Y-116250
X130000Y-092000
X130500Y-103500
X130669Y-110500
X131000Y-113750
X131250Y-110500
X131500Y-088500
X131980Y-088990
X132000Y-110750
X132250Y-085000
X132250Y-090750
X132250Y-102750
X132250Y-136000
X132300Y-079900
X132500Y-084500
X132750Y-090000
X133000Y-113750
X133250Y-109000
X133250Y-137000
X133500Y-080000
X133500Y-093750
X133500Y-095750
X133500Y-096750
X133500Y-098750
X133500Y-100250
X134000Y-121500
X136250Y-082750
X136250Y-121500
X136500Y-104750
X136750Y-093500
X136750Y-097250
X137250Y-095183
X137250Y-095817
X137500Y-130250
X137750Y-093500
X138000Y-082250
X138000Y-108750
X138250Y-126500
X138250Y-130750
X138250Y-133500
X138500Y-110750
X138750Y-093500
X138750Y-123250
X139000Y-125250
X139250Y-089750
X139750Y-093500
X139750Y-096750
X140000Y-081500
X140206Y-116000
X140250Y-079750
X140750Y-093500
X141000Y-082750
X141250Y-079000
X141500Y-109500
X141750Y-093500
X141750Y-096500
X142000Y-125750
X142000Y-126500
X142000Y-127250
X142250Y-079750
X142250Y-081750
X142250Y-109500
X142500Y-110500
X142500Y-111000
X142750Y-093500
X142750Y-118250
X142750Y-125750
X142750Y-126500
X142750Y-127250
X143045Y-098795
X143455Y-099205
X143500Y-107000
X143750Y-093500
X144500Y-087000
X144750Y-093500
X145500Y-070000
X145500Y-118250
X146000Y-129750
X146500Y-129000
X146500Y-130500
X146750Y-096959
X146750Y-097541
X147000Y-107250
X147250Y-098250
X147250Y-112500
X147500Y-089250
X148000Y-077500
X148000Y-106750
X148250Y-113250
X148250Y-128000
X148250Y-134500
X148750Y-120000
X148750Y-121000
X148750Y-133500
X149000Y-107250
X149000Y-128750
X149250Y-098500
X149250Y-112500
X149500Y-070000
X149500Y-088750
X150250Y-109500
X150250Y-123000
X150250Y-125000
X150500Y-107750
X150750Y-117500
X151000Y-128750
X151006Y-120834
X151250Y-085250
X151250Y-107250
X151500Y-117500
X151705Y-104955
X151750Y-117000
X152000Y-107750
X152000Y-125250
X152000Y-126000
X152250Y-118250
X152500Y-106250
X152500Y-131000
X153000Y-105250
X153000Y-128000
X153250Y-076750
X153500Y-084500
X153500Y-103750
X153500Y-125750
X153750Y-127750
X153750Y-132000
X154000Y-083750
X154250Y-116500
X154500Y-082500
X154500Y-107750
X154696Y-118572
X154938Y-090476
X155000Y-128250
X155250Y-107250
X155250Y-129500
X155500Y-070000
X155500Y-086500
X155572Y-090476
X156000Y-107750
X156250Y-117000
X156500Y-093500
X156500Y-103250
X157250Y-079250
X157250Y-117250
X157500Y-119500
X157500Y-129750
X157750Y-093500
X158000Y-118250
X158250Y-098000
X158250Y-099000
X158250Y-103750
X158250Y-105000
X158250Y-106000
X158500Y-126250
X158750Y-092750
X158750Y-097500
X158750Y-098500
X159000Y-103000
X159250Y-072500
X159250Y-102000
X160500Y-087000
X160500Y-131500
X160750Y-134500
X161000Y-127090
X161250Y-117000
X161250Y-122500
X162000Y-078500
X162000Y-080500
X162000Y-081250
X162000Y-097750
X162000Y-098750
X162250Y-079750
X162750Y-067500
X162750Y-070000
X163000Y-079750
X163000Y-081250
X163400Y-074200
X164000Y-066000
X164000Y-071500
X164039Y-080405
X164750Y-074750
X165500Y-088000
X165500Y-088500
X165500Y-102500
X165500Y-103500
X165500Y-110500
X165500Y-128750
X166000Y-075250
X166000Y-083250
X166250Y-094250
X166250Y-096000
X166250Y-098000
X166250Y-106250
X166250Y-109500
X166250Y-111500
X166500Y-071500
X166500Y-072750
X166500Y-102500
X166750Y-097000
X166750Y-130000
X167250Y-071500
X167250Y-072750
X168500Y-080250
X168750Y-086000
X169000Y-118300
X169000Y-124000
X169500Y-085000
X170000Y-110500
X170000Y-117900
X170000Y-123700
X170500Y-097000
X170500Y-111500
X170750Y-088750
X170750Y-090750
X170976Y-084947
X171000Y-067500
X171000Y-096000
X171250Y-104500
X171250Y-110500
X171500Y-089750
X171750Y-097000
X172000Y-080000
X172000Y-080750
X173250Y-079000
X173500Y-117900
X173500Y-123700
X174000Y-066250
X174500Y-080750
X174500Y-085000
X174750Y-066500
X175500Y-068250
X175750Y-066500
X176250Y-079000
X176500Y-068750
X176750Y-066500
X176750Y-085250
X177000Y-117900
X177000Y-123700
X177476Y-085000
X177500Y-068750
X177750Y-066500
X178000Y-071000
X178000Y-072250
X178000Y-073500
X178500Y-068750
X180250Y-083250
X180250Y-084500
X180500Y-117900
X180500Y-123700
X180800Y-113400
X181250Y-081500
X181250Y-082250
X182500Y-068750
X182600Y-087500
X182750Y-068000
X182750Y-075500
X183200Y-101900
X183250Y-092250
X183750Y-106250
X184000Y-066500
X184000Y-071000
X184000Y-073750
X184000Y-095000
X184500Y-105500
X184500Y-108750
X185000Y-069250
X185000Y-070000
X185250Y-071250
X185250Y-084250
X185250Y-107323
X185500Y-092750
X186000Y-105500
X186000Y-108750
X186250Y-072000
X186500Y-083000
X186750Y-102750
X186750Y-109750
X187000Y-081500
X187000Y-086500
X187000Y-088250
X187250Y-071250
X187750Y-089500
X187800Y-104700
X188250Y-083000
X188250Y-085750
X190500Y-088000
X190750Y-090000
X191250Y-074500
X191250Y-093250
X191500Y-083000
X191500Y-089250
X191500Y-095000
X191500Y-112250
X191700Y-104400
X191800Y-123000
X192000Y-066250
X192000Y-071500
X192250Y-083500
X192250Y-087250
X192250Y-111750
X192500Y-090500
X193000Y-065500
X193200Y-103000
X193250Y-075500
X193250Y-080250
X193250Y-105000
X193250Y-106500
X193500Y-092500
X193500Y-093500
X193500Y-094500
X193750Y-089750
X193750Y-091250
X194000Y-066250
X194000Y-075000
X194250Y-069250
X194250Y-070000
X194400Y-103800
X194500Y-088750
X194500Y-105750
X194750Y-085250
X195000Y-069250
X195000Y-070000
X196250Y-096750
X196750Y-090750
X197250Y-096750
X197500Y-083000
X197750Y-090750
X198500Y-085000
X199500Y-092500
X199500Y-095000
X201500Y-086750
X201750Y-078500
X202750Y-080000
X202750Y-085750
X203000Y-080750
X203750Y-087750
X203750Y-111250
X203750Y-119750
X204000Y-089750
X204000Y-098250
X204750Y-081000
X206750Y-099500
X206750Y-121250
X207000Y-088500
X207000Y-110000
X209750Y-089750
X209750Y-098250
X209750Y-111250
X210000Y-119750
T3
X195850Y-093100
X195850Y-094400
X197150Y-093100
X197150Y-094400
T5
X122380Y-069210
X122380Y-071750
X124920Y-069210
X124920Y-071750
X127460Y-069210
X127460Y-071750
X130000Y-069210
X130000Y-071750
X132540Y-069210
X132540Y-071750
X135080Y-069210
X135080Y-071750
X137620Y-069210
X137620Y-071750
T4
X087500Y-070000G85X087500Y-072000
G05
X089550Y-075900G85X091550Y-075900
G05
X093500Y-069750G85X093500Y-072250
G05
T0
M30
