%FSLAX45Y45*%
G04 Gerber Fmt 4.5, Leading zero omitted, Abs format (unit mm)*
G04 Created by KiCad (PCBNEW 4.0.7) date 05/19/18 04:47:22*
%MOMM*%
%LPD*%
G01*
G04 APERTURE LIST*
%ADD10C,0.127000*%
%ADD11C,0.150000*%
%ADD12C,0.200000*%
%ADD13C,0.300000*%
G04 APERTURE END LIST*
D10*
D11*
X8500000Y-6500000D02*
X8500000Y-13800000D01*
X21075000Y-6500000D02*
X8500000Y-6500000D01*
X21075000Y-13800000D02*
X21075000Y-6500000D01*
X8500000Y-13800000D02*
X21075000Y-13800000D01*
D12*
X14013284Y-12965000D02*
X14033284Y-12985000D01*
X14033284Y-12965000D02*
X14013284Y-12985000D01*
X14013284Y-13065000D02*
X14033284Y-13085000D01*
X14033284Y-13065000D02*
X14013284Y-13085000D01*
X14090000Y-8440000D02*
X14110000Y-8460000D01*
X14110000Y-8440000D02*
X14090000Y-8460000D01*
X14090000Y-8540000D02*
X14110000Y-8560000D01*
X14110000Y-8540000D02*
X14090000Y-8560000D01*
X14113284Y-12965000D02*
X14133284Y-12985000D01*
X14133284Y-12965000D02*
X14113284Y-12985000D01*
X14113284Y-13065000D02*
X14133284Y-13085000D01*
X14133284Y-13065000D02*
X14113284Y-13085000D01*
X14190000Y-8440000D02*
X14210000Y-8460000D01*
X14210000Y-8440000D02*
X14190000Y-8460000D01*
X14190000Y-8540000D02*
X14210000Y-8560000D01*
X14210000Y-8540000D02*
X14190000Y-8560000D01*
X14430000Y-10965000D02*
X14450000Y-10985000D01*
X14450000Y-10965000D02*
X14430000Y-10985000D01*
X14430000Y-11065000D02*
X14450000Y-11085000D01*
X14450000Y-11065000D02*
X14430000Y-11085000D01*
X14530000Y-10965000D02*
X14550000Y-10985000D01*
X14550000Y-10965000D02*
X14530000Y-10985000D01*
X14530000Y-11065000D02*
X14550000Y-11085000D01*
X14550000Y-11065000D02*
X14530000Y-11085000D01*
X14990000Y-13065000D02*
X15010000Y-13085000D01*
X15010000Y-13065000D02*
X14990000Y-13085000D01*
X14990000Y-13165000D02*
X15010000Y-13185000D01*
X15010000Y-13165000D02*
X14990000Y-13185000D01*
X15090000Y-13065000D02*
X15110000Y-13085000D01*
X15110000Y-13065000D02*
X15090000Y-13085000D01*
X15090000Y-13165000D02*
X15110000Y-13185000D01*
X15110000Y-13165000D02*
X15090000Y-13185000D01*
X15140000Y-9590000D02*
X15160000Y-9610000D01*
X15160000Y-9590000D02*
X15140000Y-9610000D01*
X15140000Y-9740000D02*
X15160000Y-9760000D01*
X15160000Y-9740000D02*
X15140000Y-9760000D01*
X15140000Y-9890000D02*
X15160000Y-9910000D01*
X15160000Y-9890000D02*
X15140000Y-9910000D01*
X15140000Y-10040000D02*
X15160000Y-10060000D01*
X15160000Y-10040000D02*
X15140000Y-10060000D01*
X15286512Y-12048435D02*
X15306512Y-12068435D01*
X15306512Y-12048435D02*
X15286512Y-12068435D01*
X15286512Y-12148435D02*
X15306512Y-12168435D01*
X15306512Y-12148435D02*
X15286512Y-12168435D01*
X15286512Y-12248435D02*
X15306512Y-12268435D01*
X15306512Y-12248435D02*
X15286512Y-12268435D01*
X15286512Y-12348435D02*
X15306512Y-12368435D01*
X15306512Y-12348435D02*
X15286512Y-12368435D01*
X15290000Y-9590000D02*
X15310000Y-9610000D01*
X15310000Y-9590000D02*
X15290000Y-9610000D01*
X15290000Y-9740000D02*
X15310000Y-9760000D01*
X15310000Y-9740000D02*
X15290000Y-9760000D01*
X15290000Y-9890000D02*
X15310000Y-9910000D01*
X15310000Y-9890000D02*
X15290000Y-9910000D01*
X15290000Y-10040000D02*
X15310000Y-10060000D01*
X15310000Y-10040000D02*
X15290000Y-10060000D01*
X15386512Y-12048435D02*
X15406512Y-12068435D01*
X15406512Y-12048435D02*
X15386512Y-12068435D01*
X15386512Y-12148435D02*
X15406512Y-12168435D01*
X15406512Y-12148435D02*
X15386512Y-12168435D01*
X15386512Y-12248435D02*
X15406512Y-12268435D01*
X15406512Y-12248435D02*
X15386512Y-12268435D01*
X15386512Y-12348435D02*
X15406512Y-12368435D01*
X15406512Y-12348435D02*
X15386512Y-12368435D01*
X15440000Y-9590000D02*
X15460000Y-9610000D01*
X15460000Y-9590000D02*
X15440000Y-9610000D01*
X15440000Y-9740000D02*
X15460000Y-9760000D01*
X15460000Y-9740000D02*
X15440000Y-9760000D01*
X15440000Y-9890000D02*
X15460000Y-9910000D01*
X15460000Y-9890000D02*
X15440000Y-9910000D01*
X15440000Y-10040000D02*
X15460000Y-10060000D01*
X15460000Y-10040000D02*
X15440000Y-10060000D01*
X15486512Y-12048435D02*
X15506512Y-12068435D01*
X15506512Y-12048435D02*
X15486512Y-12068435D01*
X15486512Y-12148435D02*
X15506512Y-12168435D01*
X15506512Y-12148435D02*
X15486512Y-12168435D01*
X15486512Y-12248435D02*
X15506512Y-12268435D01*
X15506512Y-12248435D02*
X15486512Y-12268435D01*
X15486512Y-12348435D02*
X15506512Y-12368435D01*
X15506512Y-12348435D02*
X15486512Y-12368435D01*
X15586512Y-12048435D02*
X15606512Y-12068435D01*
X15606512Y-12048435D02*
X15586512Y-12068435D01*
X15586512Y-12148435D02*
X15606512Y-12168435D01*
X15606512Y-12148435D02*
X15586512Y-12168435D01*
X15586512Y-12248435D02*
X15606512Y-12268435D01*
X15606512Y-12248435D02*
X15586512Y-12268435D01*
X15586512Y-12348435D02*
X15606512Y-12368435D01*
X15606512Y-12348435D02*
X15586512Y-12368435D01*
X15590000Y-9590000D02*
X15610000Y-9610000D01*
X15610000Y-9590000D02*
X15590000Y-9610000D01*
X15590000Y-9740000D02*
X15610000Y-9760000D01*
X15610000Y-9740000D02*
X15590000Y-9760000D01*
X15590000Y-9890000D02*
X15610000Y-9910000D01*
X15610000Y-9890000D02*
X15590000Y-9910000D01*
X15590000Y-10040000D02*
X15610000Y-10060000D01*
X15610000Y-10040000D02*
X15590000Y-10060000D01*
X16265000Y-13040000D02*
X16285000Y-13060000D01*
X16285000Y-13040000D02*
X16265000Y-13060000D01*
X16265000Y-13140000D02*
X16285000Y-13160000D01*
X16285000Y-13140000D02*
X16265000Y-13160000D01*
X16290000Y-8290000D02*
X16310000Y-8310000D01*
X16310000Y-8290000D02*
X16290000Y-8310000D01*
X16290000Y-8390000D02*
X16310000Y-8410000D01*
X16310000Y-8390000D02*
X16290000Y-8410000D01*
X16365000Y-13040000D02*
X16385000Y-13060000D01*
X16385000Y-13040000D02*
X16365000Y-13060000D01*
X16365000Y-13140000D02*
X16385000Y-13160000D01*
X16385000Y-13140000D02*
X16365000Y-13160000D01*
X16390000Y-8290000D02*
X16410000Y-8310000D01*
X16410000Y-8290000D02*
X16390000Y-8310000D01*
X16390000Y-8390000D02*
X16410000Y-8410000D01*
X16410000Y-8390000D02*
X16390000Y-8410000D01*
X16825000Y-9250000D02*
X16845000Y-9270000D01*
X16845000Y-9250000D02*
X16825000Y-9270000D01*
X16825000Y-9330000D02*
X16845000Y-9350000D01*
X16845000Y-9330000D02*
X16825000Y-9350000D01*
X16825000Y-10700000D02*
X16845000Y-10720000D01*
X16845000Y-10700000D02*
X16825000Y-10720000D01*
X16825000Y-10780000D02*
X16845000Y-10800000D01*
X16845000Y-10780000D02*
X16825000Y-10800000D01*
X16905000Y-9250000D02*
X16925000Y-9270000D01*
X16925000Y-9250000D02*
X16905000Y-9270000D01*
X16905000Y-9330000D02*
X16925000Y-9350000D01*
X16925000Y-9330000D02*
X16905000Y-9350000D01*
X16905000Y-10700000D02*
X16925000Y-10720000D01*
X16925000Y-10700000D02*
X16905000Y-10720000D01*
X16905000Y-10780000D02*
X16925000Y-10800000D01*
X16925000Y-10780000D02*
X16905000Y-10800000D01*
X17075000Y-8290000D02*
X17095000Y-8310000D01*
X17095000Y-8290000D02*
X17075000Y-8310000D01*
X17155000Y-8290000D02*
X17175000Y-8310000D01*
X17175000Y-8290000D02*
X17155000Y-8310000D01*
X17715000Y-8295000D02*
X17735000Y-8315000D01*
X17735000Y-8295000D02*
X17715000Y-8315000D01*
X17815000Y-8295000D02*
X17835000Y-8315000D01*
X17835000Y-8295000D02*
X17815000Y-8315000D01*
X18915000Y-6815000D02*
X18935000Y-6835000D01*
X18935000Y-6815000D02*
X18915000Y-6835000D01*
X18915000Y-6915000D02*
X18935000Y-6935000D01*
X18935000Y-6915000D02*
X18915000Y-6935000D01*
X19015000Y-6815000D02*
X19035000Y-6835000D01*
X19035000Y-6815000D02*
X19015000Y-6835000D01*
X19015000Y-6915000D02*
X19035000Y-6935000D01*
X19035000Y-6915000D02*
X19015000Y-6935000D01*
X8637700Y-8450000D02*
G75*
G03X8637700Y-8450000I-12700J0D01*
G01*
X8787700Y-7925000D02*
G75*
G03X8787700Y-7925000I-12700J0D01*
G01*
X8812700Y-8725000D02*
G75*
G03X8812700Y-8725000I-12700J0D01*
G01*
X8812700Y-10200000D02*
G75*
G03X8812700Y-10200000I-12700J0D01*
G01*
X8822700Y-9370000D02*
G75*
G03X8822700Y-9370000I-12700J0D01*
G01*
X8987700Y-10000000D02*
G75*
G03X8987700Y-10000000I-12700J0D01*
G01*
X9002700Y-9770000D02*
G75*
G03X9002700Y-9770000I-12700J0D01*
G01*
X9012700Y-13100000D02*
G75*
G03X9012700Y-13100000I-12700J0D01*
G01*
X9037701Y-10250000D02*
G75*
G03X9037701Y-10250000I-12700J0D01*
G01*
X9042700Y-9960000D02*
G75*
G03X9042700Y-9960000I-12700J0D01*
G01*
X9087700Y-10775000D02*
G75*
G03X9087700Y-10775000I-12700J0D01*
G01*
X9203080Y-9474880D02*
G75*
G03X9203080Y-9474880I-12700J0D01*
G01*
X9222700Y-8470000D02*
G75*
G03X9222700Y-8470000I-12700J0D01*
G01*
X9232700Y-9775000D02*
G75*
G03X9232700Y-9775000I-12700J0D01*
G01*
X9237700Y-8100000D02*
G75*
G03X9237700Y-8100000I-12700J0D01*
G01*
X9237700Y-8175000D02*
G75*
G03X9237700Y-8175000I-12700J0D01*
G01*
X9237700Y-10350000D02*
G75*
G03X9237700Y-10350000I-12700J0D01*
G01*
X9262700Y-10650000D02*
G75*
G03X9262700Y-10650000I-12700J0D01*
G01*
X9362700Y-7950000D02*
G75*
G03X9362700Y-7950000I-12700J0D01*
G01*
X9362700Y-8025000D02*
G75*
G03X9362700Y-8025000I-12700J0D01*
G01*
X9362700Y-8100000D02*
G75*
G03X9362700Y-8100000I-12700J0D01*
G01*
X9362700Y-8175000D02*
G75*
G03X9362700Y-8175000I-12700J0D01*
G01*
X9392700Y-9070000D02*
G75*
G03X9392700Y-9070000I-12700J0D01*
G01*
X9462700Y-9525000D02*
G75*
G03X9462700Y-9525000I-12700J0D01*
G01*
X9502700Y-10030000D02*
G75*
G03X9502700Y-10030000I-12700J0D01*
G01*
X9512700Y-7650000D02*
G75*
G03X9512700Y-7650000I-12700J0D01*
G01*
X9512700Y-10375000D02*
G75*
G03X9512700Y-10375000I-12700J0D01*
G01*
X9561272Y-10029528D02*
G75*
G03X9561272Y-10029528I-12700J0D01*
G01*
X9562700Y-7575000D02*
G75*
G03X9562700Y-7575000I-12700J0D01*
G01*
X9562700Y-9370000D02*
G75*
G03X9562700Y-9370000I-12700J0D01*
G01*
X9612700Y-9070000D02*
G75*
G03X9612700Y-9070000I-12700J0D01*
G01*
X9612700Y-11100000D02*
G75*
G03X9612700Y-11100000I-12700J0D01*
G01*
X9622700Y-9370000D02*
G75*
G03X9622700Y-9370000I-12700J0D01*
G01*
X9632700Y-10030000D02*
G75*
G03X9632700Y-10030000I-12700J0D01*
G01*
X9662700Y-7575000D02*
G75*
G03X9662700Y-7575000I-12700J0D01*
G01*
X9682700Y-9370000D02*
G75*
G03X9682700Y-9370000I-12700J0D01*
G01*
X9687700Y-10700000D02*
G75*
G03X9687700Y-10700000I-12700J0D01*
G01*
X9702700Y-10030000D02*
G75*
G03X9702700Y-10030000I-12700J0D01*
G01*
X9737700Y-10500000D02*
G75*
G03X9737700Y-10500000I-12700J0D01*
G01*
X9762700Y-9370000D02*
G75*
G03X9762700Y-9370000I-12700J0D01*
G01*
X9772700Y-10030000D02*
G75*
G03X9772700Y-10030000I-12700J0D01*
G01*
X9787700Y-9000000D02*
G75*
G03X9787700Y-9000000I-12700J0D01*
G01*
X9822700Y-9370000D02*
G75*
G03X9822700Y-9370000I-12700J0D01*
G01*
X9852700Y-10030000D02*
G75*
G03X9852700Y-10030000I-12700J0D01*
G01*
X9862700Y-8850000D02*
G75*
G03X9862700Y-8850000I-12700J0D01*
G01*
X9862700Y-11960000D02*
G75*
G03X9862700Y-11960000I-12700J0D01*
G01*
X9862700Y-12190000D02*
G75*
G03X9862700Y-12190000I-12700J0D01*
G01*
X9887700Y-6775000D02*
G75*
G03X9887700Y-6775000I-12700J0D01*
G01*
X9912700Y-7525000D02*
G75*
G03X9912700Y-7525000I-12700J0D01*
G01*
X9921096Y-9050000D02*
G75*
G03X9921096Y-9050000I-12700J0D01*
G01*
X9932700Y-9850000D02*
G75*
G03X9932700Y-9850000I-12700J0D01*
G01*
X9962700Y-8960000D02*
G75*
G03X9962700Y-8960000I-12700J0D01*
G01*
X10002700Y-8900000D02*
G75*
G03X10002700Y-8900000I-12700J0D01*
G01*
X10037700Y-7250000D02*
G75*
G03X10037700Y-7250000I-12700J0D01*
G01*
X10037700Y-10525000D02*
G75*
G03X10037700Y-10525000I-12700J0D01*
G01*
X10052700Y-8850000D02*
G75*
G03X10052700Y-8850000I-12700J0D01*
G01*
X10072700Y-12850000D02*
G75*
G03X10072700Y-12850000I-12700J0D01*
G01*
X10087700Y-7350000D02*
G75*
G03X10087700Y-7350000I-12700J0D01*
G01*
X10137700Y-11350000D02*
G75*
G03X10137700Y-11350000I-12700J0D01*
G01*
X10162700Y-7275000D02*
G75*
G03X10162700Y-7275000I-12700J0D01*
G01*
X10162700Y-7350000D02*
G75*
G03X10162700Y-7350000I-12700J0D01*
G01*
X10162700Y-7425000D02*
G75*
G03X10162700Y-7425000I-12700J0D01*
G01*
X10162700Y-7600000D02*
G75*
G03X10162700Y-7600000I-12700J0D01*
G01*
X10202700Y-8980000D02*
G75*
G03X10202700Y-8980000I-12700J0D01*
G01*
X10212700Y-9310000D02*
G75*
G03X10212700Y-9310000I-12700J0D01*
G01*
X10237700Y-7350000D02*
G75*
G03X10237700Y-7350000I-12700J0D01*
G01*
X10270341Y-10474409D02*
G75*
G03X10270341Y-10474409I-12700J0D01*
G01*
X10337700Y-6725000D02*
G75*
G03X10337700Y-6725000I-12700J0D01*
G01*
X10337700Y-7325000D02*
G75*
G03X10337700Y-7325000I-12700J0D01*
G01*
X10337700Y-10600000D02*
G75*
G03X10337700Y-10600000I-12700J0D01*
G01*
X10362700Y-9200000D02*
G75*
G03X10362700Y-9200000I-12700J0D01*
G01*
X10362700Y-9620000D02*
G75*
G03X10362700Y-9620000I-12700J0D01*
G01*
X10362700Y-10825000D02*
G75*
G03X10362700Y-10825000I-12700J0D01*
G01*
X10362700Y-11225000D02*
G75*
G03X10362700Y-11225000I-12700J0D01*
G01*
X10422700Y-10010000D02*
G75*
G03X10422700Y-10010000I-12700J0D01*
G01*
X10437820Y-9474880D02*
G75*
G03X10437820Y-9474880I-12700J0D01*
G01*
X10462700Y-8725000D02*
G75*
G03X10462700Y-8725000I-12700J0D01*
G01*
X10462700Y-11150000D02*
G75*
G03X10462700Y-11150000I-12700J0D01*
G01*
X10462700Y-11250000D02*
G75*
G03X10462700Y-11250000I-12700J0D01*
G01*
X10532700Y-9040000D02*
G75*
G03X10532700Y-9040000I-12700J0D01*
G01*
X10582700Y-10800000D02*
G75*
G03X10582700Y-10800000I-12700J0D01*
G01*
X10612700Y-10325000D02*
G75*
G03X10612700Y-10325000I-12700J0D01*
G01*
X10652700Y-9770000D02*
G75*
G03X10652700Y-9770000I-12700J0D01*
G01*
X10733178Y-9420478D02*
G75*
G03X10733178Y-9420478I-12700J0D01*
G01*
X10837700Y-10325000D02*
G75*
G03X10837700Y-10325000I-12700J0D01*
G01*
X10837700Y-13100000D02*
G75*
G03X10837700Y-13100000I-12700J0D01*
G01*
X10862700Y-9290000D02*
G75*
G03X10862700Y-9290000I-12700J0D01*
G01*
X10862700Y-10018250D02*
G75*
G03X10862700Y-10018250I-12700J0D01*
G01*
X10932700Y-7150000D02*
G75*
G03X10932700Y-7150000I-12700J0D01*
G01*
X10937700Y-10800000D02*
G75*
G03X10937700Y-10800000I-12700J0D01*
G01*
X10992700Y-9110000D02*
G75*
G03X10992700Y-9110000I-12700J0D01*
G01*
X11037700Y-8450000D02*
G75*
G03X11037700Y-8450000I-12700J0D01*
G01*
X11062700Y-8125000D02*
G75*
G03X11062700Y-8125000I-12700J0D01*
G01*
X11062700Y-8200000D02*
G75*
G03X11062700Y-8200000I-12700J0D01*
G01*
X11062700Y-8300000D02*
G75*
G03X11062700Y-8300000I-12700J0D01*
G01*
X11062700Y-10330000D02*
G75*
G03X11062700Y-10330000I-12700J0D01*
G01*
X11087700Y-7700000D02*
G75*
G03X11087700Y-7700000I-12700J0D01*
G01*
X11087700Y-8675000D02*
G75*
G03X11087700Y-8675000I-12700J0D01*
G01*
X11087700Y-10800000D02*
G75*
G03X11087700Y-10800000I-12700J0D01*
G01*
X11092700Y-8740000D02*
G75*
G03X11092700Y-8740000I-12700J0D01*
G01*
X11137700Y-8425000D02*
G75*
G03X11137700Y-8425000I-12700J0D01*
G01*
X11137700Y-9175000D02*
G75*
G03X11137700Y-9175000I-12700J0D01*
G01*
X11137700Y-9575000D02*
G75*
G03X11137700Y-9575000I-12700J0D01*
G01*
X11162700Y-7025000D02*
G75*
G03X11162700Y-7025000I-12700J0D01*
G01*
X11162700Y-8550000D02*
G75*
G03X11162700Y-8550000I-12700J0D01*
G01*
X11162700Y-9233101D02*
G75*
G03X11162700Y-9233101I-12700J0D01*
G01*
X11162700Y-9725000D02*
G75*
G03X11162700Y-9725000I-12700J0D01*
G01*
X11187700Y-7700000D02*
G75*
G03X11187700Y-7700000I-12700J0D01*
G01*
X11187700Y-7775000D02*
G75*
G03X11187700Y-7775000I-12700J0D01*
G01*
X11187700Y-10775000D02*
G75*
G03X11187700Y-10775000I-12700J0D01*
G01*
X11212700Y-6900000D02*
G75*
G03X11212700Y-6900000I-12700J0D01*
G01*
X11237700Y-11250000D02*
G75*
G03X11237700Y-11250000I-12700J0D01*
G01*
X11287700Y-7700000D02*
G75*
G03X11287700Y-7700000I-12700J0D01*
G01*
X11287700Y-7775000D02*
G75*
G03X11287700Y-7775000I-12700J0D01*
G01*
X11337700Y-8000000D02*
G75*
G03X11337700Y-8000000I-12700J0D01*
G01*
X11362700Y-7150000D02*
G75*
G03X11362700Y-7150000I-12700J0D01*
G01*
X11387700Y-8450000D02*
G75*
G03X11387700Y-8450000I-12700J0D01*
G01*
X11387700Y-8650000D02*
G75*
G03X11387700Y-8650000I-12700J0D01*
G01*
X11412700Y-11125000D02*
G75*
G03X11412700Y-11125000I-12700J0D01*
G01*
X11437700Y-7625000D02*
G75*
G03X11437700Y-7625000I-12700J0D01*
G01*
X11437700Y-7725000D02*
G75*
G03X11437700Y-7725000I-12700J0D01*
G01*
X11437700Y-7875000D02*
G75*
G03X11437700Y-7875000I-12700J0D01*
G01*
X11437700Y-8000000D02*
G75*
G03X11437700Y-8000000I-12700J0D01*
G01*
X11437700Y-8125000D02*
G75*
G03X11437700Y-8125000I-12700J0D01*
G01*
X11437700Y-8275000D02*
G75*
G03X11437700Y-8275000I-12700J0D01*
G01*
X11437700Y-10475000D02*
G75*
G03X11437700Y-10475000I-12700J0D01*
G01*
X11452700Y-8980000D02*
G75*
G03X11452700Y-8980000I-12700J0D01*
G01*
X11452700Y-9180000D02*
G75*
G03X11452700Y-9180000I-12700J0D01*
G01*
X11462700Y-8600000D02*
G75*
G03X11462700Y-8600000I-12700J0D01*
G01*
X11462700Y-11550000D02*
G75*
G03X11462700Y-11550000I-12700J0D01*
G01*
X11472700Y-9570000D02*
G75*
G03X11472700Y-9570000I-12700J0D01*
G01*
X11482700Y-9740000D02*
G75*
G03X11482700Y-9740000I-12700J0D01*
G01*
X11487700Y-11025000D02*
G75*
G03X11487700Y-11025000I-12700J0D01*
G01*
X11512700Y-7025000D02*
G75*
G03X11512700Y-7025000I-12700J0D01*
G01*
X11512700Y-11375000D02*
G75*
G03X11512700Y-11375000I-12700J0D01*
G01*
X11537700Y-8150000D02*
G75*
G03X11537700Y-8150000I-12700J0D01*
G01*
X11537700Y-11025000D02*
G75*
G03X11537700Y-11025000I-12700J0D01*
G01*
X11562700Y-8840000D02*
G75*
G03X11562700Y-8840000I-12700J0D01*
G01*
X11562700Y-10750000D02*
G75*
G03X11562700Y-10750000I-12700J0D01*
G01*
X11587700Y-11150000D02*
G75*
G03X11587700Y-11150000I-12700J0D01*
G01*
X11600300Y-9720000D02*
G75*
G03X11600300Y-9720000I-12700J0D01*
G01*
X11632700Y-8870000D02*
G75*
G03X11632700Y-8870000I-12700J0D01*
G01*
X11662700Y-7150000D02*
G75*
G03X11662700Y-7150000I-12700J0D01*
G01*
X11672700Y-9380000D02*
G75*
G03X11672700Y-9380000I-12700J0D01*
G01*
X11682700Y-8430000D02*
G75*
G03X11682700Y-8430000I-12700J0D01*
G01*
X11682700Y-8930000D02*
G75*
G03X11682700Y-8930000I-12700J0D01*
G01*
X11687700Y-11375000D02*
G75*
G03X11687700Y-11375000I-12700J0D01*
G01*
X11692700Y-9720000D02*
G75*
G03X11692700Y-9720000I-12700J0D01*
G01*
X11692700Y-12990000D02*
G75*
G03X11692700Y-12990000I-12700J0D01*
G01*
X11732700Y-9030000D02*
G75*
G03X11732700Y-9030000I-12700J0D01*
G01*
X11762700Y-10350000D02*
G75*
G03X11762700Y-10350000I-12700J0D01*
G01*
X11762700Y-11050000D02*
G75*
G03X11762700Y-11050000I-12700J0D01*
G01*
X11787700Y-8200000D02*
G75*
G03X11787700Y-8200000I-12700J0D01*
G01*
X11802700Y-9070000D02*
G75*
G03X11802700Y-9070000I-12700J0D01*
G01*
X11812700Y-9875000D02*
G75*
G03X11812700Y-9875000I-12700J0D01*
G01*
X11862700Y-11250000D02*
G75*
G03X11862700Y-11250000I-12700J0D01*
G01*
X11862700Y-11425000D02*
G75*
G03X11862700Y-11425000I-12700J0D01*
G01*
X11872700Y-8980000D02*
G75*
G03X11872700Y-8980000I-12700J0D01*
G01*
X11872700Y-10690000D02*
G75*
G03X11872700Y-10690000I-12700J0D01*
G01*
X11942700Y-9340000D02*
G75*
G03X11942700Y-9340000I-12700J0D01*
G01*
X11952700Y-9420000D02*
G75*
G03X11952700Y-9420000I-12700J0D01*
G01*
X11952700Y-9540000D02*
G75*
G03X11952700Y-9540000I-12700J0D01*
G01*
X11962700Y-10350000D02*
G75*
G03X11962700Y-10350000I-12700J0D01*
G01*
X11962700Y-11975000D02*
G75*
G03X11962700Y-11975000I-12700J0D01*
G01*
X12012700Y-7725000D02*
G75*
G03X12012700Y-7725000I-12700J0D01*
G01*
X12012700Y-8000000D02*
G75*
G03X12012700Y-8000000I-12700J0D01*
G01*
X12012700Y-8410000D02*
G75*
G03X12012700Y-8410000I-12700J0D01*
G01*
X12037700Y-10700000D02*
G75*
G03X12037700Y-10700000I-12700J0D01*
G01*
X12037700Y-11250000D02*
G75*
G03X12037700Y-11250000I-12700J0D01*
G01*
X12087700Y-9450000D02*
G75*
G03X12087700Y-9450000I-12700J0D01*
G01*
X12092700Y-8560000D02*
G75*
G03X12092700Y-8560000I-12700J0D01*
G01*
X12102700Y-9740000D02*
G75*
G03X12102700Y-9740000I-12700J0D01*
G01*
X12112700Y-12075000D02*
G75*
G03X12112700Y-12075000I-12700J0D01*
G01*
X12122700Y-9600000D02*
G75*
G03X12122700Y-9600000I-12700J0D01*
G01*
X12137700Y-10700000D02*
G75*
G03X12137700Y-10700000I-12700J0D01*
G01*
X12137700Y-11150000D02*
G75*
G03X12137700Y-11150000I-12700J0D01*
G01*
X12187700Y-10750000D02*
G75*
G03X12187700Y-10750000I-12700J0D01*
G01*
X12187700Y-11300000D02*
G75*
G03X12187700Y-11300000I-12700J0D01*
G01*
X12202700Y-9920000D02*
G75*
G03X12202700Y-9920000I-12700J0D01*
G01*
X12232700Y-8180000D02*
G75*
G03X12232700Y-8180000I-12700J0D01*
G01*
X12292700Y-9920000D02*
G75*
G03X12292700Y-9920000I-12700J0D01*
G01*
X12312700Y-13020000D02*
G75*
G03X12312700Y-13020000I-12700J0D01*
G01*
X12322700Y-12080000D02*
G75*
G03X12322700Y-12080000I-12700J0D01*
G01*
X12322700Y-12680000D02*
G75*
G03X12322700Y-12680000I-12700J0D01*
G01*
X12332700Y-8090000D02*
G75*
G03X12332700Y-8090000I-12700J0D01*
G01*
X12335300Y-11050000D02*
G75*
G03X12335300Y-11050000I-12700J0D01*
G01*
X12342700Y-8290000D02*
G75*
G03X12342700Y-8290000I-12700J0D01*
G01*
X12362700Y-9725000D02*
G75*
G03X12362700Y-9725000I-12700J0D01*
G01*
X12372700Y-12760000D02*
G75*
G03X12372700Y-12760000I-12700J0D01*
G01*
X12412700Y-7980000D02*
G75*
G03X12412700Y-7980000I-12700J0D01*
G01*
X12412700Y-9920000D02*
G75*
G03X12412700Y-9920000I-12700J0D01*
G01*
X12437700Y-10775000D02*
G75*
G03X12437700Y-10775000I-12700J0D01*
G01*
X12462700Y-12750000D02*
G75*
G03X12462700Y-12750000I-12700J0D01*
G01*
X12487700Y-11300000D02*
G75*
G03X12487700Y-11300000I-12700J0D01*
G01*
X12492700Y-9920000D02*
G75*
G03X12492700Y-9920000I-12700J0D01*
G01*
X12532700Y-8050000D02*
G75*
G03X12532700Y-8050000I-12700J0D01*
G01*
X12552700Y-12750000D02*
G75*
G03X12552700Y-12750000I-12700J0D01*
G01*
X12562700Y-11050000D02*
G75*
G03X12562700Y-11050000I-12700J0D01*
G01*
X12562700Y-11135400D02*
G75*
G03X12562700Y-11135400I-12700J0D01*
G01*
X12572700Y-9920000D02*
G75*
G03X12572700Y-9920000I-12700J0D01*
G01*
X12592700Y-12080000D02*
G75*
G03X12592700Y-12080000I-12700J0D01*
G01*
X12592700Y-12680000D02*
G75*
G03X12592700Y-12680000I-12700J0D01*
G01*
X12612700Y-11775000D02*
G75*
G03X12612700Y-11775000I-12700J0D01*
G01*
X12642700Y-8500000D02*
G75*
G03X12642700Y-8500000I-12700J0D01*
G01*
X12642700Y-9920000D02*
G75*
G03X12642700Y-9920000I-12700J0D01*
G01*
X12662700Y-8170000D02*
G75*
G03X12662700Y-8170000I-12700J0D01*
G01*
X12687700Y-11025000D02*
G75*
G03X12687700Y-11025000I-12700J0D01*
G01*
X12737700Y-8950000D02*
G75*
G03X12737700Y-8950000I-12700J0D01*
G01*
X12737700Y-11650000D02*
G75*
G03X12737700Y-11650000I-12700J0D01*
G01*
X12787700Y-10725000D02*
G75*
G03X12787700Y-10725000I-12700J0D01*
G01*
X12862700Y-12400000D02*
G75*
G03X12862700Y-12400000I-12700J0D01*
G01*
X12887700Y-8850000D02*
G75*
G03X12887700Y-8850000I-12700J0D01*
G01*
X12887700Y-8950000D02*
G75*
G03X12887700Y-8950000I-12700J0D01*
G01*
X12937700Y-10725000D02*
G75*
G03X12937700Y-10725000I-12700J0D01*
G01*
X12937700Y-11050000D02*
G75*
G03X12937700Y-11050000I-12700J0D01*
G01*
X12962700Y-9875000D02*
G75*
G03X12962700Y-9875000I-12700J0D01*
G01*
X12962700Y-11375000D02*
G75*
G03X12962700Y-11375000I-12700J0D01*
G01*
X12987700Y-11625000D02*
G75*
G03X12987700Y-11625000I-12700J0D01*
G01*
X13012700Y-9200000D02*
G75*
G03X13012700Y-9200000I-12700J0D01*
G01*
X13062700Y-10350000D02*
G75*
G03X13062700Y-10350000I-12700J0D01*
G01*
X13079600Y-11050000D02*
G75*
G03X13079600Y-11050000I-12700J0D01*
G01*
X13112700Y-11375000D02*
G75*
G03X13112700Y-11375000I-12700J0D01*
G01*
X13137700Y-11050000D02*
G75*
G03X13137700Y-11050000I-12700J0D01*
G01*
X13162700Y-8850000D02*
G75*
G03X13162700Y-8850000I-12700J0D01*
G01*
X13210733Y-8899016D02*
G75*
G03X13210733Y-8899016I-12700J0D01*
G01*
X13212700Y-11075000D02*
G75*
G03X13212700Y-11075000I-12700J0D01*
G01*
X13237700Y-8500000D02*
G75*
G03X13237700Y-8500000I-12700J0D01*
G01*
X13237700Y-9075000D02*
G75*
G03X13237700Y-9075000I-12700J0D01*
G01*
X13237700Y-10275000D02*
G75*
G03X13237700Y-10275000I-12700J0D01*
G01*
X13237700Y-13600000D02*
G75*
G03X13237700Y-13600000I-12700J0D01*
G01*
X13242700Y-7990000D02*
G75*
G03X13242700Y-7990000I-12700J0D01*
G01*
X13262700Y-8450000D02*
G75*
G03X13262700Y-8450000I-12700J0D01*
G01*
X13287700Y-9000001D02*
G75*
G03X13287700Y-9000001I-12700J0D01*
G01*
X13312700Y-11375000D02*
G75*
G03X13312700Y-11375000I-12700J0D01*
G01*
X13337700Y-10900000D02*
G75*
G03X13337700Y-10900000I-12700J0D01*
G01*
X13337700Y-13700000D02*
G75*
G03X13337700Y-13700000I-12700J0D01*
G01*
X13362700Y-8000000D02*
G75*
G03X13362700Y-8000000I-12700J0D01*
G01*
X13362700Y-9375000D02*
G75*
G03X13362700Y-9375000I-12700J0D01*
G01*
X13362700Y-9575000D02*
G75*
G03X13362700Y-9575000I-12700J0D01*
G01*
X13362700Y-9675000D02*
G75*
G03X13362700Y-9675000I-12700J0D01*
G01*
X13362700Y-9875000D02*
G75*
G03X13362700Y-9875000I-12700J0D01*
G01*
X13362700Y-10025000D02*
G75*
G03X13362700Y-10025000I-12700J0D01*
G01*
X13412700Y-12150000D02*
G75*
G03X13412700Y-12150000I-12700J0D01*
G01*
X13637700Y-8275000D02*
G75*
G03X13637700Y-8275000I-12700J0D01*
G01*
X13637700Y-12150000D02*
G75*
G03X13637700Y-12150000I-12700J0D01*
G01*
X13662700Y-10475000D02*
G75*
G03X13662700Y-10475000I-12700J0D01*
G01*
X13687700Y-9350000D02*
G75*
G03X13687700Y-9350000I-12700J0D01*
G01*
X13687700Y-9725000D02*
G75*
G03X13687700Y-9725000I-12700J0D01*
G01*
X13737700Y-9518300D02*
G75*
G03X13737700Y-9518300I-12700J0D01*
G01*
X13737700Y-9581700D02*
G75*
G03X13737700Y-9581700I-12700J0D01*
G01*
X13762700Y-13025000D02*
G75*
G03X13762700Y-13025000I-12700J0D01*
G01*
X13787700Y-9350000D02*
G75*
G03X13787700Y-9350000I-12700J0D01*
G01*
X13812700Y-8225000D02*
G75*
G03X13812700Y-8225000I-12700J0D01*
G01*
X13812700Y-10875000D02*
G75*
G03X13812700Y-10875000I-12700J0D01*
G01*
X13837700Y-12650000D02*
G75*
G03X13837700Y-12650000I-12700J0D01*
G01*
X13837700Y-13075000D02*
G75*
G03X13837700Y-13075000I-12700J0D01*
G01*
X13837700Y-13350000D02*
G75*
G03X13837700Y-13350000I-12700J0D01*
G01*
X13862700Y-11075000D02*
G75*
G03X13862700Y-11075000I-12700J0D01*
G01*
X13887700Y-9350000D02*
G75*
G03X13887700Y-9350000I-12700J0D01*
G01*
X13887700Y-12325000D02*
G75*
G03X13887700Y-12325000I-12700J0D01*
G01*
X13912700Y-12525000D02*
G75*
G03X13912700Y-12525000I-12700J0D01*
G01*
X13937700Y-8975000D02*
G75*
G03X13937700Y-8975000I-12700J0D01*
G01*
X13987700Y-9350000D02*
G75*
G03X13987700Y-9350000I-12700J0D01*
G01*
X13987700Y-9675000D02*
G75*
G03X13987700Y-9675000I-12700J0D01*
G01*
X14012700Y-8150000D02*
G75*
G03X14012700Y-8150000I-12700J0D01*
G01*
X14033284Y-11600000D02*
G75*
G03X14033284Y-11600000I-12700J0D01*
G01*
X14037700Y-7975000D02*
G75*
G03X14037700Y-7975000I-12700J0D01*
G01*
X14087700Y-9350000D02*
G75*
G03X14087700Y-9350000I-12700J0D01*
G01*
X14112700Y-8275000D02*
G75*
G03X14112700Y-8275000I-12700J0D01*
G01*
X14137700Y-7900000D02*
G75*
G03X14137700Y-7900000I-12700J0D01*
G01*
X14162700Y-10950000D02*
G75*
G03X14162700Y-10950000I-12700J0D01*
G01*
X14187700Y-9350000D02*
G75*
G03X14187700Y-9350000I-12700J0D01*
G01*
X14187700Y-9650000D02*
G75*
G03X14187700Y-9650000I-12700J0D01*
G01*
X14212700Y-12575000D02*
G75*
G03X14212700Y-12575000I-12700J0D01*
G01*
X14212700Y-12650000D02*
G75*
G03X14212700Y-12650000I-12700J0D01*
G01*
X14212700Y-12725000D02*
G75*
G03X14212700Y-12725000I-12700J0D01*
G01*
X14237700Y-7975000D02*
G75*
G03X14237700Y-7975000I-12700J0D01*
G01*
X14237700Y-8175000D02*
G75*
G03X14237700Y-8175000I-12700J0D01*
G01*
X14237700Y-10950000D02*
G75*
G03X14237700Y-10950000I-12700J0D01*
G01*
X14262700Y-11050000D02*
G75*
G03X14262700Y-11050000I-12700J0D01*
G01*
X14262700Y-11100000D02*
G75*
G03X14262700Y-11100000I-12700J0D01*
G01*
X14287700Y-9350000D02*
G75*
G03X14287700Y-9350000I-12700J0D01*
G01*
X14287700Y-11825000D02*
G75*
G03X14287700Y-11825000I-12700J0D01*
G01*
X14287700Y-12575000D02*
G75*
G03X14287700Y-12575000I-12700J0D01*
G01*
X14287700Y-12650000D02*
G75*
G03X14287700Y-12650000I-12700J0D01*
G01*
X14287700Y-12725000D02*
G75*
G03X14287700Y-12725000I-12700J0D01*
G01*
X14317159Y-9879459D02*
G75*
G03X14317159Y-9879459I-12700J0D01*
G01*
X14358241Y-9920541D02*
G75*
G03X14358241Y-9920541I-12700J0D01*
G01*
X14362700Y-10700000D02*
G75*
G03X14362700Y-10700000I-12700J0D01*
G01*
X14387700Y-9350000D02*
G75*
G03X14387700Y-9350000I-12700J0D01*
G01*
X14462700Y-8700000D02*
G75*
G03X14462700Y-8700000I-12700J0D01*
G01*
X14487700Y-9350000D02*
G75*
G03X14487700Y-9350000I-12700J0D01*
G01*
X14562700Y-7000000D02*
G75*
G03X14562700Y-7000000I-12700J0D01*
G01*
X14562700Y-11825000D02*
G75*
G03X14562700Y-11825000I-12700J0D01*
G01*
X14612700Y-12975000D02*
G75*
G03X14612700Y-12975000I-12700J0D01*
G01*
X14662700Y-12900000D02*
G75*
G03X14662700Y-12900000I-12700J0D01*
G01*
X14662700Y-13050000D02*
G75*
G03X14662700Y-13050000I-12700J0D01*
G01*
X14687700Y-9695950D02*
G75*
G03X14687700Y-9695950I-12700J0D01*
G01*
X14687700Y-9754050D02*
G75*
G03X14687700Y-9754050I-12700J0D01*
G01*
X14712700Y-10725000D02*
G75*
G03X14712700Y-10725000I-12700J0D01*
G01*
X14737700Y-9825000D02*
G75*
G03X14737700Y-9825000I-12700J0D01*
G01*
X14737700Y-11250000D02*
G75*
G03X14737700Y-11250000I-12700J0D01*
G01*
X14762700Y-8925000D02*
G75*
G03X14762700Y-8925000I-12700J0D01*
G01*
X14812700Y-7750000D02*
G75*
G03X14812700Y-7750000I-12700J0D01*
G01*
X14812700Y-10675000D02*
G75*
G03X14812700Y-10675000I-12700J0D01*
G01*
X14837700Y-11325000D02*
G75*
G03X14837700Y-11325000I-12700J0D01*
G01*
X14837700Y-12800000D02*
G75*
G03X14837700Y-12800000I-12700J0D01*
G01*
X14837700Y-13450000D02*
G75*
G03X14837700Y-13450000I-12700J0D01*
G01*
X14887700Y-12000000D02*
G75*
G03X14887700Y-12000000I-12700J0D01*
G01*
X14887700Y-12100000D02*
G75*
G03X14887700Y-12100000I-12700J0D01*
G01*
X14887700Y-13350000D02*
G75*
G03X14887700Y-13350000I-12700J0D01*
G01*
X14912700Y-10725000D02*
G75*
G03X14912700Y-10725000I-12700J0D01*
G01*
X14912700Y-12875000D02*
G75*
G03X14912700Y-12875000I-12700J0D01*
G01*
X14937700Y-9850000D02*
G75*
G03X14937700Y-9850000I-12700J0D01*
G01*
X14937700Y-11250000D02*
G75*
G03X14937700Y-11250000I-12700J0D01*
G01*
X14962700Y-7000000D02*
G75*
G03X14962700Y-7000000I-12700J0D01*
G01*
X14962700Y-8875000D02*
G75*
G03X14962700Y-8875000I-12700J0D01*
G01*
X15037700Y-10950000D02*
G75*
G03X15037700Y-10950000I-12700J0D01*
G01*
X15037700Y-12300000D02*
G75*
G03X15037700Y-12300000I-12700J0D01*
G01*
X15037700Y-12500000D02*
G75*
G03X15037700Y-12500000I-12700J0D01*
G01*
X15062700Y-10775000D02*
G75*
G03X15062700Y-10775000I-12700J0D01*
G01*
X15087700Y-11750000D02*
G75*
G03X15087700Y-11750000I-12700J0D01*
G01*
X15112700Y-12875000D02*
G75*
G03X15112700Y-12875000I-12700J0D01*
G01*
X15113265Y-12083435D02*
G75*
G03X15113265Y-12083435I-12700J0D01*
G01*
X15137700Y-8525000D02*
G75*
G03X15137700Y-8525000I-12700J0D01*
G01*
X15137700Y-10725000D02*
G75*
G03X15137700Y-10725000I-12700J0D01*
G01*
X15162700Y-11750000D02*
G75*
G03X15162700Y-11750000I-12700J0D01*
G01*
X15183178Y-10495478D02*
G75*
G03X15183178Y-10495478I-12700J0D01*
G01*
X15187700Y-11700000D02*
G75*
G03X15187700Y-11700000I-12700J0D01*
G01*
X15212700Y-10775000D02*
G75*
G03X15212700Y-10775000I-12700J0D01*
G01*
X15212700Y-12525000D02*
G75*
G03X15212700Y-12525000I-12700J0D01*
G01*
X15212700Y-12600000D02*
G75*
G03X15212700Y-12600000I-12700J0D01*
G01*
X15237700Y-11825000D02*
G75*
G03X15237700Y-11825000I-12700J0D01*
G01*
X15262700Y-10625000D02*
G75*
G03X15262700Y-10625000I-12700J0D01*
G01*
X15262700Y-13100000D02*
G75*
G03X15262700Y-13100000I-12700J0D01*
G01*
X15312700Y-10525000D02*
G75*
G03X15312700Y-10525000I-12700J0D01*
G01*
X15312700Y-12800000D02*
G75*
G03X15312700Y-12800000I-12700J0D01*
G01*
X15337700Y-7675000D02*
G75*
G03X15337700Y-7675000I-12700J0D01*
G01*
X15362700Y-8450000D02*
G75*
G03X15362700Y-8450000I-12700J0D01*
G01*
X15362700Y-10375000D02*
G75*
G03X15362700Y-10375000I-12700J0D01*
G01*
X15362700Y-12575000D02*
G75*
G03X15362700Y-12575000I-12700J0D01*
G01*
X15387700Y-12775000D02*
G75*
G03X15387700Y-12775000I-12700J0D01*
G01*
X15387700Y-13200000D02*
G75*
G03X15387700Y-13200000I-12700J0D01*
G01*
X15412700Y-8375000D02*
G75*
G03X15412700Y-8375000I-12700J0D01*
G01*
X15437700Y-11650000D02*
G75*
G03X15437700Y-11650000I-12700J0D01*
G01*
X15462700Y-8250000D02*
G75*
G03X15462700Y-8250000I-12700J0D01*
G01*
X15462700Y-10775000D02*
G75*
G03X15462700Y-10775000I-12700J0D01*
G01*
X15482308Y-11857246D02*
G75*
G03X15482308Y-11857246I-12700J0D01*
G01*
X15506493Y-9047621D02*
G75*
G03X15506493Y-9047621I-12700J0D01*
G01*
X15512700Y-12825000D02*
G75*
G03X15512700Y-12825000I-12700J0D01*
G01*
X15537700Y-10725000D02*
G75*
G03X15537700Y-10725000I-12700J0D01*
G01*
X15537700Y-12950000D02*
G75*
G03X15537700Y-12950000I-12700J0D01*
G01*
X15562700Y-7000000D02*
G75*
G03X15562700Y-7000000I-12700J0D01*
G01*
X15562700Y-8650000D02*
G75*
G03X15562700Y-8650000I-12700J0D01*
G01*
X15569893Y-9047621D02*
G75*
G03X15569893Y-9047621I-12700J0D01*
G01*
X15612700Y-10775000D02*
G75*
G03X15612700Y-10775000I-12700J0D01*
G01*
X15637700Y-11700000D02*
G75*
G03X15637700Y-11700000I-12700J0D01*
G01*
X15662700Y-9350000D02*
G75*
G03X15662700Y-9350000I-12700J0D01*
G01*
X15662700Y-10325000D02*
G75*
G03X15662700Y-10325000I-12700J0D01*
G01*
X15737700Y-7925000D02*
G75*
G03X15737700Y-7925000I-12700J0D01*
G01*
X15737700Y-11725000D02*
G75*
G03X15737700Y-11725000I-12700J0D01*
G01*
X15762700Y-11950000D02*
G75*
G03X15762700Y-11950000I-12700J0D01*
G01*
X15762700Y-12975000D02*
G75*
G03X15762700Y-12975000I-12700J0D01*
G01*
X15787700Y-9350000D02*
G75*
G03X15787700Y-9350000I-12700J0D01*
G01*
X15812700Y-11825000D02*
G75*
G03X15812700Y-11825000I-12700J0D01*
G01*
X15837700Y-9800000D02*
G75*
G03X15837700Y-9800000I-12700J0D01*
G01*
X15837700Y-9900000D02*
G75*
G03X15837700Y-9900000I-12700J0D01*
G01*
X15837700Y-10375000D02*
G75*
G03X15837700Y-10375000I-12700J0D01*
G01*
X15837700Y-10500000D02*
G75*
G03X15837700Y-10500000I-12700J0D01*
G01*
X15837700Y-10600000D02*
G75*
G03X15837700Y-10600000I-12700J0D01*
G01*
X15862700Y-12625000D02*
G75*
G03X15862700Y-12625000I-12700J0D01*
G01*
X15887700Y-9275000D02*
G75*
G03X15887700Y-9275000I-12700J0D01*
G01*
X15887700Y-9750000D02*
G75*
G03X15887700Y-9750000I-12700J0D01*
G01*
X15887700Y-9850000D02*
G75*
G03X15887700Y-9850000I-12700J0D01*
G01*
X15912700Y-10300000D02*
G75*
G03X15912700Y-10300000I-12700J0D01*
G01*
X15937700Y-7250000D02*
G75*
G03X15937700Y-7250000I-12700J0D01*
G01*
X15937700Y-10200000D02*
G75*
G03X15937700Y-10200000I-12700J0D01*
G01*
X16062700Y-8700000D02*
G75*
G03X16062700Y-8700000I-12700J0D01*
G01*
X16062700Y-13150000D02*
G75*
G03X16062700Y-13150000I-12700J0D01*
G01*
X16087700Y-13450000D02*
G75*
G03X16087700Y-13450000I-12700J0D01*
G01*
X16112700Y-12709000D02*
G75*
G03X16112700Y-12709000I-12700J0D01*
G01*
X16137700Y-11700000D02*
G75*
G03X16137700Y-11700000I-12700J0D01*
G01*
X16137700Y-12250000D02*
G75*
G03X16137700Y-12250000I-12700J0D01*
G01*
X16212700Y-7850000D02*
G75*
G03X16212700Y-7850000I-12700J0D01*
G01*
X16212700Y-8050000D02*
G75*
G03X16212700Y-8050000I-12700J0D01*
G01*
X16212700Y-8125000D02*
G75*
G03X16212700Y-8125000I-12700J0D01*
G01*
X16212700Y-9775000D02*
G75*
G03X16212700Y-9775000I-12700J0D01*
G01*
X16212700Y-9875000D02*
G75*
G03X16212700Y-9875000I-12700J0D01*
G01*
X16237700Y-7975000D02*
G75*
G03X16237700Y-7975000I-12700J0D01*
G01*
X16287700Y-6750000D02*
G75*
G03X16287700Y-6750000I-12700J0D01*
G01*
X16287700Y-7000000D02*
G75*
G03X16287700Y-7000000I-12700J0D01*
G01*
X16312700Y-7975000D02*
G75*
G03X16312700Y-7975000I-12700J0D01*
G01*
X16312700Y-8125000D02*
G75*
G03X16312700Y-8125000I-12700J0D01*
G01*
X16352700Y-7420000D02*
G75*
G03X16352700Y-7420000I-12700J0D01*
G01*
X16412700Y-6600000D02*
G75*
G03X16412700Y-6600000I-12700J0D01*
G01*
X16412700Y-7150000D02*
G75*
G03X16412700Y-7150000I-12700J0D01*
G01*
X16416550Y-8040500D02*
G75*
G03X16416550Y-8040500I-12700J0D01*
G01*
X16487700Y-7475000D02*
G75*
G03X16487700Y-7475000I-12700J0D01*
G01*
X16562700Y-8800000D02*
G75*
G03X16562700Y-8800000I-12700J0D01*
G01*
X16562700Y-8850000D02*
G75*
G03X16562700Y-8850000I-12700J0D01*
G01*
X16562700Y-10250000D02*
G75*
G03X16562700Y-10250000I-12700J0D01*
G01*
X16562700Y-10350000D02*
G75*
G03X16562700Y-10350000I-12700J0D01*
G01*
X16562700Y-11050000D02*
G75*
G03X16562700Y-11050000I-12700J0D01*
G01*
X16562700Y-12875000D02*
G75*
G03X16562700Y-12875000I-12700J0D01*
G01*
X16612700Y-7525000D02*
G75*
G03X16612700Y-7525000I-12700J0D01*
G01*
X16612700Y-8325000D02*
G75*
G03X16612700Y-8325000I-12700J0D01*
G01*
X16637700Y-9425000D02*
G75*
G03X16637700Y-9425000I-12700J0D01*
G01*
X16637700Y-9600000D02*
G75*
G03X16637700Y-9600000I-12700J0D01*
G01*
X16637700Y-9800000D02*
G75*
G03X16637700Y-9800000I-12700J0D01*
G01*
X16637700Y-10625000D02*
G75*
G03X16637700Y-10625000I-12700J0D01*
G01*
X16637700Y-10950000D02*
G75*
G03X16637700Y-10950000I-12700J0D01*
G01*
X16637700Y-11150000D02*
G75*
G03X16637700Y-11150000I-12700J0D01*
G01*
X16662700Y-7150000D02*
G75*
G03X16662700Y-7150000I-12700J0D01*
G01*
X16662700Y-7275000D02*
G75*
G03X16662700Y-7275000I-12700J0D01*
G01*
X16662700Y-10250000D02*
G75*
G03X16662700Y-10250000I-12700J0D01*
G01*
X16687700Y-9700000D02*
G75*
G03X16687700Y-9700000I-12700J0D01*
G01*
X16687700Y-13000000D02*
G75*
G03X16687700Y-13000000I-12700J0D01*
G01*
X16737700Y-7150000D02*
G75*
G03X16737700Y-7150000I-12700J0D01*
G01*
X16737700Y-7275000D02*
G75*
G03X16737700Y-7275000I-12700J0D01*
G01*
X16862700Y-8025000D02*
G75*
G03X16862700Y-8025000I-12700J0D01*
G01*
X16887700Y-8600000D02*
G75*
G03X16887700Y-8600000I-12700J0D01*
G01*
X16912700Y-11830000D02*
G75*
G03X16912700Y-11830000I-12700J0D01*
G01*
X16912700Y-12400000D02*
G75*
G03X16912700Y-12400000I-12700J0D01*
G01*
X16962700Y-8500000D02*
G75*
G03X16962700Y-8500000I-12700J0D01*
G01*
X17012700Y-11050000D02*
G75*
G03X17012700Y-11050000I-12700J0D01*
G01*
X17012700Y-11790000D02*
G75*
G03X17012700Y-11790000I-12700J0D01*
G01*
X17012700Y-12370000D02*
G75*
G03X17012700Y-12370000I-12700J0D01*
G01*
X17062700Y-9700000D02*
G75*
G03X17062700Y-9700000I-12700J0D01*
G01*
X17062700Y-11150000D02*
G75*
G03X17062700Y-11150000I-12700J0D01*
G01*
X17087700Y-8875000D02*
G75*
G03X17087700Y-8875000I-12700J0D01*
G01*
X17087700Y-9075000D02*
G75*
G03X17087700Y-9075000I-12700J0D01*
G01*
X17110300Y-8494750D02*
G75*
G03X17110300Y-8494750I-12700J0D01*
G01*
X17112700Y-6750000D02*
G75*
G03X17112700Y-6750000I-12700J0D01*
G01*
X17112700Y-9600000D02*
G75*
G03X17112700Y-9600000I-12700J0D01*
G01*
X17137700Y-10450000D02*
G75*
G03X17137700Y-10450000I-12700J0D01*
G01*
X17137700Y-11050000D02*
G75*
G03X17137700Y-11050000I-12700J0D01*
G01*
X17162700Y-8975000D02*
G75*
G03X17162700Y-8975000I-12700J0D01*
G01*
X17187700Y-9700000D02*
G75*
G03X17187700Y-9700000I-12700J0D01*
G01*
X17212700Y-8000000D02*
G75*
G03X17212700Y-8000000I-12700J0D01*
G01*
X17212700Y-8075000D02*
G75*
G03X17212700Y-8075000I-12700J0D01*
G01*
X17337700Y-7900000D02*
G75*
G03X17337700Y-7900000I-12700J0D01*
G01*
X17362700Y-11790000D02*
G75*
G03X17362700Y-11790000I-12700J0D01*
G01*
X17362700Y-12370000D02*
G75*
G03X17362700Y-12370000I-12700J0D01*
G01*
X17412700Y-6625000D02*
G75*
G03X17412700Y-6625000I-12700J0D01*
G01*
X17462700Y-8075000D02*
G75*
G03X17462700Y-8075000I-12700J0D01*
G01*
X17462700Y-8500000D02*
G75*
G03X17462700Y-8500000I-12700J0D01*
G01*
X17487700Y-6650000D02*
G75*
G03X17487700Y-6650000I-12700J0D01*
G01*
X17562700Y-6825000D02*
G75*
G03X17562700Y-6825000I-12700J0D01*
G01*
X17587700Y-6650000D02*
G75*
G03X17587700Y-6650000I-12700J0D01*
G01*
X17637700Y-7900000D02*
G75*
G03X17637700Y-7900000I-12700J0D01*
G01*
X17662700Y-6875000D02*
G75*
G03X17662700Y-6875000I-12700J0D01*
G01*
X17687700Y-6650000D02*
G75*
G03X17687700Y-6650000I-12700J0D01*
G01*
X17687700Y-8525000D02*
G75*
G03X17687700Y-8525000I-12700J0D01*
G01*
X17712700Y-11790000D02*
G75*
G03X17712700Y-11790000I-12700J0D01*
G01*
X17712700Y-12370000D02*
G75*
G03X17712700Y-12370000I-12700J0D01*
G01*
X17760300Y-8500000D02*
G75*
G03X17760300Y-8500000I-12700J0D01*
G01*
X17762700Y-6875000D02*
G75*
G03X17762700Y-6875000I-12700J0D01*
G01*
X17787700Y-6650000D02*
G75*
G03X17787700Y-6650000I-12700J0D01*
G01*
X17812700Y-7100000D02*
G75*
G03X17812700Y-7100000I-12700J0D01*
G01*
X17812700Y-7225000D02*
G75*
G03X17812700Y-7225000I-12700J0D01*
G01*
X17812700Y-7350000D02*
G75*
G03X17812700Y-7350000I-12700J0D01*
G01*
X17862700Y-6875000D02*
G75*
G03X17862700Y-6875000I-12700J0D01*
G01*
X18037700Y-8325000D02*
G75*
G03X18037700Y-8325000I-12700J0D01*
G01*
X18037700Y-8450000D02*
G75*
G03X18037700Y-8450000I-12700J0D01*
G01*
X18062700Y-11790000D02*
G75*
G03X18062700Y-11790000I-12700J0D01*
G01*
X18062700Y-12370000D02*
G75*
G03X18062700Y-12370000I-12700J0D01*
G01*
X18092700Y-11340000D02*
G75*
G03X18092700Y-11340000I-12700J0D01*
G01*
X18137700Y-8150000D02*
G75*
G03X18137700Y-8150000I-12700J0D01*
G01*
X18137700Y-8225000D02*
G75*
G03X18137700Y-8225000I-12700J0D01*
G01*
X18262700Y-6875000D02*
G75*
G03X18262700Y-6875000I-12700J0D01*
G01*
X18272700Y-8750000D02*
G75*
G03X18272700Y-8750000I-12700J0D01*
G01*
X18287700Y-6800000D02*
G75*
G03X18287700Y-6800000I-12700J0D01*
G01*
X18287700Y-7550000D02*
G75*
G03X18287700Y-7550000I-12700J0D01*
G01*
X18332700Y-10190000D02*
G75*
G03X18332700Y-10190000I-12700J0D01*
G01*
X18337700Y-9225000D02*
G75*
G03X18337700Y-9225000I-12700J0D01*
G01*
X18387700Y-10625000D02*
G75*
G03X18387700Y-10625000I-12700J0D01*
G01*
X18412700Y-6650000D02*
G75*
G03X18412700Y-6650000I-12700J0D01*
G01*
X18412700Y-7100000D02*
G75*
G03X18412700Y-7100000I-12700J0D01*
G01*
X18412700Y-7375000D02*
G75*
G03X18412700Y-7375000I-12700J0D01*
G01*
X18412700Y-9500000D02*
G75*
G03X18412700Y-9500000I-12700J0D01*
G01*
X18462700Y-10550000D02*
G75*
G03X18462700Y-10550000I-12700J0D01*
G01*
X18462700Y-10875000D02*
G75*
G03X18462700Y-10875000I-12700J0D01*
G01*
X18512700Y-6925000D02*
G75*
G03X18512700Y-6925000I-12700J0D01*
G01*
X18512700Y-7000000D02*
G75*
G03X18512700Y-7000000I-12700J0D01*
G01*
X18537700Y-7125000D02*
G75*
G03X18537700Y-7125000I-12700J0D01*
G01*
X18537700Y-8425000D02*
G75*
G03X18537700Y-8425000I-12700J0D01*
G01*
X18537700Y-10732300D02*
G75*
G03X18537700Y-10732300I-12700J0D01*
G01*
X18562700Y-9275000D02*
G75*
G03X18562700Y-9275000I-12700J0D01*
G01*
X18612700Y-10550000D02*
G75*
G03X18612700Y-10550000I-12700J0D01*
G01*
X18612700Y-10875000D02*
G75*
G03X18612700Y-10875000I-12700J0D01*
G01*
X18637700Y-7200000D02*
G75*
G03X18637700Y-7200000I-12700J0D01*
G01*
X18662700Y-8300000D02*
G75*
G03X18662700Y-8300000I-12700J0D01*
G01*
X18687700Y-10275000D02*
G75*
G03X18687700Y-10275000I-12700J0D01*
G01*
X18687700Y-10975000D02*
G75*
G03X18687700Y-10975000I-12700J0D01*
G01*
X18712700Y-8150000D02*
G75*
G03X18712700Y-8150000I-12700J0D01*
G01*
X18712700Y-8650000D02*
G75*
G03X18712700Y-8650000I-12700J0D01*
G01*
X18712700Y-8825000D02*
G75*
G03X18712700Y-8825000I-12700J0D01*
G01*
X18737700Y-7125000D02*
G75*
G03X18737700Y-7125000I-12700J0D01*
G01*
X18787700Y-8950000D02*
G75*
G03X18787700Y-8950000I-12700J0D01*
G01*
X18792700Y-10470000D02*
G75*
G03X18792700Y-10470000I-12700J0D01*
G01*
X18837700Y-8300000D02*
G75*
G03X18837700Y-8300000I-12700J0D01*
G01*
X18837700Y-8575000D02*
G75*
G03X18837700Y-8575000I-12700J0D01*
G01*
X19062700Y-8800000D02*
G75*
G03X19062700Y-8800000I-12700J0D01*
G01*
X19087700Y-9000000D02*
G75*
G03X19087700Y-9000000I-12700J0D01*
G01*
X19137700Y-7450000D02*
G75*
G03X19137700Y-7450000I-12700J0D01*
G01*
X19137700Y-9325000D02*
G75*
G03X19137700Y-9325000I-12700J0D01*
G01*
X19162700Y-8300000D02*
G75*
G03X19162700Y-8300000I-12700J0D01*
G01*
X19162700Y-8925000D02*
G75*
G03X19162700Y-8925000I-12700J0D01*
G01*
X19162700Y-9500000D02*
G75*
G03X19162700Y-9500000I-12700J0D01*
G01*
X19162700Y-11225000D02*
G75*
G03X19162700Y-11225000I-12700J0D01*
G01*
X19182700Y-10440000D02*
G75*
G03X19182700Y-10440000I-12700J0D01*
G01*
X19192700Y-12300000D02*
G75*
G03X19192700Y-12300000I-12700J0D01*
G01*
X19212700Y-6625000D02*
G75*
G03X19212700Y-6625000I-12700J0D01*
G01*
X19212700Y-7150000D02*
G75*
G03X19212700Y-7150000I-12700J0D01*
G01*
X19237700Y-8350000D02*
G75*
G03X19237700Y-8350000I-12700J0D01*
G01*
X19237700Y-8725000D02*
G75*
G03X19237700Y-8725000I-12700J0D01*
G01*
X19237700Y-11175000D02*
G75*
G03X19237700Y-11175000I-12700J0D01*
G01*
X19262700Y-9050000D02*
G75*
G03X19262700Y-9050000I-12700J0D01*
G01*
X19312700Y-6550000D02*
G75*
G03X19312700Y-6550000I-12700J0D01*
G01*
X19332700Y-10300000D02*
G75*
G03X19332700Y-10300000I-12700J0D01*
G01*
X19337700Y-7550000D02*
G75*
G03X19337700Y-7550000I-12700J0D01*
G01*
X19337700Y-8025000D02*
G75*
G03X19337700Y-8025000I-12700J0D01*
G01*
X19337700Y-10500000D02*
G75*
G03X19337700Y-10500000I-12700J0D01*
G01*
X19337700Y-10650000D02*
G75*
G03X19337700Y-10650000I-12700J0D01*
G01*
X19362700Y-9250000D02*
G75*
G03X19362700Y-9250000I-12700J0D01*
G01*
X19362700Y-9350000D02*
G75*
G03X19362700Y-9350000I-12700J0D01*
G01*
X19362700Y-9450000D02*
G75*
G03X19362700Y-9450000I-12700J0D01*
G01*
X19387700Y-8975000D02*
G75*
G03X19387700Y-8975000I-12700J0D01*
G01*
X19387700Y-9125000D02*
G75*
G03X19387700Y-9125000I-12700J0D01*
G01*
X19412700Y-6625000D02*
G75*
G03X19412700Y-6625000I-12700J0D01*
G01*
X19412700Y-7500000D02*
G75*
G03X19412700Y-7500000I-12700J0D01*
G01*
X19437700Y-6925000D02*
G75*
G03X19437700Y-6925000I-12700J0D01*
G01*
X19437700Y-7000000D02*
G75*
G03X19437700Y-7000000I-12700J0D01*
G01*
X19452700Y-10380000D02*
G75*
G03X19452700Y-10380000I-12700J0D01*
G01*
X19462700Y-8875000D02*
G75*
G03X19462700Y-8875000I-12700J0D01*
G01*
X19462700Y-10575000D02*
G75*
G03X19462700Y-10575000I-12700J0D01*
G01*
X19487700Y-8525000D02*
G75*
G03X19487700Y-8525000I-12700J0D01*
G01*
X19512700Y-6925000D02*
G75*
G03X19512700Y-6925000I-12700J0D01*
G01*
X19512700Y-7000000D02*
G75*
G03X19512700Y-7000000I-12700J0D01*
G01*
X19637700Y-9675000D02*
G75*
G03X19637700Y-9675000I-12700J0D01*
G01*
X19687700Y-9075000D02*
G75*
G03X19687700Y-9075000I-12700J0D01*
G01*
X19737700Y-9675000D02*
G75*
G03X19737700Y-9675000I-12700J0D01*
G01*
X19762700Y-8300000D02*
G75*
G03X19762700Y-8300000I-12700J0D01*
G01*
X19787700Y-9075000D02*
G75*
G03X19787700Y-9075000I-12700J0D01*
G01*
X19862700Y-8500000D02*
G75*
G03X19862700Y-8500000I-12700J0D01*
G01*
X19962700Y-9250000D02*
G75*
G03X19962700Y-9250000I-12700J0D01*
G01*
X19962700Y-9500000D02*
G75*
G03X19962700Y-9500000I-12700J0D01*
G01*
X20162700Y-8675000D02*
G75*
G03X20162700Y-8675000I-12700J0D01*
G01*
X20187700Y-7850000D02*
G75*
G03X20187700Y-7850000I-12700J0D01*
G01*
X20287700Y-8000000D02*
G75*
G03X20287700Y-8000000I-12700J0D01*
G01*
X20287700Y-8575000D02*
G75*
G03X20287700Y-8575000I-12700J0D01*
G01*
X20312700Y-8075000D02*
G75*
G03X20312700Y-8075000I-12700J0D01*
G01*
X20387700Y-8775000D02*
G75*
G03X20387700Y-8775000I-12700J0D01*
G01*
X20387700Y-11125000D02*
G75*
G03X20387700Y-11125000I-12700J0D01*
G01*
X20387700Y-11975000D02*
G75*
G03X20387700Y-11975000I-12700J0D01*
G01*
X20412700Y-8975000D02*
G75*
G03X20412700Y-8975000I-12700J0D01*
G01*
X20412700Y-9825000D02*
G75*
G03X20412700Y-9825000I-12700J0D01*
G01*
X20487700Y-8100000D02*
G75*
G03X20487700Y-8100000I-12700J0D01*
G01*
X20687700Y-9950000D02*
G75*
G03X20687700Y-9950000I-12700J0D01*
G01*
X20687700Y-12125000D02*
G75*
G03X20687700Y-12125000I-12700J0D01*
G01*
X20712700Y-8850000D02*
G75*
G03X20712700Y-8850000I-12700J0D01*
G01*
X20712700Y-11000000D02*
G75*
G03X20712700Y-11000000I-12700J0D01*
G01*
X20987700Y-8975000D02*
G75*
G03X20987700Y-8975000I-12700J0D01*
G01*
X20987700Y-9825000D02*
G75*
G03X20987700Y-9825000I-12700J0D01*
G01*
X20987700Y-11125000D02*
G75*
G03X20987700Y-11125000I-12700J0D01*
G01*
X21012700Y-11975000D02*
G75*
G03X21012700Y-11975000I-12700J0D01*
G01*
X19585000Y-9295000D02*
X19585000Y-9325000D01*
X19570000Y-9310000D02*
X19600000Y-9310000D01*
X19585000Y-9425000D02*
X19585000Y-9455000D01*
X19570000Y-9440000D02*
X19600000Y-9440000D01*
X19715000Y-9295000D02*
X19715000Y-9325000D01*
X19700000Y-9310000D02*
X19730000Y-9310000D01*
X19715000Y-9425000D02*
X19715000Y-9455000D01*
X19700000Y-9440000D02*
X19730000Y-9440000D01*
X8785356Y-7135356D02*
X8785356Y-7064644D01*
X8714644Y-7064644D01*
X8714644Y-7135356D01*
X8785356Y-7135356D01*
X8710000Y-7000000D02*
X8710000Y-7200000D01*
X8790000Y-7000000D02*
X8790000Y-7200000D01*
X8710000Y-7200000D02*
G75*
G03X8790000Y-7200000I40000J0D01*
G01*
X8790000Y-7000000D02*
G75*
G03X8710000Y-7000000I-40000J0D01*
G01*
X9090356Y-7625356D02*
X9090356Y-7554644D01*
X9019644Y-7554644D01*
X9019644Y-7625356D01*
X9090356Y-7625356D01*
X8955000Y-7630000D02*
X9155000Y-7630000D01*
X8955000Y-7550000D02*
X9155000Y-7550000D01*
X9155000Y-7630000D02*
G75*
G03X9155000Y-7550000I0J40000D01*
G01*
X8955000Y-7550000D02*
G75*
G03X8955000Y-7630000I0J-40000D01*
G01*
X9385356Y-7135356D02*
X9385356Y-7064644D01*
X9314644Y-7064644D01*
X9314644Y-7135356D01*
X9385356Y-7135356D01*
X9310000Y-6975000D02*
X9310000Y-7225000D01*
X9390000Y-6975000D02*
X9390000Y-7225000D01*
X9310000Y-7225000D02*
G75*
G03X9390000Y-7225000I40000J0D01*
G01*
X9390000Y-6975000D02*
G75*
G03X9310000Y-6975000I-40000J0D01*
G01*
X12238000Y-6971800D02*
X12288800Y-6921000D01*
X12238000Y-6870200D01*
X12187200Y-6921000D01*
X12238000Y-6971800D01*
X12238000Y-7225800D02*
X12288800Y-7175000D01*
X12238000Y-7124200D01*
X12187200Y-7175000D01*
X12238000Y-7225800D01*
X12492000Y-6971800D02*
X12542800Y-6921000D01*
X12492000Y-6870200D01*
X12441200Y-6921000D01*
X12492000Y-6971800D01*
X12492000Y-7225800D02*
X12542800Y-7175000D01*
X12492000Y-7124200D01*
X12441200Y-7175000D01*
X12492000Y-7225800D01*
X12746000Y-6971800D02*
X12796800Y-6921000D01*
X12746000Y-6870200D01*
X12695200Y-6921000D01*
X12746000Y-6971800D01*
X12746000Y-7225800D02*
X12796800Y-7175000D01*
X12746000Y-7124200D01*
X12695200Y-7175000D01*
X12746000Y-7225800D01*
X13000000Y-6971800D02*
X13050800Y-6921000D01*
X13000000Y-6870200D01*
X12949200Y-6921000D01*
X13000000Y-6971800D01*
X13000000Y-7225800D02*
X13050800Y-7175000D01*
X13000000Y-7124200D01*
X12949200Y-7175000D01*
X13000000Y-7225800D01*
X13254000Y-6971800D02*
X13304800Y-6921000D01*
X13254000Y-6870200D01*
X13203200Y-6921000D01*
X13254000Y-6971800D01*
X13254000Y-7225800D02*
X13304800Y-7175000D01*
X13254000Y-7124200D01*
X13203200Y-7175000D01*
X13254000Y-7225800D01*
X13508000Y-6971800D02*
X13558800Y-6921000D01*
X13508000Y-6870200D01*
X13457200Y-6921000D01*
X13508000Y-6971800D01*
X13508000Y-7225800D02*
X13558800Y-7175000D01*
X13508000Y-7124200D01*
X13457200Y-7175000D01*
X13508000Y-7225800D01*
X13762000Y-6971800D02*
X13812800Y-6921000D01*
X13762000Y-6870200D01*
X13711200Y-6921000D01*
X13762000Y-6971800D01*
X13762000Y-7225800D02*
X13812800Y-7175000D01*
X13762000Y-7124200D01*
X13711200Y-7175000D01*
X13762000Y-7225800D01*
D13*
X8763929Y-14273214D02*
X8763929Y-13973214D01*
X8835357Y-13973214D01*
X8878214Y-13987500D01*
X8906786Y-14016071D01*
X8921071Y-14044643D01*
X8935357Y-14101786D01*
X8935357Y-14144643D01*
X8921071Y-14201786D01*
X8906786Y-14230357D01*
X8878214Y-14258929D01*
X8835357Y-14273214D01*
X8763929Y-14273214D01*
X9063929Y-14273214D02*
X9063929Y-14073214D01*
X9063929Y-14130357D02*
X9078214Y-14101786D01*
X9092500Y-14087500D01*
X9121071Y-14073214D01*
X9149643Y-14073214D01*
X9249643Y-14273214D02*
X9249643Y-14073214D01*
X9249643Y-13973214D02*
X9235357Y-13987500D01*
X9249643Y-14001786D01*
X9263929Y-13987500D01*
X9249643Y-13973214D01*
X9249643Y-14001786D01*
X9435357Y-14273214D02*
X9406786Y-14258929D01*
X9392500Y-14230357D01*
X9392500Y-13973214D01*
X9592500Y-14273214D02*
X9563929Y-14258929D01*
X9549643Y-14230357D01*
X9549643Y-13973214D01*
X9935357Y-14273214D02*
X9935357Y-13973214D01*
X10035357Y-14187500D01*
X10135357Y-13973214D01*
X10135357Y-14273214D01*
X10406786Y-14273214D02*
X10406786Y-14116071D01*
X10392500Y-14087500D01*
X10363929Y-14073214D01*
X10306786Y-14073214D01*
X10278214Y-14087500D01*
X10406786Y-14258929D02*
X10378214Y-14273214D01*
X10306786Y-14273214D01*
X10278214Y-14258929D01*
X10263929Y-14230357D01*
X10263929Y-14201786D01*
X10278214Y-14173214D01*
X10306786Y-14158929D01*
X10378214Y-14158929D01*
X10406786Y-14144643D01*
X10549643Y-14073214D02*
X10549643Y-14373214D01*
X10549643Y-14087500D02*
X10578214Y-14073214D01*
X10635357Y-14073214D01*
X10663929Y-14087500D01*
X10678214Y-14101786D01*
X10692500Y-14130357D01*
X10692500Y-14216071D01*
X10678214Y-14244643D01*
X10663929Y-14258929D01*
X10635357Y-14273214D01*
X10578214Y-14273214D01*
X10549643Y-14258929D01*
X10821071Y-14244643D02*
X10835357Y-14258929D01*
X10821071Y-14273214D01*
X10806786Y-14258929D01*
X10821071Y-14244643D01*
X10821071Y-14273214D01*
X10821071Y-14087500D02*
X10835357Y-14101786D01*
X10821071Y-14116071D01*
X10806786Y-14101786D01*
X10821071Y-14087500D01*
X10821071Y-14116071D01*
X8472500Y-14757500D02*
X8492500Y-14777500D01*
X8492500Y-14757500D02*
X8472500Y-14777500D01*
X8821071Y-14603214D02*
X8849643Y-14603214D01*
X8878214Y-14617500D01*
X8892500Y-14631786D01*
X8906786Y-14660357D01*
X8921071Y-14717500D01*
X8921071Y-14788929D01*
X8906786Y-14846071D01*
X8892500Y-14874643D01*
X8878214Y-14888929D01*
X8849643Y-14903214D01*
X8821071Y-14903214D01*
X8792500Y-14888929D01*
X8778214Y-14874643D01*
X8763929Y-14846071D01*
X8749643Y-14788929D01*
X8749643Y-14717500D01*
X8763929Y-14660357D01*
X8778214Y-14631786D01*
X8792500Y-14617500D01*
X8821071Y-14603214D01*
X9049643Y-14874643D02*
X9063929Y-14888929D01*
X9049643Y-14903214D01*
X9035357Y-14888929D01*
X9049643Y-14874643D01*
X9049643Y-14903214D01*
X9178214Y-14631786D02*
X9192500Y-14617500D01*
X9221071Y-14603214D01*
X9292500Y-14603214D01*
X9321071Y-14617500D01*
X9335357Y-14631786D01*
X9349643Y-14660357D01*
X9349643Y-14688929D01*
X9335357Y-14731786D01*
X9163928Y-14903214D01*
X9349643Y-14903214D01*
X9535357Y-14603214D02*
X9563929Y-14603214D01*
X9592500Y-14617500D01*
X9606786Y-14631786D01*
X9621071Y-14660357D01*
X9635357Y-14717500D01*
X9635357Y-14788929D01*
X9621071Y-14846071D01*
X9606786Y-14874643D01*
X9592500Y-14888929D01*
X9563929Y-14903214D01*
X9535357Y-14903214D01*
X9506786Y-14888929D01*
X9492500Y-14874643D01*
X9478214Y-14846071D01*
X9463929Y-14788929D01*
X9463929Y-14717500D01*
X9478214Y-14660357D01*
X9492500Y-14631786D01*
X9506786Y-14617500D01*
X9535357Y-14603214D01*
X9763929Y-14903214D02*
X9763929Y-14703214D01*
X9763929Y-14731786D02*
X9778214Y-14717500D01*
X9806786Y-14703214D01*
X9849643Y-14703214D01*
X9878214Y-14717500D01*
X9892500Y-14746071D01*
X9892500Y-14903214D01*
X9892500Y-14746071D02*
X9906786Y-14717500D01*
X9935357Y-14703214D01*
X9978214Y-14703214D01*
X10006786Y-14717500D01*
X10021071Y-14746071D01*
X10021071Y-14903214D01*
X10163929Y-14903214D02*
X10163929Y-14703214D01*
X10163929Y-14731786D02*
X10178214Y-14717500D01*
X10206786Y-14703214D01*
X10249643Y-14703214D01*
X10278214Y-14717500D01*
X10292500Y-14746071D01*
X10292500Y-14903214D01*
X10292500Y-14746071D02*
X10306786Y-14717500D01*
X10335357Y-14703214D01*
X10378214Y-14703214D01*
X10406786Y-14717500D01*
X10421071Y-14746071D01*
X10421071Y-14903214D01*
X11006786Y-14588929D02*
X10749643Y-14974643D01*
X11392500Y-14603214D02*
X11421071Y-14603214D01*
X11449643Y-14617500D01*
X11463928Y-14631786D01*
X11478214Y-14660357D01*
X11492500Y-14717500D01*
X11492500Y-14788929D01*
X11478214Y-14846071D01*
X11463928Y-14874643D01*
X11449643Y-14888929D01*
X11421071Y-14903214D01*
X11392500Y-14903214D01*
X11363928Y-14888929D01*
X11349643Y-14874643D01*
X11335357Y-14846071D01*
X11321071Y-14788929D01*
X11321071Y-14717500D01*
X11335357Y-14660357D01*
X11349643Y-14631786D01*
X11363928Y-14617500D01*
X11392500Y-14603214D01*
X11621071Y-14874643D02*
X11635357Y-14888929D01*
X11621071Y-14903214D01*
X11606786Y-14888929D01*
X11621071Y-14874643D01*
X11621071Y-14903214D01*
X11821071Y-14603214D02*
X11849643Y-14603214D01*
X11878214Y-14617500D01*
X11892500Y-14631786D01*
X11906785Y-14660357D01*
X11921071Y-14717500D01*
X11921071Y-14788929D01*
X11906785Y-14846071D01*
X11892500Y-14874643D01*
X11878214Y-14888929D01*
X11849643Y-14903214D01*
X11821071Y-14903214D01*
X11792500Y-14888929D01*
X11778214Y-14874643D01*
X11763928Y-14846071D01*
X11749643Y-14788929D01*
X11749643Y-14717500D01*
X11763928Y-14660357D01*
X11778214Y-14631786D01*
X11792500Y-14617500D01*
X11821071Y-14603214D01*
X12106785Y-14603214D02*
X12135357Y-14603214D01*
X12163928Y-14617500D01*
X12178214Y-14631786D01*
X12192500Y-14660357D01*
X12206785Y-14717500D01*
X12206785Y-14788929D01*
X12192500Y-14846071D01*
X12178214Y-14874643D01*
X12163928Y-14888929D01*
X12135357Y-14903214D01*
X12106785Y-14903214D01*
X12078214Y-14888929D01*
X12063928Y-14874643D01*
X12049643Y-14846071D01*
X12035357Y-14788929D01*
X12035357Y-14717500D01*
X12049643Y-14660357D01*
X12063928Y-14631786D01*
X12078214Y-14617500D01*
X12106785Y-14603214D01*
X12378214Y-14731786D02*
X12349643Y-14717500D01*
X12335357Y-14703214D01*
X12321071Y-14674643D01*
X12321071Y-14660357D01*
X12335357Y-14631786D01*
X12349643Y-14617500D01*
X12378214Y-14603214D01*
X12435357Y-14603214D01*
X12463928Y-14617500D01*
X12478214Y-14631786D01*
X12492500Y-14660357D01*
X12492500Y-14674643D01*
X12478214Y-14703214D01*
X12463928Y-14717500D01*
X12435357Y-14731786D01*
X12378214Y-14731786D01*
X12349643Y-14746071D01*
X12335357Y-14760357D01*
X12321071Y-14788929D01*
X12321071Y-14846071D01*
X12335357Y-14874643D01*
X12349643Y-14888929D01*
X12378214Y-14903214D01*
X12435357Y-14903214D01*
X12463928Y-14888929D01*
X12478214Y-14874643D01*
X12492500Y-14846071D01*
X12492500Y-14788929D01*
X12478214Y-14760357D01*
X12463928Y-14746071D01*
X12435357Y-14731786D01*
X12606786Y-14603214D02*
X12606786Y-14660357D01*
X12721071Y-14603214D02*
X12721071Y-14660357D01*
X13163928Y-15017500D02*
X13149643Y-15003214D01*
X13121071Y-14960357D01*
X13106785Y-14931786D01*
X13092500Y-14888929D01*
X13078214Y-14817500D01*
X13078214Y-14760357D01*
X13092500Y-14688929D01*
X13106785Y-14646071D01*
X13121071Y-14617500D01*
X13149643Y-14574643D01*
X13163928Y-14560357D01*
X13249643Y-14603214D02*
X13449643Y-14603214D01*
X13321071Y-14903214D01*
X13549643Y-14631786D02*
X13563928Y-14617500D01*
X13592500Y-14603214D01*
X13663928Y-14603214D01*
X13692500Y-14617500D01*
X13706785Y-14631786D01*
X13721071Y-14660357D01*
X13721071Y-14688929D01*
X13706785Y-14731786D01*
X13535357Y-14903214D01*
X13721071Y-14903214D01*
X14078214Y-14903214D02*
X14078214Y-14603214D01*
X14206785Y-14903214D02*
X14206785Y-14746071D01*
X14192500Y-14717500D01*
X14163928Y-14703214D01*
X14121071Y-14703214D01*
X14092500Y-14717500D01*
X14078214Y-14731786D01*
X14392500Y-14903214D02*
X14363928Y-14888929D01*
X14349643Y-14874643D01*
X14335357Y-14846071D01*
X14335357Y-14760357D01*
X14349643Y-14731786D01*
X14363928Y-14717500D01*
X14392500Y-14703214D01*
X14435357Y-14703214D01*
X14463928Y-14717500D01*
X14478214Y-14731786D01*
X14492500Y-14760357D01*
X14492500Y-14846071D01*
X14478214Y-14874643D01*
X14463928Y-14888929D01*
X14435357Y-14903214D01*
X14392500Y-14903214D01*
X14663928Y-14903214D02*
X14635357Y-14888929D01*
X14621071Y-14860357D01*
X14621071Y-14603214D01*
X14892500Y-14888929D02*
X14863928Y-14903214D01*
X14806786Y-14903214D01*
X14778214Y-14888929D01*
X14763928Y-14860357D01*
X14763928Y-14746071D01*
X14778214Y-14717500D01*
X14806786Y-14703214D01*
X14863928Y-14703214D01*
X14892500Y-14717500D01*
X14906786Y-14746071D01*
X14906786Y-14774643D01*
X14763928Y-14803214D01*
X15021071Y-14888929D02*
X15049643Y-14903214D01*
X15106786Y-14903214D01*
X15135357Y-14888929D01*
X15149643Y-14860357D01*
X15149643Y-14846071D01*
X15135357Y-14817500D01*
X15106786Y-14803214D01*
X15063928Y-14803214D01*
X15035357Y-14788929D01*
X15021071Y-14760357D01*
X15021071Y-14746071D01*
X15035357Y-14717500D01*
X15063928Y-14703214D01*
X15106786Y-14703214D01*
X15135357Y-14717500D01*
X15249643Y-15017500D02*
X15263928Y-15003214D01*
X15292500Y-14960357D01*
X15306786Y-14931786D01*
X15321071Y-14888929D01*
X15335357Y-14817500D01*
X15335357Y-14760357D01*
X15321071Y-14688929D01*
X15306786Y-14646071D01*
X15292500Y-14617500D01*
X15263928Y-14574643D01*
X15249643Y-14560357D01*
X8492500Y-15163500D02*
G75*
G03X8492500Y-15163500I-12700J0D01*
G01*
X8821071Y-14999214D02*
X8849643Y-14999214D01*
X8878214Y-15013500D01*
X8892500Y-15027786D01*
X8906786Y-15056357D01*
X8921071Y-15113500D01*
X8921071Y-15184929D01*
X8906786Y-15242071D01*
X8892500Y-15270643D01*
X8878214Y-15284929D01*
X8849643Y-15299214D01*
X8821071Y-15299214D01*
X8792500Y-15284929D01*
X8778214Y-15270643D01*
X8763929Y-15242071D01*
X8749643Y-15184929D01*
X8749643Y-15113500D01*
X8763929Y-15056357D01*
X8778214Y-15027786D01*
X8792500Y-15013500D01*
X8821071Y-14999214D01*
X9049643Y-15270643D02*
X9063929Y-15284929D01*
X9049643Y-15299214D01*
X9035357Y-15284929D01*
X9049643Y-15270643D01*
X9049643Y-15299214D01*
X9178214Y-15027786D02*
X9192500Y-15013500D01*
X9221071Y-14999214D01*
X9292500Y-14999214D01*
X9321071Y-15013500D01*
X9335357Y-15027786D01*
X9349643Y-15056357D01*
X9349643Y-15084929D01*
X9335357Y-15127786D01*
X9163928Y-15299214D01*
X9349643Y-15299214D01*
X9621071Y-14999214D02*
X9478214Y-14999214D01*
X9463929Y-15142071D01*
X9478214Y-15127786D01*
X9506786Y-15113500D01*
X9578214Y-15113500D01*
X9606786Y-15127786D01*
X9621071Y-15142071D01*
X9635357Y-15170643D01*
X9635357Y-15242071D01*
X9621071Y-15270643D01*
X9606786Y-15284929D01*
X9578214Y-15299214D01*
X9506786Y-15299214D01*
X9478214Y-15284929D01*
X9463929Y-15270643D01*
X9763929Y-15299214D02*
X9763929Y-15099214D01*
X9763929Y-15127786D02*
X9778214Y-15113500D01*
X9806786Y-15099214D01*
X9849643Y-15099214D01*
X9878214Y-15113500D01*
X9892500Y-15142071D01*
X9892500Y-15299214D01*
X9892500Y-15142071D02*
X9906786Y-15113500D01*
X9935357Y-15099214D01*
X9978214Y-15099214D01*
X10006786Y-15113500D01*
X10021071Y-15142071D01*
X10021071Y-15299214D01*
X10163929Y-15299214D02*
X10163929Y-15099214D01*
X10163929Y-15127786D02*
X10178214Y-15113500D01*
X10206786Y-15099214D01*
X10249643Y-15099214D01*
X10278214Y-15113500D01*
X10292500Y-15142071D01*
X10292500Y-15299214D01*
X10292500Y-15142071D02*
X10306786Y-15113500D01*
X10335357Y-15099214D01*
X10378214Y-15099214D01*
X10406786Y-15113500D01*
X10421071Y-15142071D01*
X10421071Y-15299214D01*
X11006786Y-14984929D02*
X10749643Y-15370643D01*
X11392500Y-14999214D02*
X11421071Y-14999214D01*
X11449643Y-15013500D01*
X11463928Y-15027786D01*
X11478214Y-15056357D01*
X11492500Y-15113500D01*
X11492500Y-15184929D01*
X11478214Y-15242071D01*
X11463928Y-15270643D01*
X11449643Y-15284929D01*
X11421071Y-15299214D01*
X11392500Y-15299214D01*
X11363928Y-15284929D01*
X11349643Y-15270643D01*
X11335357Y-15242071D01*
X11321071Y-15184929D01*
X11321071Y-15113500D01*
X11335357Y-15056357D01*
X11349643Y-15027786D01*
X11363928Y-15013500D01*
X11392500Y-14999214D01*
X11621071Y-15270643D02*
X11635357Y-15284929D01*
X11621071Y-15299214D01*
X11606786Y-15284929D01*
X11621071Y-15270643D01*
X11621071Y-15299214D01*
X11821071Y-14999214D02*
X11849643Y-14999214D01*
X11878214Y-15013500D01*
X11892500Y-15027786D01*
X11906785Y-15056357D01*
X11921071Y-15113500D01*
X11921071Y-15184929D01*
X11906785Y-15242071D01*
X11892500Y-15270643D01*
X11878214Y-15284929D01*
X11849643Y-15299214D01*
X11821071Y-15299214D01*
X11792500Y-15284929D01*
X11778214Y-15270643D01*
X11763928Y-15242071D01*
X11749643Y-15184929D01*
X11749643Y-15113500D01*
X11763928Y-15056357D01*
X11778214Y-15027786D01*
X11792500Y-15013500D01*
X11821071Y-14999214D01*
X12206785Y-15299214D02*
X12035357Y-15299214D01*
X12121071Y-15299214D02*
X12121071Y-14999214D01*
X12092500Y-15042071D01*
X12063928Y-15070643D01*
X12035357Y-15084929D01*
X12392500Y-14999214D02*
X12421071Y-14999214D01*
X12449643Y-15013500D01*
X12463928Y-15027786D01*
X12478214Y-15056357D01*
X12492500Y-15113500D01*
X12492500Y-15184929D01*
X12478214Y-15242071D01*
X12463928Y-15270643D01*
X12449643Y-15284929D01*
X12421071Y-15299214D01*
X12392500Y-15299214D01*
X12363928Y-15284929D01*
X12349643Y-15270643D01*
X12335357Y-15242071D01*
X12321071Y-15184929D01*
X12321071Y-15113500D01*
X12335357Y-15056357D01*
X12349643Y-15027786D01*
X12363928Y-15013500D01*
X12392500Y-14999214D01*
X12606786Y-14999214D02*
X12606786Y-15056357D01*
X12721071Y-14999214D02*
X12721071Y-15056357D01*
X13163928Y-15413500D02*
X13149643Y-15399214D01*
X13121071Y-15356357D01*
X13106785Y-15327786D01*
X13092500Y-15284929D01*
X13078214Y-15213500D01*
X13078214Y-15156357D01*
X13092500Y-15084929D01*
X13106785Y-15042071D01*
X13121071Y-15013500D01*
X13149643Y-14970643D01*
X13163928Y-14956357D01*
X13421071Y-14999214D02*
X13278214Y-14999214D01*
X13263928Y-15142071D01*
X13278214Y-15127786D01*
X13306785Y-15113500D01*
X13378214Y-15113500D01*
X13406785Y-15127786D01*
X13421071Y-15142071D01*
X13435357Y-15170643D01*
X13435357Y-15242071D01*
X13421071Y-15270643D01*
X13406785Y-15284929D01*
X13378214Y-15299214D01*
X13306785Y-15299214D01*
X13278214Y-15284929D01*
X13263928Y-15270643D01*
X13692500Y-14999214D02*
X13635357Y-14999214D01*
X13606785Y-15013500D01*
X13592500Y-15027786D01*
X13563928Y-15070643D01*
X13549643Y-15127786D01*
X13549643Y-15242071D01*
X13563928Y-15270643D01*
X13578214Y-15284929D01*
X13606785Y-15299214D01*
X13663928Y-15299214D01*
X13692500Y-15284929D01*
X13706785Y-15270643D01*
X13721071Y-15242071D01*
X13721071Y-15170643D01*
X13706785Y-15142071D01*
X13692500Y-15127786D01*
X13663928Y-15113500D01*
X13606785Y-15113500D01*
X13578214Y-15127786D01*
X13563928Y-15142071D01*
X13549643Y-15170643D01*
X13978214Y-14999214D02*
X13921071Y-14999214D01*
X13892500Y-15013500D01*
X13878214Y-15027786D01*
X13849643Y-15070643D01*
X13835357Y-15127786D01*
X13835357Y-15242071D01*
X13849643Y-15270643D01*
X13863928Y-15284929D01*
X13892500Y-15299214D01*
X13949643Y-15299214D01*
X13978214Y-15284929D01*
X13992500Y-15270643D01*
X14006785Y-15242071D01*
X14006785Y-15170643D01*
X13992500Y-15142071D01*
X13978214Y-15127786D01*
X13949643Y-15113500D01*
X13892500Y-15113500D01*
X13863928Y-15127786D01*
X13849643Y-15142071D01*
X13835357Y-15170643D01*
X14363928Y-15299214D02*
X14363928Y-14999214D01*
X14492500Y-15299214D02*
X14492500Y-15142071D01*
X14478214Y-15113500D01*
X14449643Y-15099214D01*
X14406785Y-15099214D01*
X14378214Y-15113500D01*
X14363928Y-15127786D01*
X14678214Y-15299214D02*
X14649643Y-15284929D01*
X14635357Y-15270643D01*
X14621071Y-15242071D01*
X14621071Y-15156357D01*
X14635357Y-15127786D01*
X14649643Y-15113500D01*
X14678214Y-15099214D01*
X14721071Y-15099214D01*
X14749643Y-15113500D01*
X14763928Y-15127786D01*
X14778214Y-15156357D01*
X14778214Y-15242071D01*
X14763928Y-15270643D01*
X14749643Y-15284929D01*
X14721071Y-15299214D01*
X14678214Y-15299214D01*
X14949643Y-15299214D02*
X14921071Y-15284929D01*
X14906786Y-15256357D01*
X14906786Y-14999214D01*
X15178214Y-15284929D02*
X15149643Y-15299214D01*
X15092500Y-15299214D01*
X15063928Y-15284929D01*
X15049643Y-15256357D01*
X15049643Y-15142071D01*
X15063928Y-15113500D01*
X15092500Y-15099214D01*
X15149643Y-15099214D01*
X15178214Y-15113500D01*
X15192500Y-15142071D01*
X15192500Y-15170643D01*
X15049643Y-15199214D01*
X15306786Y-15284929D02*
X15335357Y-15299214D01*
X15392500Y-15299214D01*
X15421071Y-15284929D01*
X15435357Y-15256357D01*
X15435357Y-15242071D01*
X15421071Y-15213500D01*
X15392500Y-15199214D01*
X15349643Y-15199214D01*
X15321071Y-15184929D01*
X15306786Y-15156357D01*
X15306786Y-15142071D01*
X15321071Y-15113500D01*
X15349643Y-15099214D01*
X15392500Y-15099214D01*
X15421071Y-15113500D01*
X15535357Y-15413500D02*
X15549643Y-15399214D01*
X15578214Y-15356357D01*
X15592500Y-15327786D01*
X15606786Y-15284929D01*
X15621071Y-15213500D01*
X15621071Y-15156357D01*
X15606786Y-15084929D01*
X15592500Y-15042071D01*
X15578214Y-15013500D01*
X15549643Y-14970643D01*
X15535357Y-14956357D01*
X8477500Y-15544500D02*
X8477500Y-15574500D01*
X8462500Y-15559500D02*
X8492500Y-15559500D01*
X8821071Y-15395214D02*
X8849643Y-15395214D01*
X8878214Y-15409500D01*
X8892500Y-15423786D01*
X8906786Y-15452357D01*
X8921071Y-15509500D01*
X8921071Y-15580929D01*
X8906786Y-15638071D01*
X8892500Y-15666643D01*
X8878214Y-15680929D01*
X8849643Y-15695214D01*
X8821071Y-15695214D01*
X8792500Y-15680929D01*
X8778214Y-15666643D01*
X8763929Y-15638071D01*
X8749643Y-15580929D01*
X8749643Y-15509500D01*
X8763929Y-15452357D01*
X8778214Y-15423786D01*
X8792500Y-15409500D01*
X8821071Y-15395214D01*
X9049643Y-15666643D02*
X9063929Y-15680929D01*
X9049643Y-15695214D01*
X9035357Y-15680929D01*
X9049643Y-15666643D01*
X9049643Y-15695214D01*
X9163928Y-15395214D02*
X9349643Y-15395214D01*
X9249643Y-15509500D01*
X9292500Y-15509500D01*
X9321071Y-15523786D01*
X9335357Y-15538071D01*
X9349643Y-15566643D01*
X9349643Y-15638071D01*
X9335357Y-15666643D01*
X9321071Y-15680929D01*
X9292500Y-15695214D01*
X9206786Y-15695214D01*
X9178214Y-15680929D01*
X9163928Y-15666643D01*
X9535357Y-15395214D02*
X9563929Y-15395214D01*
X9592500Y-15409500D01*
X9606786Y-15423786D01*
X9621071Y-15452357D01*
X9635357Y-15509500D01*
X9635357Y-15580929D01*
X9621071Y-15638071D01*
X9606786Y-15666643D01*
X9592500Y-15680929D01*
X9563929Y-15695214D01*
X9535357Y-15695214D01*
X9506786Y-15680929D01*
X9492500Y-15666643D01*
X9478214Y-15638071D01*
X9463929Y-15580929D01*
X9463929Y-15509500D01*
X9478214Y-15452357D01*
X9492500Y-15423786D01*
X9506786Y-15409500D01*
X9535357Y-15395214D01*
X9763929Y-15695214D02*
X9763929Y-15495214D01*
X9763929Y-15523786D02*
X9778214Y-15509500D01*
X9806786Y-15495214D01*
X9849643Y-15495214D01*
X9878214Y-15509500D01*
X9892500Y-15538071D01*
X9892500Y-15695214D01*
X9892500Y-15538071D02*
X9906786Y-15509500D01*
X9935357Y-15495214D01*
X9978214Y-15495214D01*
X10006786Y-15509500D01*
X10021071Y-15538071D01*
X10021071Y-15695214D01*
X10163929Y-15695214D02*
X10163929Y-15495214D01*
X10163929Y-15523786D02*
X10178214Y-15509500D01*
X10206786Y-15495214D01*
X10249643Y-15495214D01*
X10278214Y-15509500D01*
X10292500Y-15538071D01*
X10292500Y-15695214D01*
X10292500Y-15538071D02*
X10306786Y-15509500D01*
X10335357Y-15495214D01*
X10378214Y-15495214D01*
X10406786Y-15509500D01*
X10421071Y-15538071D01*
X10421071Y-15695214D01*
X11006786Y-15380929D02*
X10749643Y-15766643D01*
X11392500Y-15395214D02*
X11421071Y-15395214D01*
X11449643Y-15409500D01*
X11463928Y-15423786D01*
X11478214Y-15452357D01*
X11492500Y-15509500D01*
X11492500Y-15580929D01*
X11478214Y-15638071D01*
X11463928Y-15666643D01*
X11449643Y-15680929D01*
X11421071Y-15695214D01*
X11392500Y-15695214D01*
X11363928Y-15680929D01*
X11349643Y-15666643D01*
X11335357Y-15638071D01*
X11321071Y-15580929D01*
X11321071Y-15509500D01*
X11335357Y-15452357D01*
X11349643Y-15423786D01*
X11363928Y-15409500D01*
X11392500Y-15395214D01*
X11621071Y-15666643D02*
X11635357Y-15680929D01*
X11621071Y-15695214D01*
X11606786Y-15680929D01*
X11621071Y-15666643D01*
X11621071Y-15695214D01*
X11821071Y-15395214D02*
X11849643Y-15395214D01*
X11878214Y-15409500D01*
X11892500Y-15423786D01*
X11906785Y-15452357D01*
X11921071Y-15509500D01*
X11921071Y-15580929D01*
X11906785Y-15638071D01*
X11892500Y-15666643D01*
X11878214Y-15680929D01*
X11849643Y-15695214D01*
X11821071Y-15695214D01*
X11792500Y-15680929D01*
X11778214Y-15666643D01*
X11763928Y-15638071D01*
X11749643Y-15580929D01*
X11749643Y-15509500D01*
X11763928Y-15452357D01*
X11778214Y-15423786D01*
X11792500Y-15409500D01*
X11821071Y-15395214D01*
X12206785Y-15695214D02*
X12035357Y-15695214D01*
X12121071Y-15695214D02*
X12121071Y-15395214D01*
X12092500Y-15438071D01*
X12063928Y-15466643D01*
X12035357Y-15480929D01*
X12321071Y-15423786D02*
X12335357Y-15409500D01*
X12363928Y-15395214D01*
X12435357Y-15395214D01*
X12463928Y-15409500D01*
X12478214Y-15423786D01*
X12492500Y-15452357D01*
X12492500Y-15480929D01*
X12478214Y-15523786D01*
X12306785Y-15695214D01*
X12492500Y-15695214D01*
X12606786Y-15395214D02*
X12606786Y-15452357D01*
X12721071Y-15395214D02*
X12721071Y-15452357D01*
X13163928Y-15809500D02*
X13149643Y-15795214D01*
X13121071Y-15752357D01*
X13106785Y-15723786D01*
X13092500Y-15680929D01*
X13078214Y-15609500D01*
X13078214Y-15552357D01*
X13092500Y-15480929D01*
X13106785Y-15438071D01*
X13121071Y-15409500D01*
X13149643Y-15366643D01*
X13163928Y-15352357D01*
X13406785Y-15495214D02*
X13406785Y-15695214D01*
X13335357Y-15380929D02*
X13263928Y-15595214D01*
X13449643Y-15595214D01*
X13792500Y-15695214D02*
X13792500Y-15395214D01*
X13921071Y-15695214D02*
X13921071Y-15538071D01*
X13906785Y-15509500D01*
X13878214Y-15495214D01*
X13835357Y-15495214D01*
X13806785Y-15509500D01*
X13792500Y-15523786D01*
X14106785Y-15695214D02*
X14078214Y-15680929D01*
X14063928Y-15666643D01*
X14049643Y-15638071D01*
X14049643Y-15552357D01*
X14063928Y-15523786D01*
X14078214Y-15509500D01*
X14106785Y-15495214D01*
X14149643Y-15495214D01*
X14178214Y-15509500D01*
X14192500Y-15523786D01*
X14206785Y-15552357D01*
X14206785Y-15638071D01*
X14192500Y-15666643D01*
X14178214Y-15680929D01*
X14149643Y-15695214D01*
X14106785Y-15695214D01*
X14378214Y-15695214D02*
X14349643Y-15680929D01*
X14335357Y-15652357D01*
X14335357Y-15395214D01*
X14606786Y-15680929D02*
X14578214Y-15695214D01*
X14521071Y-15695214D01*
X14492500Y-15680929D01*
X14478214Y-15652357D01*
X14478214Y-15538071D01*
X14492500Y-15509500D01*
X14521071Y-15495214D01*
X14578214Y-15495214D01*
X14606786Y-15509500D01*
X14621071Y-15538071D01*
X14621071Y-15566643D01*
X14478214Y-15595214D01*
X14735357Y-15680929D02*
X14763928Y-15695214D01*
X14821071Y-15695214D01*
X14849643Y-15680929D01*
X14863928Y-15652357D01*
X14863928Y-15638071D01*
X14849643Y-15609500D01*
X14821071Y-15595214D01*
X14778214Y-15595214D01*
X14749643Y-15580929D01*
X14735357Y-15552357D01*
X14735357Y-15538071D01*
X14749643Y-15509500D01*
X14778214Y-15495214D01*
X14821071Y-15495214D01*
X14849643Y-15509500D01*
X14963928Y-15809500D02*
X14978214Y-15795214D01*
X15006786Y-15752357D01*
X15021071Y-15723786D01*
X15035357Y-15680929D01*
X15049643Y-15609500D01*
X15049643Y-15552357D01*
X15035357Y-15480929D01*
X15021071Y-15438071D01*
X15006786Y-15409500D01*
X14978214Y-15366643D01*
X14963928Y-15352357D01*
X8477856Y-15990856D02*
X8477856Y-15920144D01*
X8407144Y-15920144D01*
X8407144Y-15990856D01*
X8477856Y-15990856D01*
X8921071Y-16091214D02*
X8749643Y-16091214D01*
X8835357Y-16091214D02*
X8835357Y-15791214D01*
X8806786Y-15834071D01*
X8778214Y-15862643D01*
X8749643Y-15876929D01*
X9049643Y-16062643D02*
X9063929Y-16076929D01*
X9049643Y-16091214D01*
X9035357Y-16076929D01*
X9049643Y-16062643D01*
X9049643Y-16091214D01*
X9249643Y-15791214D02*
X9278214Y-15791214D01*
X9306786Y-15805500D01*
X9321071Y-15819786D01*
X9335357Y-15848357D01*
X9349643Y-15905500D01*
X9349643Y-15976929D01*
X9335357Y-16034071D01*
X9321071Y-16062643D01*
X9306786Y-16076929D01*
X9278214Y-16091214D01*
X9249643Y-16091214D01*
X9221071Y-16076929D01*
X9206786Y-16062643D01*
X9192500Y-16034071D01*
X9178214Y-15976929D01*
X9178214Y-15905500D01*
X9192500Y-15848357D01*
X9206786Y-15819786D01*
X9221071Y-15805500D01*
X9249643Y-15791214D01*
X9535357Y-15791214D02*
X9563929Y-15791214D01*
X9592500Y-15805500D01*
X9606786Y-15819786D01*
X9621071Y-15848357D01*
X9635357Y-15905500D01*
X9635357Y-15976929D01*
X9621071Y-16034071D01*
X9606786Y-16062643D01*
X9592500Y-16076929D01*
X9563929Y-16091214D01*
X9535357Y-16091214D01*
X9506786Y-16076929D01*
X9492500Y-16062643D01*
X9478214Y-16034071D01*
X9463929Y-15976929D01*
X9463929Y-15905500D01*
X9478214Y-15848357D01*
X9492500Y-15819786D01*
X9506786Y-15805500D01*
X9535357Y-15791214D01*
X9763929Y-16091214D02*
X9763929Y-15891214D01*
X9763929Y-15919786D02*
X9778214Y-15905500D01*
X9806786Y-15891214D01*
X9849643Y-15891214D01*
X9878214Y-15905500D01*
X9892500Y-15934071D01*
X9892500Y-16091214D01*
X9892500Y-15934071D02*
X9906786Y-15905500D01*
X9935357Y-15891214D01*
X9978214Y-15891214D01*
X10006786Y-15905500D01*
X10021071Y-15934071D01*
X10021071Y-16091214D01*
X10163929Y-16091214D02*
X10163929Y-15891214D01*
X10163929Y-15919786D02*
X10178214Y-15905500D01*
X10206786Y-15891214D01*
X10249643Y-15891214D01*
X10278214Y-15905500D01*
X10292500Y-15934071D01*
X10292500Y-16091214D01*
X10292500Y-15934071D02*
X10306786Y-15905500D01*
X10335357Y-15891214D01*
X10378214Y-15891214D01*
X10406786Y-15905500D01*
X10421071Y-15934071D01*
X10421071Y-16091214D01*
X11006786Y-15776929D02*
X10749643Y-16162643D01*
X11392500Y-15791214D02*
X11421071Y-15791214D01*
X11449643Y-15805500D01*
X11463928Y-15819786D01*
X11478214Y-15848357D01*
X11492500Y-15905500D01*
X11492500Y-15976929D01*
X11478214Y-16034071D01*
X11463928Y-16062643D01*
X11449643Y-16076929D01*
X11421071Y-16091214D01*
X11392500Y-16091214D01*
X11363928Y-16076929D01*
X11349643Y-16062643D01*
X11335357Y-16034071D01*
X11321071Y-15976929D01*
X11321071Y-15905500D01*
X11335357Y-15848357D01*
X11349643Y-15819786D01*
X11363928Y-15805500D01*
X11392500Y-15791214D01*
X11621071Y-16062643D02*
X11635357Y-16076929D01*
X11621071Y-16091214D01*
X11606786Y-16076929D01*
X11621071Y-16062643D01*
X11621071Y-16091214D01*
X11821071Y-15791214D02*
X11849643Y-15791214D01*
X11878214Y-15805500D01*
X11892500Y-15819786D01*
X11906785Y-15848357D01*
X11921071Y-15905500D01*
X11921071Y-15976929D01*
X11906785Y-16034071D01*
X11892500Y-16062643D01*
X11878214Y-16076929D01*
X11849643Y-16091214D01*
X11821071Y-16091214D01*
X11792500Y-16076929D01*
X11778214Y-16062643D01*
X11763928Y-16034071D01*
X11749643Y-15976929D01*
X11749643Y-15905500D01*
X11763928Y-15848357D01*
X11778214Y-15819786D01*
X11792500Y-15805500D01*
X11821071Y-15791214D01*
X12021071Y-15791214D02*
X12206785Y-15791214D01*
X12106785Y-15905500D01*
X12149643Y-15905500D01*
X12178214Y-15919786D01*
X12192500Y-15934071D01*
X12206785Y-15962643D01*
X12206785Y-16034071D01*
X12192500Y-16062643D01*
X12178214Y-16076929D01*
X12149643Y-16091214D01*
X12063928Y-16091214D01*
X12035357Y-16076929D01*
X12021071Y-16062643D01*
X12349643Y-16091214D02*
X12406785Y-16091214D01*
X12435357Y-16076929D01*
X12449643Y-16062643D01*
X12478214Y-16019786D01*
X12492500Y-15962643D01*
X12492500Y-15848357D01*
X12478214Y-15819786D01*
X12463928Y-15805500D01*
X12435357Y-15791214D01*
X12378214Y-15791214D01*
X12349643Y-15805500D01*
X12335357Y-15819786D01*
X12321071Y-15848357D01*
X12321071Y-15919786D01*
X12335357Y-15948357D01*
X12349643Y-15962643D01*
X12378214Y-15976929D01*
X12435357Y-15976929D01*
X12463928Y-15962643D01*
X12478214Y-15948357D01*
X12492500Y-15919786D01*
X12606786Y-15791214D02*
X12606786Y-15848357D01*
X12721071Y-15791214D02*
X12721071Y-15848357D01*
X13163928Y-16205500D02*
X13149643Y-16191214D01*
X13121071Y-16148357D01*
X13106785Y-16119786D01*
X13092500Y-16076929D01*
X13078214Y-16005500D01*
X13078214Y-15948357D01*
X13092500Y-15876929D01*
X13106785Y-15834071D01*
X13121071Y-15805500D01*
X13149643Y-15762643D01*
X13163928Y-15748357D01*
X13335357Y-15791214D02*
X13363928Y-15791214D01*
X13392500Y-15805500D01*
X13406785Y-15819786D01*
X13421071Y-15848357D01*
X13435357Y-15905500D01*
X13435357Y-15976929D01*
X13421071Y-16034071D01*
X13406785Y-16062643D01*
X13392500Y-16076929D01*
X13363928Y-16091214D01*
X13335357Y-16091214D01*
X13306785Y-16076929D01*
X13292500Y-16062643D01*
X13278214Y-16034071D01*
X13263928Y-15976929D01*
X13263928Y-15905500D01*
X13278214Y-15848357D01*
X13292500Y-15819786D01*
X13306785Y-15805500D01*
X13335357Y-15791214D01*
X13792500Y-16091214D02*
X13792500Y-15791214D01*
X13921071Y-16091214D02*
X13921071Y-15934071D01*
X13906785Y-15905500D01*
X13878214Y-15891214D01*
X13835357Y-15891214D01*
X13806785Y-15905500D01*
X13792500Y-15919786D01*
X14106785Y-16091214D02*
X14078214Y-16076929D01*
X14063928Y-16062643D01*
X14049643Y-16034071D01*
X14049643Y-15948357D01*
X14063928Y-15919786D01*
X14078214Y-15905500D01*
X14106785Y-15891214D01*
X14149643Y-15891214D01*
X14178214Y-15905500D01*
X14192500Y-15919786D01*
X14206785Y-15948357D01*
X14206785Y-16034071D01*
X14192500Y-16062643D01*
X14178214Y-16076929D01*
X14149643Y-16091214D01*
X14106785Y-16091214D01*
X14378214Y-16091214D02*
X14349643Y-16076929D01*
X14335357Y-16048357D01*
X14335357Y-15791214D01*
X14606786Y-16076929D02*
X14578214Y-16091214D01*
X14521071Y-16091214D01*
X14492500Y-16076929D01*
X14478214Y-16048357D01*
X14478214Y-15934071D01*
X14492500Y-15905500D01*
X14521071Y-15891214D01*
X14578214Y-15891214D01*
X14606786Y-15905500D01*
X14621071Y-15934071D01*
X14621071Y-15962643D01*
X14478214Y-15991214D01*
X14735357Y-16076929D02*
X14763928Y-16091214D01*
X14821071Y-16091214D01*
X14849643Y-16076929D01*
X14863928Y-16048357D01*
X14863928Y-16034071D01*
X14849643Y-16005500D01*
X14821071Y-15991214D01*
X14778214Y-15991214D01*
X14749643Y-15976929D01*
X14735357Y-15948357D01*
X14735357Y-15934071D01*
X14749643Y-15905500D01*
X14778214Y-15891214D01*
X14821071Y-15891214D01*
X14849643Y-15905500D01*
X15221071Y-15976929D02*
X15449643Y-15976929D01*
X15335357Y-16091214D02*
X15335357Y-15862643D01*
X15792500Y-15791214D02*
X15978214Y-15791214D01*
X15878214Y-15905500D01*
X15921071Y-15905500D01*
X15949643Y-15919786D01*
X15963928Y-15934071D01*
X15978214Y-15962643D01*
X15978214Y-16034071D01*
X15963928Y-16062643D01*
X15949643Y-16076929D01*
X15921071Y-16091214D01*
X15835357Y-16091214D01*
X15806786Y-16076929D01*
X15792500Y-16062643D01*
X16321071Y-16076929D02*
X16349643Y-16091214D01*
X16406785Y-16091214D01*
X16435357Y-16076929D01*
X16449643Y-16048357D01*
X16449643Y-16034071D01*
X16435357Y-16005500D01*
X16406785Y-15991214D01*
X16363928Y-15991214D01*
X16335357Y-15976929D01*
X16321071Y-15948357D01*
X16321071Y-15934071D01*
X16335357Y-15905500D01*
X16363928Y-15891214D01*
X16406785Y-15891214D01*
X16435357Y-15905500D01*
X16621071Y-16091214D02*
X16592500Y-16076929D01*
X16578214Y-16048357D01*
X16578214Y-15791214D01*
X16778214Y-16091214D02*
X16749643Y-16076929D01*
X16735357Y-16062643D01*
X16721071Y-16034071D01*
X16721071Y-15948357D01*
X16735357Y-15919786D01*
X16749643Y-15905500D01*
X16778214Y-15891214D01*
X16821071Y-15891214D01*
X16849643Y-15905500D01*
X16863928Y-15919786D01*
X16878214Y-15948357D01*
X16878214Y-16034071D01*
X16863928Y-16062643D01*
X16849643Y-16076929D01*
X16821071Y-16091214D01*
X16778214Y-16091214D01*
X16963928Y-15891214D02*
X17078214Y-15891214D01*
X17006786Y-15791214D02*
X17006786Y-16048357D01*
X17021071Y-16076929D01*
X17049643Y-16091214D01*
X17078214Y-16091214D01*
X17163929Y-16076929D02*
X17192500Y-16091214D01*
X17249643Y-16091214D01*
X17278214Y-16076929D01*
X17292500Y-16048357D01*
X17292500Y-16034071D01*
X17278214Y-16005500D01*
X17249643Y-15991214D01*
X17206786Y-15991214D01*
X17178214Y-15976929D01*
X17163929Y-15948357D01*
X17163929Y-15934071D01*
X17178214Y-15905500D01*
X17206786Y-15891214D01*
X17249643Y-15891214D01*
X17278214Y-15905500D01*
X17392500Y-16205500D02*
X17406786Y-16191214D01*
X17435357Y-16148357D01*
X17449643Y-16119786D01*
X17463928Y-16076929D01*
X17478214Y-16005500D01*
X17478214Y-15948357D01*
X17463928Y-15876929D01*
X17449643Y-15834071D01*
X17435357Y-15805500D01*
X17406786Y-15762643D01*
X17392500Y-15748357D01*
X8441700Y-16402300D02*
X8492500Y-16351500D01*
X8441700Y-16300700D01*
X8390900Y-16351500D01*
X8441700Y-16402300D01*
X8921071Y-16487214D02*
X8749643Y-16487214D01*
X8835357Y-16487214D02*
X8835357Y-16187214D01*
X8806786Y-16230071D01*
X8778214Y-16258643D01*
X8749643Y-16272929D01*
X9049643Y-16458643D02*
X9063929Y-16472929D01*
X9049643Y-16487214D01*
X9035357Y-16472929D01*
X9049643Y-16458643D01*
X9049643Y-16487214D01*
X9249643Y-16187214D02*
X9278214Y-16187214D01*
X9306786Y-16201500D01*
X9321071Y-16215786D01*
X9335357Y-16244357D01*
X9349643Y-16301500D01*
X9349643Y-16372929D01*
X9335357Y-16430071D01*
X9321071Y-16458643D01*
X9306786Y-16472929D01*
X9278214Y-16487214D01*
X9249643Y-16487214D01*
X9221071Y-16472929D01*
X9206786Y-16458643D01*
X9192500Y-16430071D01*
X9178214Y-16372929D01*
X9178214Y-16301500D01*
X9192500Y-16244357D01*
X9206786Y-16215786D01*
X9221071Y-16201500D01*
X9249643Y-16187214D01*
X9463929Y-16215786D02*
X9478214Y-16201500D01*
X9506786Y-16187214D01*
X9578214Y-16187214D01*
X9606786Y-16201500D01*
X9621071Y-16215786D01*
X9635357Y-16244357D01*
X9635357Y-16272929D01*
X9621071Y-16315786D01*
X9449643Y-16487214D01*
X9635357Y-16487214D01*
X9763929Y-16487214D02*
X9763929Y-16287214D01*
X9763929Y-16315786D02*
X9778214Y-16301500D01*
X9806786Y-16287214D01*
X9849643Y-16287214D01*
X9878214Y-16301500D01*
X9892500Y-16330071D01*
X9892500Y-16487214D01*
X9892500Y-16330071D02*
X9906786Y-16301500D01*
X9935357Y-16287214D01*
X9978214Y-16287214D01*
X10006786Y-16301500D01*
X10021071Y-16330071D01*
X10021071Y-16487214D01*
X10163929Y-16487214D02*
X10163929Y-16287214D01*
X10163929Y-16315786D02*
X10178214Y-16301500D01*
X10206786Y-16287214D01*
X10249643Y-16287214D01*
X10278214Y-16301500D01*
X10292500Y-16330071D01*
X10292500Y-16487214D01*
X10292500Y-16330071D02*
X10306786Y-16301500D01*
X10335357Y-16287214D01*
X10378214Y-16287214D01*
X10406786Y-16301500D01*
X10421071Y-16330071D01*
X10421071Y-16487214D01*
X11006786Y-16172929D02*
X10749643Y-16558643D01*
X11392500Y-16187214D02*
X11421071Y-16187214D01*
X11449643Y-16201500D01*
X11463928Y-16215786D01*
X11478214Y-16244357D01*
X11492500Y-16301500D01*
X11492500Y-16372929D01*
X11478214Y-16430071D01*
X11463928Y-16458643D01*
X11449643Y-16472929D01*
X11421071Y-16487214D01*
X11392500Y-16487214D01*
X11363928Y-16472929D01*
X11349643Y-16458643D01*
X11335357Y-16430071D01*
X11321071Y-16372929D01*
X11321071Y-16301500D01*
X11335357Y-16244357D01*
X11349643Y-16215786D01*
X11363928Y-16201500D01*
X11392500Y-16187214D01*
X11621071Y-16458643D02*
X11635357Y-16472929D01*
X11621071Y-16487214D01*
X11606786Y-16472929D01*
X11621071Y-16458643D01*
X11621071Y-16487214D01*
X11821071Y-16187214D02*
X11849643Y-16187214D01*
X11878214Y-16201500D01*
X11892500Y-16215786D01*
X11906785Y-16244357D01*
X11921071Y-16301500D01*
X11921071Y-16372929D01*
X11906785Y-16430071D01*
X11892500Y-16458643D01*
X11878214Y-16472929D01*
X11849643Y-16487214D01*
X11821071Y-16487214D01*
X11792500Y-16472929D01*
X11778214Y-16458643D01*
X11763928Y-16430071D01*
X11749643Y-16372929D01*
X11749643Y-16301500D01*
X11763928Y-16244357D01*
X11778214Y-16215786D01*
X11792500Y-16201500D01*
X11821071Y-16187214D01*
X12178214Y-16287214D02*
X12178214Y-16487214D01*
X12106785Y-16172929D02*
X12035357Y-16387214D01*
X12221071Y-16387214D01*
X12392500Y-16187214D02*
X12421071Y-16187214D01*
X12449643Y-16201500D01*
X12463928Y-16215786D01*
X12478214Y-16244357D01*
X12492500Y-16301500D01*
X12492500Y-16372929D01*
X12478214Y-16430071D01*
X12463928Y-16458643D01*
X12449643Y-16472929D01*
X12421071Y-16487214D01*
X12392500Y-16487214D01*
X12363928Y-16472929D01*
X12349643Y-16458643D01*
X12335357Y-16430071D01*
X12321071Y-16372929D01*
X12321071Y-16301500D01*
X12335357Y-16244357D01*
X12349643Y-16215786D01*
X12363928Y-16201500D01*
X12392500Y-16187214D01*
X12606786Y-16187214D02*
X12606786Y-16244357D01*
X12721071Y-16187214D02*
X12721071Y-16244357D01*
X13163928Y-16601500D02*
X13149643Y-16587214D01*
X13121071Y-16544357D01*
X13106785Y-16515786D01*
X13092500Y-16472929D01*
X13078214Y-16401500D01*
X13078214Y-16344357D01*
X13092500Y-16272929D01*
X13106785Y-16230071D01*
X13121071Y-16201500D01*
X13149643Y-16158643D01*
X13163928Y-16144357D01*
X13435357Y-16487214D02*
X13263928Y-16487214D01*
X13349643Y-16487214D02*
X13349643Y-16187214D01*
X13321071Y-16230071D01*
X13292500Y-16258643D01*
X13263928Y-16272929D01*
X13692500Y-16287214D02*
X13692500Y-16487214D01*
X13621071Y-16172929D02*
X13549643Y-16387214D01*
X13735357Y-16387214D01*
X14078214Y-16487214D02*
X14078214Y-16187214D01*
X14206785Y-16487214D02*
X14206785Y-16330071D01*
X14192500Y-16301500D01*
X14163928Y-16287214D01*
X14121071Y-16287214D01*
X14092500Y-16301500D01*
X14078214Y-16315786D01*
X14392500Y-16487214D02*
X14363928Y-16472929D01*
X14349643Y-16458643D01*
X14335357Y-16430071D01*
X14335357Y-16344357D01*
X14349643Y-16315786D01*
X14363928Y-16301500D01*
X14392500Y-16287214D01*
X14435357Y-16287214D01*
X14463928Y-16301500D01*
X14478214Y-16315786D01*
X14492500Y-16344357D01*
X14492500Y-16430071D01*
X14478214Y-16458643D01*
X14463928Y-16472929D01*
X14435357Y-16487214D01*
X14392500Y-16487214D01*
X14663928Y-16487214D02*
X14635357Y-16472929D01*
X14621071Y-16444357D01*
X14621071Y-16187214D01*
X14892500Y-16472929D02*
X14863928Y-16487214D01*
X14806786Y-16487214D01*
X14778214Y-16472929D01*
X14763928Y-16444357D01*
X14763928Y-16330071D01*
X14778214Y-16301500D01*
X14806786Y-16287214D01*
X14863928Y-16287214D01*
X14892500Y-16301500D01*
X14906786Y-16330071D01*
X14906786Y-16358643D01*
X14763928Y-16387214D01*
X15021071Y-16472929D02*
X15049643Y-16487214D01*
X15106786Y-16487214D01*
X15135357Y-16472929D01*
X15149643Y-16444357D01*
X15149643Y-16430071D01*
X15135357Y-16401500D01*
X15106786Y-16387214D01*
X15063928Y-16387214D01*
X15035357Y-16372929D01*
X15021071Y-16344357D01*
X15021071Y-16330071D01*
X15035357Y-16301500D01*
X15063928Y-16287214D01*
X15106786Y-16287214D01*
X15135357Y-16301500D01*
X15249643Y-16601500D02*
X15263928Y-16587214D01*
X15292500Y-16544357D01*
X15306786Y-16515786D01*
X15321071Y-16472929D01*
X15335357Y-16401500D01*
X15335357Y-16344357D01*
X15321071Y-16272929D01*
X15306786Y-16230071D01*
X15292500Y-16201500D01*
X15263928Y-16158643D01*
X15249643Y-16144357D01*
M02*
