  0
SECTION
  2
HEADER
  9
$ANGBASE
  50
0.0
  9
$ANGDIR
  70
  1
  9
$MEASUREMENT
  70
0
  0
ENDSEC
  0
SECTION
  2
TABLES
  0
TABLE
  2
LTYPE
  70
1
  0
LTYPE
  2
CONTINUOUS
  70
0
  3
Solid line
  72
65
  73
0
  40
0.0
  0
ENDTAB
  0
TABLE
  2
STYLE
  70
4
  0
STYLE
  2
KICAD
  70
0
  40
0
  41
1
  42
1
  50
0
  71
0
  3
isocp.shx
  0
STYLE
  2
KICADB
  70
0
  40
0
  41
1
  42
1
  50
0
  71
0
  3
isocp.shx
  0
STYLE
  2
KICADI
  70
0
  40
0
  41
1
  42
1
  50
15
  71
0
  3
isocp.shx
  0
STYLE
  2
KICADBI
  70
0
  40
0
  41
1
  42
1
  50
15
  71
0
  3
isocp.shx
  0
ENDTAB
  0
TABLE
  2
LAYER
  70
30
  0
LAYER
  2
BLACK
  70
0
  62
7
  6
CONTINUOUS
  0
LAYER
  2
GRAY1
  70
0
  62
251
  6
CONTINUOUS
  0
LAYER
  2
GRAY2
  70
0
  62
8
  6
CONTINUOUS
  0
LAYER
  2
GRAY3
  70
0
  62
9
  6
CONTINUOUS
  0
LAYER
  2
WHITE
  70
0
  62
7
  6
CONTINUOUS
  0
LAYER
  2
LYELLOW
  70
0
  62
51
  6
CONTINUOUS
  0
LAYER
  2
BLUE1
  70
0
  62
178
  6
CONTINUOUS
  0
LAYER
  2
GREEN1
  70
0
  62
98
  6
CONTINUOUS
  0
LAYER
  2
CYAN1
  70
0
  62
138
  6
CONTINUOUS
  0
LAYER
  2
RED1
  70
0
  62
18
  6
CONTINUOUS
  0
LAYER
  2
MAGENTA1
  70
0
  62
228
  6
CONTINUOUS
  0
LAYER
  2
BROWN1
  70
0
  62
58
  6
CONTINUOUS
  0
LAYER
  2
BLUE2
  70
0
  62
5
  6
CONTINUOUS
  0
LAYER
  2
GREEN2
  70
0
  62
3
  6
CONTINUOUS
  0
LAYER
  2
CYAN2
  70
0
  62
4
  6
CONTINUOUS
  0
LAYER
  2
RED2
  70
0
  62
1
  6
CONTINUOUS
  0
LAYER
  2
MAGENTA2
  70
0
  62
6
  6
CONTINUOUS
  0
LAYER
  2
BROWN2
  70
0
  62
54
  6
CONTINUOUS
  0
LAYER
  2
BLUE3
  70
0
  62
171
  6
CONTINUOUS
  0
LAYER
  2
GREEN3
  70
0
  62
91
  6
CONTINUOUS
  0
LAYER
  2
CYAN3
  70
0
  62
131
  6
CONTINUOUS
  0
LAYER
  2
RED3
  70
0
  62
11
  6
CONTINUOUS
  0
LAYER
  2
MAGENTA3
  70
0
  62
221
  6
CONTINUOUS
  0
LAYER
  2
YELLOW3
  70
0
  62
2
  6
CONTINUOUS
  0
LAYER
  2
BLUE4
  70
0
  62
5
  6
CONTINUOUS
  0
LAYER
  2
GREEN4
  70
0
  62
3
  6
CONTINUOUS
  0
LAYER
  2
CYAN4
  70
0
  62
4
  6
CONTINUOUS
  0
LAYER
  2
RED4
  70
0
  62
1
  6
CONTINUOUS
  0
LAYER
  2
MAGENTA4
  70
0
  62
6
  6
CONTINUOUS
  0
LAYER
  2
YELLOW4
  70
0
  62
2
  6
CONTINUOUS
  0
ENDTAB
  0
ENDSEC
  0
SECTION
  2
ENTITIES
0
LINE
8
Black
10
210.756
20
-64.9261
11
210.763
21
-64.9261
0
LINE
8
Black
10
210.763
20
-64.9261
11
210.769
21
-64.9284
0
LINE
8
Black
10
210.769
20
-64.9284
11
210.776
21
-64.9295
0
LINE
8
Black
10
210.776
20
-64.9295
11
210.781
21
-64.9328
0
LINE
8
Black
10
210.781
20
-64.9328
11
210.787
21
-64.935
0
LINE
8
Black
10
210.787
20
-64.935
11
210.793
21
-64.9393
0
LINE
8
Black
10
210.793
20
-64.9393
11
210.798
21
-64.9425
0
LINE
8
Black
10
210.798
20
-64.9425
11
210.802
21
-64.9476
0
LINE
8
Black
10
210.802
20
-64.9476
11
210.807
21
-64.9518
0
LINE
8
Black
10
210.807
20
-64.9518
11
210.811
21
-64.9575
0
LINE
8
Black
10
210.811
20
-64.9575
11
210.815
21
-64.9625
0
LINE
8
Black
10
210.815
20
-64.9625
11
210.817
21
-64.9687
0
LINE
8
Black
10
210.817
20
-64.9687
11
210.82
21
-64.9743
0
LINE
8
Black
10
210.82
20
-64.9743
11
210.822
21
-64.9808
0
LINE
8
Black
10
210.822
20
-64.9808
11
210.824
21
-64.987
0
LINE
8
Black
10
210.824
20
-64.987
11
210.824
21
-64.9935
0
LINE
8
Black
10
210.824
20
-64.9935
11
210.825
21
-65
0
LINE
8
Black
10
210.825
20
-65
11
210.825
21
-138
0
LINE
8
Black
10
210.825
20
-138
11
210.824
21
-138.006
0
LINE
8
Black
10
210.824
20
-138.006
11
210.824
21
-138.013
0
LINE
8
Black
10
210.824
20
-138.013
11
210.822
21
-138.019
0
LINE
8
Black
10
210.822
20
-138.019
11
210.82
21
-138.026
0
LINE
8
Black
10
210.82
20
-138.026
11
210.817
21
-138.031
0
LINE
8
Black
10
210.817
20
-138.031
11
210.815
21
-138.037
0
LINE
8
Black
10
210.815
20
-138.037
11
210.811
21
-138.043
0
LINE
8
Black
10
210.811
20
-138.043
11
210.807
21
-138.048
0
LINE
8
Black
10
210.807
20
-138.048
11
210.802
21
-138.052
0
LINE
8
Black
10
210.802
20
-138.052
11
210.798
21
-138.057
0
LINE
8
Black
10
210.798
20
-138.057
11
210.793
21
-138.061
0
LINE
8
Black
10
210.793
20
-138.061
11
210.787
21
-138.065
0
LINE
8
Black
10
210.787
20
-138.065
11
210.781
21
-138.067
0
LINE
8
Black
10
210.781
20
-138.067
11
210.776
21
-138.07
0
LINE
8
Black
10
210.776
20
-138.07
11
210.769
21
-138.072
0
LINE
8
Black
10
210.769
20
-138.072
11
210.763
21
-138.074
0
LINE
8
Black
10
210.763
20
-138.074
11
210.756
21
-138.074
0
LINE
8
Black
10
210.756
20
-138.074
11
210.75
21
-138.075
0
LINE
8
Black
10
210.75
20
-138.075
11
85
21
-138.075
0
LINE
8
Black
10
85
20
-138.075
11
84.9935
21
-138.074
0
LINE
8
Black
10
84.9935
20
-138.074
11
84.987
21
-138.074
0
LINE
8
Black
10
84.987
20
-138.074
11
84.9808
21
-138.072
0
LINE
8
Black
10
84.9808
20
-138.072
11
84.9743
21
-138.07
0
LINE
8
Black
10
84.9743
20
-138.07
11
84.9687
21
-138.067
0
LINE
8
Black
10
84.9687
20
-138.067
11
84.9625
21
-138.065
0
LINE
8
Black
10
84.9625
20
-138.065
11
84.9575
21
-138.061
0
LINE
8
Black
10
84.9575
20
-138.061
11
84.9518
21
-138.057
0
LINE
8
Black
10
84.9518
20
-138.057
11
84.9476
21
-138.052
0
LINE
8
Black
10
84.9476
20
-138.052
11
84.9425
21
-138.048
0
LINE
8
Black
10
84.9425
20
-138.048
11
84.9393
21
-138.043
0
LINE
8
Black
10
84.9393
20
-138.043
11
84.935
21
-138.037
0
LINE
8
Black
10
84.935
20
-138.037
11
84.9328
21
-138.031
0
LINE
8
Black
10
84.9328
20
-138.031
11
84.9295
21
-138.026
0
LINE
8
Black
10
84.9295
20
-138.026
11
84.9284
21
-138.019
0
LINE
8
Black
10
84.9284
20
-138.019
11
84.9261
21
-138.013
0
LINE
8
Black
10
84.9261
20
-138.013
11
84.9261
21
-138.006
0
LINE
8
Black
10
84.9261
20
-138.006
11
84.925
21
-138
0
LINE
8
Black
10
84.925
20
-138
11
84.925
21
-65
0
LINE
8
Black
10
84.925
20
-65
11
84.9261
21
-64.9935
0
LINE
8
Black
10
84.9261
20
-64.9935
11
84.9261
21
-64.987
0
LINE
8
Black
10
84.9261
20
-64.987
11
84.9284
21
-64.9808
0
LINE
8
Black
10
84.9284
20
-64.9808
11
84.9295
21
-64.9743
0
LINE
8
Black
10
84.9295
20
-64.9743
11
84.9328
21
-64.9687
0
LINE
8
Black
10
84.9328
20
-64.9687
11
84.935
21
-64.9625
0
LINE
8
Black
10
84.935
20
-64.9625
11
84.9393
21
-64.9575
0
LINE
8
Black
10
84.9393
20
-64.9575
11
84.9425
21
-64.9518
0
LINE
8
Black
10
84.9425
20
-64.9518
11
84.9476
21
-64.9476
0
LINE
8
Black
10
84.9476
20
-64.9476
11
84.9518
21
-64.9425
0
LINE
8
Black
10
84.9518
20
-64.9425
11
84.9575
21
-64.9393
0
LINE
8
Black
10
84.9575
20
-64.9393
11
84.9625
21
-64.935
0
LINE
8
Black
10
84.9625
20
-64.935
11
84.9687
21
-64.9328
0
LINE
8
Black
10
84.9687
20
-64.9328
11
84.9743
21
-64.9295
0
LINE
8
Black
10
84.9743
20
-64.9295
11
84.9808
21
-64.9284
0
LINE
8
Black
10
84.9808
20
-64.9284
11
84.987
21
-64.9261
0
LINE
8
Black
10
84.987
20
-64.9261
11
84.9935
21
-64.9261
0
LINE
8
Black
10
84.9935
20
-64.9261
11
85
21
-64.925
0
LINE
8
Black
10
85
20
-64.925
11
210.75
21
-64.925
0
LINE
8
Black
10
210.75
20
-64.925
11
210.756
21
-64.9261
0
LINE
8
Black
10
85.075
20
-65.075
11
85.075
21
-137.925
0
LINE
8
Black
10
85.075
20
-137.925
11
210.675
21
-137.925
0
LINE
8
Black
10
210.675
20
-137.925
11
210.675
21
-65.075
0
LINE
8
Black
10
210.675
20
-65.075
11
85.075
21
-65.075
  0
ENDSEC
  0
EOF
